[Module]
VortexTrackerII=0
Version=3.7
Title=Vradark's Revenge: intro [1]
Author=n1k-o  27.08.2022
ShowInfo=0
NoteTable=2
ChipFreq=1750000
IntFreq=48828
Speed=4
Noise=HEX
PlayOrder=0,1,2,3,4,5,6,7,8,9,10,11,12,13,14,L15


[Ornament1]
0,12,L0

[Ornament2]
L0

[Ornament3]
12,24,L-12

[Ornament4]
-96,-96,-96,-96,L0

[Ornament5]
12,24,L0

[Ornament6]
L0

[Ornament7]
L0

[Ornament8]
-96,-96,-96,L0,-12,-24,24,0

[Ornament9]
L0

[Ornament10]
L0

[Ornament11]
L0

[Ornament12]
-96,24,12,L0

[Ornament13]
-96,12,L0

[Ornament14]
12,L0

[Ornament15]
L0

[Ornament16]
L0

[Ornament17]
L0

[Ornament18]
L0

[Ornament19]
L0

[Ornament20]
L0

[Ornament21]
L0

[Ornament22]
L0

[Ornament23]
L0

[Ornament24]
L0

[Ornament25]
L0

[Ornament26]
L0

[Ornament27]
L0

[Ornament28]
L0

[Ornament29]
L0

[Ornament30]
L0

[Ornament31]
L0

[Sample1]
TN. +000_ +00_ F_
T.E +000_ +00_ E_
T.E +000_ +00_ D_
T.E +000_ +00_ C_
T.. +000_ +00_ B-
T.. +001_ +00_ B-
T.. +002_ +00_ B_
TN. +001_ +00_ B- L
T.. +000_ +00_ B-
T.. -001_ +00_ B_
T.. -002_ +00_ B_
T.. -001_ +00_ B_
T.. +000_ +00_ B-
T.. +000_ +00_ B_

[Sample2]
TN. -D02_ +03_ F_
T.E +001^ +00_ E_
T.E +000_ +00_ D_
T.E +000_ +00_ C_
T.. +000_ +00_ B- L
T.. +001_ +00_ B-
T.. +002_ +00_ B_
TN. +001_ +00_ B_
T.. +000_ +00_ B_
T.. -001_ +00_ B_
T.. -002_ +00_ B_
T.. -001_ +00_ B_
T.. +000_ +00_ B-
T.. +000_ +00_ B_

[Sample3]
T.. +000_ +00_ D_
T.E +000_ +00_ D_
T.E +000_ +00_ C_
T.E +000_ +00_ C_
T.. +000_ +00_ B- L
T.. +001_ +00_ B-
T.. +002_ +00_ B_
T.. +001_ +00_ B_
T.. +000_ +00_ B_
T.. -001_ +00_ B_
T.. -002_ +00_ B_
T.. -001_ +00_ B_
T.. +000_ +00_ B-
T.. +000_ +00_ B_

[Sample4]
TN. -9DE_ +07_ F_
T.. -786_ +00_ F_
T.. -592_ +00_ E_
T.. -1AA_ +00_ E_
T.E +000_ +00_ E- L

[Sample5]
... +000_ +00_ 0_ L

[Sample6]
TNE +000_ +00_ 0_
T.E +000_ +00_ 0_
T.E +000_ +00_ 0_
T.E +000_ +00_ 0_
T.. +000_ +00_ 6_ L
T.. +000_ +00_ 6_
T.. +000_ +00_ 6_
T.. +000_ +00_ 7_
T.. +000_ +00_ 7_
T.. +000_ +00_ 7_
T.. +000_ +00_ 7_
T.. +000_ +00_ 6_
T.. +000_ +00_ 6_
T.. +000_ +00_ 6_
T.. +000_ +00_ 7_
T.. +000_ +00_ 7_
T.. +000_ +00_ 7_
T.. +000_ +00_ 7-

[Sample7]
TN. +001^ +00_ 7_
T.. +000_ +00_ 7_
T.. +000_ +00_ 6_
T.. +000_ +00_ 6_
T.. +000_ +00_ 6_ L
T.. +000_ +00_ 6_
T.. +000_ +00_ 6_
T.. +000_ +00_ 7_
T.. +000_ +00_ 7_
T.. +000_ +00_ 7_
T.. +000_ +00_ 7_
T.. +000_ +00_ 6_
T.. +000_ +00_ 6_
T.. +000_ +00_ 6_
T.. +000_ +00_ 7_
T.. +000_ +00_ 7_
T.. +000_ +00_ 7_
T.. +000_ +00_ 7-

[Sample8]
TN. -B3C_ +03_ F_
TN. -B0A_ -10_ E_
TN. -AD8_ -10_ D_
TN. +000_ -10_ C_ L
TN. +000_ -10_ A_
TN. +000_ -10_ B-
TN. +000_ -10_ 9-

[Sample9]
... +000_ +00_ 0_ L

[Sample10]
... +000_ +00_ 0_ L

[Sample11]
TN. +032^ +03_ F_
TN. +032^ -10_ F- L
TN. +032^ -10_ F-

[Sample12]
TN. +032_ +03_ F_
T.. +064_ +00_ E_
T.. +096_ +00_ E_
T.. +0C8_ +00_ D_
T.. +0FA^ +00_ D_
T.. +064^ +00_ A- L
T.. +064^ +00_ A_

[Sample13]
... +000_ +00_ 0_ L

[Sample14]
... +000_ +00_ 0_ L

[Sample15]
TN. -95E_ +07_ F_
T.. -706_ +00_ F_
T.. -512_ +00_ E_
T.. -12A_ +00_ E_
T.. +001_ +00_ D- L
T.. +002_ +00_ D-
T.. +003_ +00_ D_
TN. +002_ +00_ D_
T.. +001_ +00_ D_
T.. +000_ +00_ D_
T.. -001_ +00_ D_
T.. +000_ +00_ D_

[Sample16]
... +000_ +00_ 0_ L

[Sample17]
... +000_ +00_ 0_ L

[Sample18]
... +000_ +00_ 0_ L

[Sample19]
... +000_ +00_ 0_ L

[Sample20]
... +000_ +00_ 0_ L

[Sample21]
... +000_ +00_ 0_ L

[Sample22]
... +000_ +00_ 0_ L

[Sample23]
... +000_ +00_ 0_ L

[Sample24]
... +000_ +00_ 0_ L

[Sample25]
... +000_ +00_ 0_ L

[Sample26]
... +000_ +00_ 0_ L

[Sample27]
TN. +001^ +00_ F_
T.. +000_ +00_ E_
T.. +000_ +00_ D_
T.. +000_ +00_ C_
T.. +000_ +00_ B- L
T.. +001_ +00_ B-
T.. +002_ +00_ B_
T.. +001_ +00_ B_
T.. +000_ +00_ B_
T.. -001_ +00_ B_
T.. -002_ +00_ B_
T.. -001_ +00_ B_
T.. +000_ +00_ B-
T.. +000_ +00_ B_

[Sample28]
... +000_ +00_ 0_ L

[Sample29]
... +000_ +00_ 0_ L

[Sample30]
... +000_ +00_ 0_ L

[Sample31]
... +000_ +00_ 0_ L

[Pattern0]
....|..|--- .... ....|C#4 3F.F ....|--- .... B..4
....|..|--- .... ....|--- .... ....|--- .... B..3
....|..|--- .... ....|--- ...E ....|--- .... B..4
....|..|--- .... ....|--- .... ....|--- .... B..3
....|..|--- .... ....|F-4 ...F ....|--- .... B..4
....|..|--- .... ....|--- .... ....|--- .... B..3
....|..|--- .... ....|--- ...E ....|--- .... B..4
....|..|--- .... ....|--- .... ....|--- .... B..3
....|..|--- .... ....|G-4 ...F ....|--- .... B..4
....|..|--- .... ....|--- .... ....|--- .... B..3
....|..|--- .... ....|--- ...E ....|--- .... B..4
....|..|--- .... ....|--- .... ....|--- .... B..3
....|.3|--- .... ....|G#4 1... ....|--- .... B..4
....|..|--- .... ....|--- .... ....|--- .... B..3
....|..|--- .... ....|--- .... ....|--- .... B..4
....|..|--- .... ....|--- .... ....|--- .... B..3
....|..|--- .... ....|G-4 3..F ....|--- .... B..4
....|..|--- .... ....|--- .... ....|--- .... B..3
....|..|--- .... ....|--- ...E ....|--- .... B..4
....|..|--- .... ....|--- .... ....|--- .... B..3
....|.1|--- .... ....|F-4 1... ....|--- .... B..4
....|..|--- .... ....|--- .... ....|--- .... B..3
....|..|--- .... ....|--- .... ....|--- .... B..4
....|..|--- .... ....|--- .... ....|--- .... B..3
....|..|--- .... ....|C-4 3..F ....|--- .... B..4
....|..|--- .... ....|--- .... ....|--- .... B..3
....|..|--- .... ....|--- ...D ....|--- .... B..4
....|..|--- .... ....|--- .... ....|--- .... B..3
....|..|--- .... ....|D#4 ...F ....|--- .... B..4
....|..|--- .... ....|--- .... ....|--- .... B..3
....|..|--- .... ....|--- ...D ....|--- .... B..4
....|..|--- .... ....|--- .... ....|--- .... B..3
....|..|--- .... ....|F-4 ...F ....|--- .... B..4
....|..|--- .... ....|--- .... ....|--- .... B..3
....|..|--- .... ....|--- ...D ....|--- .... B..4
....|..|--- .... ....|--- .... ....|--- .... B..3
....|.3|--- .... ....|G-4 1..E ....|--- .... B..4
....|..|--- .... ....|--- .... ....|--- .... B..3
....|..|--- .... ....|--- ...D ....|--- .... B..4
....|..|--- .... ....|--- .... ....|--- .... B..3
....|..|--- .... ....|F-4 3..F ....|--- .... B..4
....|..|--- .... ....|--- .... ....|--- .... B..3
....|..|--- .... ....|--- ...D ....|--- .... B..4
....|..|--- .... ....|--- .... ....|--- .... B..3
....|.1|--- .... ....|D#4 1..E ....|--- .... B..4
....|..|--- .... ....|--- .... ....|--- .... B..3
....|..|--- .... ....|--- ...D ....|--- .... B..4
....|..|--- .... ....|--- .... ....|--- .... B..3
....|..|--- .... ....|B-3 3..F ....|--- .... B..4
....|..|--- .... ....|--- .... ....|--- .... B..3
....|..|--- .... ....|--- ...C ....|--- .... B..4
....|..|--- .... ....|--- .... ....|--- .... B..3
....|..|--- .... ....|D#4 ...F ....|--- .... B..4
....|..|--- .... ....|--- .... ....|--- .... B..3
....|..|--- .... ....|--- ...C ....|--- .... B..4
....|..|--- .... ....|--- .... ....|--- .... B..3
....|..|--- .... ....|F-4 ...F ....|--- .... B..4
....|..|--- .... ....|--- .... ....|--- .... B..3
....|..|--- .... ....|--- ...C ....|--- .... B..4
....|..|--- .... ....|--- .... ....|--- .... B..3
....|.3|--- .... ....|F#4 1..E ....|--- .... B..4
....|..|--- .... ....|--- .... ....|--- .... B..3
....|..|--- .... ....|--- ...C ....|--- .... B..4
....|..|--- .... ....|--- .... ....|--- .... B..3
....|..|--- .... ....|F-4 3..F ....|--- .... B..4
....|..|--- .... ....|--- .... ....|--- .... B..3
....|..|--- .... ....|F#4 1..9 ....|--- .... B..4
....|..|--- .... ....|--- .... ....|--- .... B..3
....|.1|--- .... ....|D#4 ...E ....|--- .... B..4
....|..|--- .... ....|--- .... ....|--- .... B..3
....|..|--- .... ....|--- ...B ....|--- .... B..4
....|..|--- .... ....|--- .... ....|--- .... B..3
....|..|--- .... ....|A#3 3..F ....|--- .... B..4
....|..|--- .... ....|--- .... ....|--- .... B..3
....|..|--- .... ....|--- ...B ....|--- .... B..4
....|..|--- .... ....|--- .... ....|--- .... B..3
....|..|--- .... ....|C#4 ...F ....|--- .... B..4
....|..|--- .... ....|--- .... ....|--- .... B..3
....|..|--- .... ....|--- ...B ....|--- .... B..4
....|..|--- .... ....|--- .... ....|--- .... B..3
....|..|--- .... ....|D#4 ...F ....|--- .... B..4
....|..|--- .... ....|--- .... ....|--- .... B..3
....|..|--- .... ....|--- ...B ....|--- .... B..4
....|..|--- .... ....|--- .... ....|--- .... B..3
....|.3|--- .... ....|F-4 1..E ....|--- .... B..4
....|..|--- .... ....|--- .... ....|--- .... B..3
....|..|--- .... ....|--- ...B ....|--- .... B..4
....|..|--- .... ....|--- .... ....|--- .... B..3
....|..|--- .... ....|D#4 3..F ....|--- .... B..4
....|..|--- .... ....|--- .... ....|--- .... B..3
....|..|--- .... ....|--- ...B ....|--- .... B..4
....|..|--- .... ....|--- .... ....|--- .... B..3
....|.1|--- .... ....|C#4 1..E ....|--- .... B..4
....|..|--- .... ....|--- .... ....|--- .... B..3
....|..|--- .... ....|--- ...B ....|--- .... B..4
....|..|--- .... ....|--- .... ....|--- .... B..3

[Pattern1]
....|.3|--- .... ....|A-3 1..E ....|--- .... B..4
....|..|--- .... ....|--- .... ....|--- .... B..3
....|..|--- .... ....|--- ...A ....|--- .... B..4
....|..|--- .... ....|--- .... ....|--- .... B..3
....|..|--- .... ....|C#4 3..F ....|--- .... B..4
....|..|--- .... ....|--- .... ....|--- .... B..3
....|..|--- .... ....|--- ...A ....|--- .... B..4
....|..|--- .... ....|--- .... ....|--- .... B..3
....|..|--- .... ....|D#4 ...F ....|--- .... B..4
....|..|--- .... ....|--- .... ....|--- .... B..3
....|..|--- .... ....|--- ...A ....|--- .... B..4
....|..|--- .... ....|--- .... ....|--- .... B..3
....|.3|--- .... ....|E-4 1..E ....|--- .... B..4
....|..|--- .... ....|--- .... ....|--- .... B..3
....|..|--- .... ....|--- ...A ....|--- .... B..4
....|..|--- .... ....|--- .... ....|--- .... B..3
....|..|--- .... ....|D#4 3..F ....|--- .... B..4
....|..|--- .... ....|--- .... ....|--- .... B..3
....|..|--- .... ....|E-4 1..9 ....|--- .... B..4
....|..|--- .... ....|--- .... ....|--- .... B..3
....|.1|--- .... ....|C#4 ...E ....|--- .... B..4
....|..|--- .... ....|--- .... ....|--- .... B..3
....|..|--- .... ....|--- ...A ....|--- .... B..4
....|..|--- .... ....|--- .... ....|--- .... B..3
....|.3|--- .... ....|G#3 ...E ....|--- .... B..4
....|..|--- .... ....|--- .... ....|--- .... B..3
....|..|--- .... ....|--- ...A ....|--- .... B..4
....|..|--- .... ....|--- .... ....|--- .... B..3
....|..|--- .... ....|B-3 3..F ....|--- .... B..4
....|..|--- .... ....|--- .... ....|--- .... B..3
....|..|--- .... ....|--- ...A ....|--- .... B..4
....|..|--- .... ....|--- .... ....|--- .... B..3
....|..|--- .... ....|C#4 ...F ....|--- .... B..4
....|..|--- .... ....|--- .... ....|--- .... B..3
....|..|--- .... ....|--- ...A ....|--- .... B..4
....|..|--- .... ....|--- .... ....|--- .... B..3
....|.3|--- .... ....|D#4 1..E ....|--- .... B..4
....|..|--- .... ....|--- .... ....|--- .... B..3
....|..|--- .... ....|--- ...A ....|--- .... B..4
....|..|--- .... ....|--- .... ....|--- .... B..3
....|..|--- .... ....|C#4 3..F ....|--- .... B..4
....|..|--- .... ....|--- .... ....|--- .... B..3
....|..|--- .... ....|D#4 1..9 ....|--- .... B..4
....|..|--- .... ....|--- .... ....|--- .... B..3
....|.1|--- .... ....|B-3 ...E ....|--- .... B..4
....|..|--- .... ....|--- .... ....|--- .... B..3
....|..|--- .... ....|--- ...A ....|--- .... B..4
....|..|--- .... ....|--- .... ....|--- .... B..3
..17|.3|D-2 RF3D ....|G-3 ...E ....|D-2 1E1D B..4
....|..|--- .... ....|--- .... ....|--- .... B..3
....|..|--- .... ....|--- ...9 ....|--- .... B..4
....|..|--- .... ....|--- .... ....|--- .... B..3
....|..|--- .... ....|B-3 3..F ....|--- .... B..4
....|..|--- .... ....|--- .... ....|--- .... B..3
....|..|--- .... ....|--- ...9 ....|--- .... B..4
....|..|--- .... ....|--- .... ....|--- .... B..3
....|.3|D-2 .... ....|C#4 1..E ....|D-2 .... B..4
....|..|--- .... ....|--- .... ....|--- .... B..3
....|..|--- .... ....|--- ...9 ....|--- .... B..4
....|..|--- .... ....|--- .... ....|--- .... B..3
....|..|--- .... ....|D-4 3..F ....|--- .... B..4
....|..|--- .... ....|--- .... ....|--- .... B..3
....|..|--- .... ....|--- ...9 ....|--- .... B..4
....|..|--- .... ....|--- .... ....|--- .... B..3
....|.2|D-2 ...E ....|C#4 1..E ....|D-2 ...E B..4
....|..|--- .... ....|--- .... ....|--- .... B..3
....|..|--- .... ....|--- ...9 ....|--- .... B..4
....|..|--- .... ....|--- .... ....|--- .... B..3
....|..|--- .... ....|B-3 3..F ....|--- .... B..4
....|..|--- .... ....|--- .... ....|--- .... B..3
....|..|--- .... ....|--- ...9 ....|--- .... B..4
....|..|--- .... ....|--- .... ....|--- .... B..3
....|.1|D-2 ...D ....|E-4 1..F ....|D-2 ...D B..4
....|..|--- .... ....|--- .... ....|--- .... B..3
....|..|--- .... ....|--- ...9 ....|--- .... B..4
....|..|--- .... ....|--- .... ....|--- .... B..3
....|..|--- .... ....|D-4 ...E ....|--- .... B..4
....|..|--- .... ....|--- .... ....|--- .... B..3
....|..|--- .... ....|--- ...9 ....|--- .... B..4
....|..|--- .... ....|--- .... ....|--- .... B..3
....|..|--- .... ....|C#4 ...E ....|--- .... B..4
....|..|--- .... ....|--- .... ....|--- .... B..3
....|..|--- .... ....|--- ...9 ....|--- .... B..4
....|..|--- .... ....|--- .... ....|--- .... B..3
..11|..|G-2 ...E ....|D-4 ...F ....|G-2 .E1E B..4
....|..|--- .... ....|--- .... ....|--- .... B..3
....|..|G-2 ...D ....|--- ...9 ....|G-2 ...D B..4
....|..|--- .... ....|--- .... ....|--- .... B..3
....|..|--- .... ....|C#4 ...E ....|--- .... B..4
....|..|--- .... ....|--- .... ....|--- .... B..3
....|..|--- .... ....|--- ...9 ....|--- .... B..4
....|..|--- .... ....|--- .... ....|--- .... B..3
....|..|G-2 ...E ....|B-3 ...E ....|G-2 ...E B..4
....|..|--- .... ....|--- .... ....|--- .... B..3
....|..|--- .... ....|--- ...9 ....|--- .... B..4
....|..|--- .... ....|--- .... ....|--- .... B..3

[Pattern2]
..27|..|F-1 R.5F ....|C#4 1F.F ....|F-1 1E1F B..4
....|..|--- .... ....|--- .... ....|--- .... B..3
....|..|--- .... ....|--- ...9 ....|--- .... B..4
....|..|--- .... ....|--- .... ....|--- .... B..3
....|..|--- .... ....|F-4 ...F ....|--- .... B..4
....|..|--- .... ....|--- .... ....|--- .... B..3
....|..|--- .... ....|C#4 ...9 ....|--- .... B..4
....|..|--- .... ....|--- .... ....|--- .... B..3
....|..|--- .... ....|G-4 ...F ....|--- .... B..4
....|..|--- .... ....|--- .... ....|--- .... B..3
....|..|--- .... ....|F-4 ...9 ....|--- .... B..4
....|..|--- .... ....|--- .... ....|--- .... B..3
..10|..|G#2 ..3. ....|G#4 ...F ....|G#2 .E1. B..4
....|..|--- .... ....|--- .... ....|--- .... B..3
....|..|--- .... ....|G-4 ...9 ....|--- .... B..4
....|..|--- .... ....|--- .... ....|--- .... B..3
....|..|--- .... ....|G-4 ...F ....|--- .... B..4
....|..|--- .... ....|--- .... ....|--- .... B..3
....|..|--- .... ....|G#4 ...9 ....|--- .... B..4
....|..|--- .... ....|--- .... ....|--- .... B..3
..10|..|G#2 ...E ....|F-4 ...F ....|G#2 .E1E B..4
....|..|--- .... ....|--- .... ....|--- .... B..3
....|..|--- .... ....|G-4 ...9 ....|--- .... B..4
....|..|--- .... ....|--- .... ....|--- .... B..3
..16|..|D#2 ...F ....|C-4 ...F ....|D#2 .E1F B..4
....|..|--- .... ....|--- .... ....|--- .... B..3
....|..|--- .... ....|F-4 ...9 ....|--- .... B..4
....|..|--- .... ....|--- .... ....|--- .... B..3
....|..|--- .... ....|D#4 ...F ....|--- .... B..4
....|..|--- .... ....|--- .... ....|--- .... B..3
....|..|--- .... ....|C-4 ...9 ....|--- .... B..4
....|..|--- .... ....|--- .... ....|--- .... B..3
....|..|D#2 ...E ....|F-4 ...F ....|D#2 ...E B..4
....|..|--- .... ....|--- .... ....|--- .... B..3
....|..|--- .... ....|D#4 ...9 ....|--- .... B..4
....|..|--- .... ....|--- .... ....|--- .... B..3
...F|..|A#2 ...F ....|G-4 ...F ....|A#2 .E1F B..4
....|..|--- .... ....|--- .... ....|--- .... B..3
....|..|--- .... ....|F-4 ...9 ....|--- .... B..4
....|..|--- .... ....|--- .... ....|--- .... B..3
....|..|--- .... ....|F-4 ...F ....|--- .... B..4
....|..|--- .... ....|--- .... ....|--- .... B..3
....|..|--- .... ....|G-4 ...9 ....|--- .... B..4
....|..|--- .... ....|--- .... ....|--- .... B..3
....|..|A#2 ...E ....|D#4 ...F ....|A#2 ...E B..4
....|..|--- .... ....|--- .... ....|--- .... B..3
....|..|--- .... ....|F-4 ...9 ....|--- .... B..4
....|..|--- .... ....|--- .... ....|--- .... B..3
..1C|..|B-1 ..5F ....|B-3 ...F ....|B-1 .E1F B..4
....|..|--- .... ....|--- .... ....|--- .... B..3
....|..|--- .... ....|D#4 ...9 ....|--- .... B..4
....|..|--- .... ....|--- .... ....|--- .... B..3
....|..|--- .... ....|D#4 ...F ....|--- .... B..4
....|..|--- .... ....|--- .... ....|--- .... B..3
....|..|--- .... ....|B-3 ...9 ....|--- .... B..4
....|..|--- .... ....|--- .... ....|--- .... B..3
....|..|--- .... ....|F-4 ...F ....|--- .... B..4
....|..|--- .... ....|--- .... ....|--- .... B..3
....|..|--- .... ....|D#4 ...9 ....|--- .... B..4
....|..|--- .... ....|--- .... ....|--- .... B..3
...B|..|D#3 ..3. ....|F#4 ...F ....|D#3 .E1. B..4
....|..|--- .... ....|--- .... ....|--- .... B..3
....|..|--- .... ....|F-4 ...9 ....|--- .... B..4
....|..|--- .... ....|--- .... ....|--- .... B..3
....|..|--- .... ....|F-4 ...F ....|--- .... B..4
....|..|--- .... ....|--- .... ....|--- .... B..3
....|..|--- .... ....|F#4 ...9 ....|--- .... B..4
....|..|--- .... ....|--- .... ....|--- .... B..3
...E|..|B-2 ...E ....|D#4 ...F ....|B-2 .E1E B..4
....|..|--- .... ....|--- .... ....|--- .... B..3
....|..|--- .... ....|F-4 ...9 ....|--- .... B..4
....|..|--- .... ....|--- .... ....|--- .... B..3
..1D|..|A#1 ..5F ....|A#3 ...F ....|A#1 .E1F B..4
....|..|--- .... ....|--- .... ....|--- .... B..3
....|..|--- .... ....|D#4 ...9 ....|--- .... B..4
....|..|--- .... ....|--- .... ....|--- .... B..3
....|..|--- .... ....|C#4 ...F ....|--- .... B..4
....|..|--- .... ....|--- .... ....|--- .... B..3
....|..|--- .... ....|A#3 ...9 ....|--- .... B..4
....|..|--- .... ....|--- .... ....|--- .... B..3
..14|..|F-2 ..3E ....|D#4 ...F ....|F-2 .E1E B..4
....|..|--- .... ....|--- .... ....|--- .... B..3
....|..|--- .... ....|C#4 ...9 ....|--- .... B..4
....|..|--- .... ....|--- .... ....|--- .... B..3
...F|..|A#2 ...F ....|F-4 ...F ....|A#2 .E1F B..4
....|..|--- .... ....|--- .... ....|--- .... B..3
....|..|--- .... ....|D#4 ...9 ....|--- .... B..4
....|..|--- .... ....|--- .... ....|--- .... B..3
....|..|--- .... ....|D#4 ...F ....|--- .... B..4
....|..|--- .... ....|--- .... ....|--- .... B..3
....|..|--- .... ....|F-4 ...9 ....|--- .... B..4
....|..|--- .... ....|--- .... ....|--- .... B..3
...F|..|A#2 ...E ....|C#4 ...F ....|A#2 .E1E B..4
....|..|--- .... ....|--- .... ....|--- .... B..3
....|..|--- .... ....|D#4 ...9 ....|--- .... B..4
....|..|--- .... ....|--- .... ....|--- .... B..3

[Pattern3]
..1F|..|A-1 ..5F ....|A-3 ...F ....|A-1 .E1F B..4
....|..|--- .... ....|--- .... ....|--- .... B..3
....|..|--- .... ....|C#4 ...9 ....|--- .... B..4
....|..|--- .... ....|--- .... ....|--- .... B..3
....|..|A-1 ...E ....|C#4 ...F ....|A-1 ...E B..4
....|..|--- .... ....|--- .... ....|--- .... B..3
....|..|--- .... ....|A-3 ...9 ....|--- .... B..4
....|..|--- .... ....|--- .... ....|--- .... B..3
....|..|--- .... ....|D#4 ...F ....|--- .... B..4
....|..|--- .... ....|--- .... ....|--- .... B..3
....|..|--- .... ....|C#4 ...9 ....|--- .... B..4
....|..|--- .... ....|--- .... ....|--- .... B..3
...C|..|C#3 ..3F ....|E-4 ...F ....|C#3 .E1F B..4
....|..|--- .... ....|--- .... ....|--- .... B..3
....|..|--- .... ....|D#4 ...9 ....|--- .... B..4
....|..|--- .... ....|--- .... ....|--- .... B..3
..15|..|E-2 ...E ....|D#4 ...F ....|E-2 .E1E B..4
....|..|--- .... ....|--- .... ....|--- .... B..3
....|..|--- .... ....|E-4 ...9 ....|--- .... B..4
....|..|--- .... ....|--- .... ....|--- .... B..3
..10|..|A-2 .... ....|C#4 ...F ....|A-2 .E1. B..4
....|..|--- .... ....|--- .... ....|--- .... B..3
....|..|--- .... ....|D#4 ...9 ....|--- .... B..4
....|..|--- .... ....|--- .... ....|--- .... B..3
..21|..|G#1 ..5. ....|G#3 ...F ....|G#1 .E1. B..4
....|..|--- .... ....|--- .... ....|--- .... B..3
....|..|--- .... ....|C#4 ...9 ....|--- .... B..4
....|..|--- .... ....|--- .... ....|--- .... B..3
....|..|G#1 .... ....|B-3 ...F ....|G#1 .... B..4
....|..|--- .... ....|--- .... ....|--- .... B..3
....|..|--- .... ....|G#3 ...9 ....|--- .... B..4
....|..|--- .... ....|--- .... ....|--- .... B..3
..10|..|G#2 ..3. ....|C#4 ...F ....|G#2 .E1. B..4
....|..|--- .... ....|--- .... ....|--- .... B..3
....|..|--- .... ....|B-3 ...9 ....|--- .... B..4
....|..|--- .... ....|--- .... ....|--- .... B..3
..21|..|G#1 ..5F ....|D#4 ...F ....|G#1 .E1F B..4
....|..|--- .... ....|--- .... ....|--- .... B..3
....|..|--- .... ....|C#4 ...9 ....|--- .... B..4
....|..|--- .... ....|--- .... ....|--- .... B..3
....|..|G#1 ...E ....|C#4 ...F ....|G#1 ...E B..4
....|..|--- .... ....|--- .... ....|--- .... B..3
....|..|--- .... ....|D#4 ...9 ....|--- .... B..4
....|..|--- .... ....|--- .... ....|--- .... B..3
....|..|G#2 ..3. ....|B-3 ...F ....|G#2 .... B..4
....|..|--- .... ....|--- .... ....|--- .... B..3
....|..|--- .... ....|C#4 ...9 ....|--- .... B..4
....|..|--- .... ....|--- .... ....|--- .... B..3
..23|..|G-1 ..5F ....|G-3 ...F ....|G-1 .E1F B..4
....|..|--- .... ....|--- .... ....|--- .... B..3
....|..|--- .... ....|B-3 ...9 ....|--- .... B..4
....|..|--- .... ....|--- .... ....|--- .... B..3
....|..|G-1 ...E ....|B-3 ...F ....|G-1 ...E B..4
....|..|--- .... ....|--- .... ....|--- .... B..3
....|..|--- .... ....|G-3 ...9 ....|--- .... B..4
....|..|--- .... ....|--- .... ....|--- .... B..3
....|..|--- .... ....|C#4 ...F ....|--- .... B..4
....|..|--- .... ....|--- .... ....|--- .... B..3
....|..|--- .... ....|B-3 ...9 ....|--- .... B..4
....|..|--- .... ....|--- .... ....|--- .... B..3
...E|..|B-2 ..3F ....|D-4 ...F ....|B-2 .E1F B..4
....|..|--- .... ....|--- .... ....|--- .... B..3
....|..|--- .... ....|C#4 ...9 ....|--- .... B..4
....|..|--- .... ....|--- .... ....|--- .... B..3
..23|..|G-1 ..5E ....|C#4 ...F ....|G-1 .E1E B..4
....|..|--- .... ....|--- .... ....|--- .... B..3
....|..|--- .... ....|D-4 ...9 ....|--- .... B..4
....|..|--- .... ....|--- .... ....|--- .... B..3
....|..|G-1 .... ....|B-3 ...F ....|G-1 .... B..4
....|..|--- .... ....|--- .... ....|--- .... B..3
....|..|--- .... ....|C#4 ...9 ....|--- .... B..4
....|..|--- .... ....|--- .... ....|--- .... B..3
..11|..|G-2 ..3F ....|E-4 ...F ....|G-2 .E1F B..4
....|..|--- .... ....|--- .... ....|--- .... B..3
....|..|--- .... ....|B-3 ...9 ....|--- .... B..4
....|..|--- .... ....|--- .... ....|--- .... B..3
..23|..|G-1 ..5E ....|D-4 ...F ....|G-1 .E1E B..4
....|..|--- .... ....|--- .... ....|--- .... B..3
....|..|--- .... ....|E-4 ...9 ....|--- .... B..4
....|..|--- .... ....|--- .... ....|--- .... B..3
....|..|G-1 .... ....|C#4 ...F ....|G-1 .... B..4
....|..|--- .... ....|--- .... ....|--- .... B..3
....|..|--- .... ....|D-4 ...9 ....|--- .... B..4
....|..|--- .... ....|--- .... ....|--- .... B..3
..17|..|D-2 ..3F ....|D-4 ...F ....|D-2 .E1F B..4
....|..|--- .... ....|--- .... ....|--- .... B..3
....|..|--- .... ....|C#4 ...9 ....|--- .... B..4
....|..|--- .... ....|--- .... ....|--- .... B..3
..23|..|G-1 ..5E ....|C#4 ...F ....|G-1 .E1E B..4
....|..|--- .... ....|--- .... ....|--- .... B..3
....|..|--- .... ....|D-4 ...9 ....|--- .... B..4
....|..|--- .... ....|--- .... ....|--- .... B..3
....|..|G-1 .... ....|B-3 ...F ....|G-1 .... B..4
....|..|--- .... ....|--- .... ....|--- .... B..3
....|..|--- .... ....|C#4 ...9 ....|--- .... B..4
....|..|--- .... ....|--- .... ....|--- .... B..3

[Pattern4]
..1C|..|B-1 ..5F ....|F#3 ...F ....|B-1 .E1F B..4
....|..|--- .... ....|--- .... ....|--- .... B..3
....|..|--- .... ....|B-3 ...9 ....|--- .... B..4
....|..|--- .... ....|--- .... ....|--- .... B..3
....|..|--- .... ....|B-3 ...F ....|--- .... B..4
....|..|--- .... ....|--- .... ....|--- .... B..3
....|..|--- .... ....|F#3 ...9 ....|--- .... B..4
....|..|--- .... ....|--- .... ....|--- .... B..3
....|..|B-1 ...E ....|C#4 ...F ....|B-1 ...E B..4
....|..|--- .... ....|--- .... ....|--- .... B..3
....|..|--- .... ....|B-3 ...9 ....|--- .... B..4
....|..|--- .... ....|--- .... ....|--- .... B..3
....|..|--- .... ....|D#4 ...F ....|--- .... B..4
....|..|--- .... ....|--- .... ....|--- .... B..3
....|..|--- .... ....|C#4 ...9 ....|--- .... B..4
....|..|--- .... ....|--- .... ....|--- .... B..3
....|..|--- .... ....|C#4 ...F ....|--- .... B..4
....|..|--- .... ....|--- .... ....|--- .... B..3
....|..|--- .... ....|D#4 ...9 ....|--- .... B..4
....|..|--- .... ....|--- .... ....|--- .... B..3
....|..|--- .... ....|B-3 ...F ....|--- .... B..4
....|..|--- .... ....|--- .... ....|--- .... B..3
....|..|--- .... ....|C#4 ...9 ....|--- .... B..4
....|..|--- .... ....|--- .... ....|--- .... B..3
....|..|B-1 .... ....|G#3 ...F ....|B-1 .... B..4
....|..|--- .... ....|--- .... ....|--- .... B..3
....|..|--- .... ....|B-3 ...9 ....|--- .... B..4
....|..|--- .... ....|--- .... ....|--- .... B..3
....|..|--- .... ....|B-3 ...F ....|--- .... B..4
....|..|--- .... ....|--- .... ....|--- .... B..3
....|..|--- .... ....|G#3 ...9 ....|--- .... B..4
....|..|--- .... ....|--- .... ....|--- .... B..3
....|..|B-1 ...D ....|C#4 ...F ....|B-1 ...D B..4
....|..|--- .... ....|--- .... ....|--- .... B..3
....|..|--- .... ....|B-3 ...9 ....|--- .... B..4
....|..|--- .... ....|--- .... ....|--- .... B..3
....|..|--- .... ....|G-3 ...F ....|--- .... B..4
....|..|--- .... ....|--- .... ....|--- .... B..3
....|..|--- .... ....|C#4 ...9 ....|--- .... B..4
....|..|--- .... ....|--- .... ....|--- .... B..3
....|..|--- .... ....|B-3 ...F ....|--- .... B..4
....|..|--- .... ....|--- .... ....|--- .... B..3
....|..|--- .... ....|G-3 ...9 ....|--- .... B..4
....|..|--- .... ....|--- .... ....|--- .... B..3
....|..|--- .... ....|C#4 ...F ....|--- .... B..4
....|..|--- .... ....|--- .... ....|--- .... B..3
....|..|--- .... ....|B-3 ...9 ....|--- .... B..4
....|..|--- .... ....|--- .... ....|--- .... B..3
....|..|B-1 .... ....|F#3 ...F ....|B-1 .... B..4
....|..|--- .... ....|--- .... ....|--- .... B..3
....|..|--- .... ....|C#4 ...9 ....|--- .... B..4
....|..|--- .... ....|--- .... ....|--- .... B..3
....|..|--- .... ....|B-3 ...F ....|--- .... B..4
....|..|--- .... ....|--- .... ....|--- .... B..3
....|..|--- .... ....|F#3 ...9 ....|--- .... B..4
....|..|--- .... ....|--- .... ....|--- .... B..3
....|..|--- .... ....|C#4 ...F ....|--- .... B..4
....|..|--- .... ....|--- .... ....|--- .... B..3
....|..|--- .... ....|B-3 ...9 ....|--- .... B..4
....|..|--- .... ....|--- .... ....|--- .... B..3
....|..|B-1 ...C ....|C-4 ...F ....|B-1 ...C B..4
....|..|--- .... ....|--- .... ....|--- .... B..3
....|..|--- .... ....|C#4 ...9 ....|--- .... B..4
....|..|--- .... ....|--- .... ....|--- .... B..3
....|..|--- .... ....|F-4 ...E ....|--- .... B..4
....|..|--- .... ....|--- .... ....|--- .... B..3
....|..|--- .... ....|C-4 ...9 ....|--- .... B..4
....|..|--- .... ....|--- .... ....|--- .... B..3
....|..|--- .... ....|G-4 ...E ....|--- .... B..4
....|..|--- .... ....|--- .... ....|--- .... B..3
....|..|--- .... ....|F-4 ...9 ....|--- .... B..4
....|..|--- .... ....|--- .... ....|--- .... B..3
..1A|..|C-2 ..3. ....|F-4 ...F ....|C-2 .E1. B..4
....|..|--- .... ....|--- .... ....|--- .... B..3
....|..|--- .... ....|G-4 ...9 ....|--- .... B..4
....|..|--- .... ....|--- .... ....|--- .... B..3
....|..|--- .... ....|A#4 ...E ....|--- .... B..4
....|..|--- .... ....|--- .... ....|--- .... B..3
....|..|--- .... ....|F-4 ...9 ....|--- .... B..4
....|..|--- .... ....|--- .... ....|--- .... B..3
....|..|--- .... ....|C-5 ...E ....|--- .... B..4
....|..|--- .... ....|--- .... ....|--- .... B..3
....|..|--- .... ....|A#4 ...9 ....|--- .... B..4
....|..|--- .... ....|--- .... ....|--- .... B..3
..1A|..|C-2 ...B ....|A#4 ...E ....|C-2 .E1B B..4
....|..|--- .... ....|--- .... ....|--- .... B..3
....|..|--- .... ....|C-5 ...9 ....|--- .... B..4
....|..|--- .... ....|--- .... ....|--- .... B..3
..16|..|D#2 ...C ....|C-5 ...E ....|D#2 .E1C B..4
....|..|--- .... ....|--- .... ....|--- .... B..3
....|..|--- .... ....|A#4 ...9 ....|--- .... B..4
....|..|--- .... ....|--- .... ....|--- .... B..3
..10|..|G#2 ...D ....|F-5 ...E ....|G#2 .E1D B..4
....|..|--- .... ....|--- .... ....|--- .... B..3
....|..|--- .... ....|C-5 ...9 ....|--- .... B..4
....|..|--- .... ....|--- .... ....|--- .... B..3

[Pattern5]
..27|..|F-1 F.4F ....|C#4 1FEF ....|F-1 4E4F B..4
....|..|--- .... ....|--- .... ....|--- .... B..3
....|..|--- .... ....|F-5 ...9 ....|--- .... B..4
....|..|--- .... ....|--- .... ....|--- .... B..3
....|..|F-1 ...E ....|F-4 ...F ....|F-1 ...E B..4
....|..|--- .... ....|--- .... ....|--- .... B..3
....|..|--- .... ....|C#4 ...9 ....|--- .... B..4
....|..|--- .... ....|--- .... ....|--- .... B..3
..4E|..|F-1 7.F. ....|G-4 ...F ....|F-1 6E.. B..4
....|..|--- .... ....|--- .... ....|--- .... B..3
....|..|--- .... ....|F-4 ...9 ....|--- .... B..4
....|..|--- .... ....|--- .... ....|--- .... B..3
..10|..|G#2 R.3. ....|G#4 ...F ....|G#2 1E1. B..4
....|..|--- .... ....|--- .... ....|--- .... B..3
....|..|--- .... ....|G-4 ...9 ....|--- .... B..4
....|..|--- .... ....|--- .... ....|--- .... B..3
....|..|--- .... ....|G-4 ...F ....|--- .... B..4
....|..|--- .... ....|--- .... ....|--- .... B..3
....|..|--- .... ....|G#4 ...9 ....|--- .... B..4
....|..|--- .... ....|--- .... ....|--- .... B..3
..10|..|G#2 .... ....|F-4 ...F ....|G#2 .E1. B..4
....|..|--- .... ....|--- .... ....|--- .... B..3
....|..|--- .... ....|G-4 ...9 ....|--- .... B..4
....|..|--- .... ....|--- .... ....|--- .... B..3
..2C|..|D#1 F.4F ....|C-4 ...F ....|D#1 4E4F B..4
....|..|--- .... ....|--- .... ....|--- .... B..3
....|..|--- .... ....|F-4 ...9 ....|--- .... B..4
....|..|--- .... ....|--- .... ....|--- .... B..3
....|..|D#1 ...E ....|D#4 ...F ....|D#1 ...E B..4
....|..|--- .... ....|--- .... ....|--- .... B..3
....|..|--- .... ....|C-4 ...9 ....|--- .... B..4
....|..|--- .... ....|--- .... ....|--- .... B..3
..16|..|D#2 R.3. ....|F-4 ...F ....|D#2 1E1. B..4
....|..|--- .... ....|--- .... ....|--- .... B..3
....|..|--- .... ....|D#4 ...9 ....|--- .... B..4
....|..|--- .... ....|--- .... ....|--- .... B..3
...F|..|A#2 ...F ....|G-4 ...F ....|A#2 .E1F B..4
....|..|--- .... ....|--- .... ....|--- .... B..3
....|..|--- .... ....|F-4 ...9 ....|--- .... B..4
....|..|--- .... ....|--- .... ....|--- .... B..3
....|..|A#3 B.F. ....|F-4 ...F ....|G-5 8.8. B..4
....|..|--- .... ....|--- .... ....|--- .... B..3
....|..|--- .... ....|G-4 ...9 ....|--- .... B..4
....|..|--- .... ....|--- .... ....|--- .... B..3
...F|..|A#2 R.3. ....|D#4 ...F ....|A#2 1E1. B..4
....|..|--- .... ....|--- .... ....|--- .... B..3
....|..|--- .... ....|F-4 ...9 ....|--- .... B..4
....|..|--- .... ....|--- .... ....|--- .... B..3
..1C|..|B-1 F.4. ....|B-3 ...F ....|B-1 4E4. B..4
....|..|--- .... ....|--- .... ....|--- .... B..3
....|..|--- .... ....|D#4 ...9 ....|--- .... B..4
....|..|--- .... ....|--- .... ....|--- .... B..3
....|..|B-1 ...E ....|D#4 ...F ....|B-1 ...E B..4
....|..|--- .... ....|--- .... ....|--- .... B..3
....|..|--- .... ....|B-3 ...9 ....|--- .... B..4
....|..|--- .... ....|--- .... ....|--- .... B..3
..37|..|B-1 6.F. ....|F-4 ...F ....|B-1 6E.. B..4
....|..|--- .... ....|--- .... ....|--- .... B..3
....|..|--- .... ....|D#4 ...9 ....|--- .... B..4
....|..|--- .... ....|--- .... ....|--- .... B..3
...B|..|D#3 R.3. ....|F#4 ...F ....|D#3 1E1. B..4
....|..|--- .... ....|--- .... ....|--- .... B..3
....|..|--- .... ....|F-4 ...9 ....|--- .... B..4
....|..|--- .... ....|--- .... ....|--- .... B..3
....|..|--- .... ....|F-4 ...F ....|--- .... B..4
....|..|--- .... ....|--- .... ....|--- .... B..3
....|..|--- .... ....|F#4 ...9 ....|--- .... B..4
....|..|--- .... ....|--- .... ....|--- .... B..3
...E|..|B-2 .... ....|D#4 ...F ....|B-2 .E1. B..4
....|..|--- .... ....|--- .... ....|--- .... B..3
....|..|--- .... ....|F-4 ...9 ....|--- .... B..4
....|..|--- .... ....|--- .... ....|--- .... B..3
..1D|..|A#1 F.4F ....|A#3 ...F ....|A#1 4E4F B..4
....|..|--- .... ....|--- .... ....|--- .... B..3
....|..|--- .... ....|D#4 ...9 ....|--- .... B..4
....|..|--- .... ....|--- .... ....|--- .... B..3
....|..|A#1 ...E ....|C#4 ...F ....|A#1 ...E B..4
....|..|--- .... ....|--- .... ....|--- .... B..3
....|..|--- .... ....|A#3 ...9 ....|--- .... B..4
....|..|--- .... ....|--- .... ....|--- .... B..3
..14|..|F-2 R.3. ....|D#4 ...F ....|F-2 1E1. B..4
....|..|--- .... ....|--- .... ....|--- .... B..3
....|..|--- .... ....|C#4 ...9 ....|--- .... B..4
....|..|--- .... ....|--- .... ....|--- .... B..3
...F|..|A#2 ...F ....|F-4 ...F ....|A#2 .E1F B..4
....|..|--- .... ....|--- .... ....|--- .... B..3
....|..|--- .... ....|D#4 ...9 ....|--- .... B..4
....|..|--- .... ....|--- .... ....|--- .... B..3
....|..|A#3 B.F. ....|D#4 ...F ....|F-5 8.8. B..4
....|..|--- .... ....|--- .... ....|--- .... B..3
....|..|--- .... ....|F-4 ...9 ....|--- .... B..4
....|..|--- .... ....|--- .... ....|--- .... B..3
...F|..|A#2 R.3E ....|C#4 ...F ....|A#2 1E1E B..4
....|..|--- .... ....|--- .... ....|--- .... B..3
....|..|--- .... ....|D#4 ...9 ....|--- .... B..4
....|..|--- .... ....|--- .... ....|--- .... B..3

[Pattern6]
..1F|..|A-1 F.4F ....|A-3 ...F ....|A-1 4E4F B..4
....|..|--- .... ....|--- .... ....|--- .... B..3
....|..|--- .... ....|C#4 ...9 ....|--- .... B..4
....|..|--- .... ....|--- .... ....|--- .... B..3
....|..|A-1 ...E ....|C#4 ...F ....|A-1 ...E B..4
....|..|--- .... ....|--- .... ....|--- .... B..3
....|..|--- .... ....|A-3 ...9 ....|--- .... B..4
....|..|--- .... ....|--- .... ....|--- .... B..3
..3E|..|A-1 7.F. ....|D#4 ...F ....|A-1 6E.. B..4
....|..|--- .... ....|--- .... ....|--- .... B..3
....|..|--- .... ....|C#4 ...9 ....|--- .... B..4
....|..|--- .... ....|--- .... ....|--- .... B..3
...C|..|C#3 R.3F ....|E-4 ...F ....|C#3 1E1F B..4
....|..|--- .... ....|--- .... ....|--- .... B..3
....|..|--- .... ....|D#4 ...9 ....|--- .... B..4
....|..|--- .... ....|--- .... ....|--- .... B..3
..15|..|E-2 ...E ....|D#4 ...F ....|E-2 .E1E B..4
....|..|--- .... ....|--- .... ....|--- .... B..3
....|..|--- .... ....|E-4 ...9 ....|--- .... B..4
....|..|--- .... ....|--- .... ....|--- .... B..3
..10|..|A-2 .... ....|C#4 ...F ....|A-2 .E1. B..4
....|..|--- .... ....|--- .... ....|--- .... B..3
....|..|--- .... ....|D#4 ...9 ....|--- .... B..4
....|..|--- .... ....|--- .... ....|--- .... B..3
..21|..|G#1 F.4F ....|G#3 ...F ....|G#1 4E4F B..4
....|..|--- .... ....|--- .... ....|--- .... B..3
....|..|--- .... ....|C#4 ...9 ....|--- .... B..4
....|..|--- .... ....|--- .... ....|--- .... B..3
....|..|G#1 ...E ....|B-3 ...F ....|G#1 ...E B..4
....|..|--- .... ....|--- .... ....|--- .... B..3
....|..|--- .... ....|G#3 ...9 ....|--- .... B..4
....|..|--- .... ....|--- .... ....|--- .... B..3
..10|..|G#2 R.3. ....|C#4 ...F ....|G#2 1E1. B..4
....|..|--- .... ....|--- .... ....|--- .... B..3
....|..|--- .... ....|B-3 ...9 ....|--- .... B..4
....|..|--- .... ....|--- .... ....|--- .... B..3
..21|..|G#1 ..5. ....|D#4 ...F ....|G#1 .E1. B..4
....|..|--- .... ....|--- .... ....|--- .... B..3
....|..|--- .... ....|C#4 ...9 ....|--- .... B..4
....|..|--- .... ....|--- .... ....|--- .... B..3
....|..|A#3 B.F. ....|C#4 ...F ....|G#5 8.8. B..4
....|..|--- .... ....|--- .... ....|--- .... B..3
....|..|--- .... ....|D#4 ...9 ....|--- .... B..4
....|..|--- .... ....|--- .... ....|--- .... B..3
..10|..|G#2 R.3. ....|B-3 ...F ....|G#2 1E1. B..4
....|..|--- .... ....|--- .... ....|--- .... B..3
....|..|--- .... ....|C#4 ...9 ....|--- .... B..4
....|..|--- .... ....|--- .... ....|--- .... B..3
..23|..|G-1 F.4F ....|G-3 ...F ....|G-1 4E4F B..4
....|..|--- .... ....|--- .... ....|--- .... B..3
....|..|--- .... ....|B-3 ...9 ....|--- .... B..4
....|..|--- .... ....|--- .... ....|--- .... B..3
....|..|G-1 ...E ....|B-3 ...F ....|G-1 ...E B..4
....|..|--- .... ....|--- .... ....|--- .... B..3
....|..|--- .... ....|G-3 ...9 ....|--- .... B..4
....|..|--- .... ....|--- .... ....|--- .... B..3
..46|..|G-1 7.F. ....|C#4 ...F ....|G-1 6E.. B..4
....|..|--- .... ....|--- .... ....|--- .... B..3
....|..|--- .... ....|B-3 ...9 ....|--- .... B..4
....|..|--- .... ....|--- .... ....|--- .... B..3
...E|..|B-2 R.3. ....|D-4 ...F ....|B-2 1E1. B..4
....|..|--- .... ....|--- .... ....|--- .... B..3
....|..|--- .... ....|C#4 ...9 ....|--- .... B..4
....|..|--- .... ....|--- .... ....|--- .... B..3
..23|..|G-1 ..5. ....|C#4 ...F ....|G-1 .E1. B..4
....|..|--- .... ....|--- .... ....|--- .... B..3
....|..|--- .... ....|D-4 ...9 ....|--- .... B..4
....|..|--- .... ....|--- .... ....|--- .... B..3
....|..|G-1 .... ....|B-3 ...F ....|G-1 .... B..4
....|..|--- .... ....|--- .... ....|--- .... B..3
....|..|--- .... ....|C#4 ...9 ....|--- .... B..4
....|..|--- .... ....|--- .... ....|--- .... B..3
..1F|..|A-1 F.4. ....|E-4 ...F ....|A-1 4E4. B..4
....|..|--- .... ....|--- .... ....|--- .... B..3
....|..|--- .... ....|B-3 ...9 ....|--- .... B..4
....|..|--- .... ....|--- .... ....|--- .... B..3
....|..|A-1 .... ....|D-4 ...F ....|A-1 .... B..4
....|..|--- .... ....|--- .... ....|--- .... B..3
....|..|--- .... ....|E-4 ...9 ....|--- .... B..4
....|..|--- .... ....|--- .... ....|--- .... B..3
..3E|..|A-1 7.F. ....|C#4 ...F ....|A-1 6E.. B..4
....|..|--- .... ....|--- .... ....|--- .... B..3
....|..|--- .... ....|D-4 ...9 ....|--- .... B..4
....|..|--- .... ....|--- .... ....|--- .... B..3
....|..|A#3 B... ....|D-4 ...F ....|A-5 8.8. B..4
....|..|--- .... ....|--- .... ....|--- .... B..3
....|..|--- .... ....|C#4 ...9 ....|--- .... B..4
....|..|--- .... ....|--- .... ....|--- .... B..3
..1F|..|A-1 R.5. ....|C#4 ...F ....|A-1 1E1. B..4
....|..|--- .... ....|--- .... ....|--- .... B..3
....|..|--- .... ....|D-4 ...9 ....|--- .... B..4
....|..|--- .... ....|--- .... ....|--- .... B..3
..15|..|E-2 ..3. ....|B-3 ...F ....|E-2 .E1. B..4
....|..|--- .... ....|--- .... ....|--- .... B..3
....|..|--- .... ....|C#4 ...9 ....|--- .... B..4
....|..|--- .... ....|--- .... ....|--- .... B..3

[Pattern7]
..1C|..|B-1 FE4F ....|F#3 ...F ....|B-1 4E4F B..4
....|..|--- .... ....|--- .... ....|--- .... B..3
....|..|--- .... ....|B-3 ...9 ....|--- .... B..4
....|..|--- .... ....|--- .... ....|--- .... B..3
....|..|B-1 ...E ....|B-3 ...F ....|B-1 ...E B..4
....|..|--- .... ....|--- .... ....|--- .... B..3
....|..|--- .... ....|F#3 ...9 ....|--- .... B..4
....|..|--- .... ....|--- .... ....|--- .... B..3
..37|..|B-1 7.F. ....|C#4 ...F ....|B-1 6E.. B..4
....|..|--- .... ....|--- .... ....|--- .... B..3
....|..|--- .... ....|B-3 ...9 ....|--- .... B..4
....|..|--- .... ....|--- .... ....|--- .... B..3
....|..|--- .... ....|D#4 ...F ....|--- .... B..4
....|..|--- .... ....|--- .... ....|--- .... B..3
....|..|--- .... ....|C#4 ...9 ....|--- .... B..4
....|..|--- .... ....|--- .... ....|--- .... B..3
....|..|--- .... ....|C#4 ...F ....|--- .... B..4
....|..|--- .... ....|--- .... ....|--- .... B..3
....|..|--- .... ....|D#4 ...9 ....|--- .... B..4
....|..|--- .... ....|--- .... ....|--- .... B..3
....|..|--- .... ....|B-3 ...F ....|--- .... B..4
....|..|--- .... ....|--- .... ....|--- .... B..3
....|..|--- .... ....|C#4 ...9 ....|--- .... B..4
....|..|--- .... ....|--- .... ....|--- .... B..3
..1C|..|B-1 FE4F ....|G#3 ...F ....|B-1 4E4F B..4
....|..|--- .... ....|--- .... ....|--- .... B..3
....|..|--- .... ....|B-3 ...9 ....|--- .... B..4
....|..|--- .... ....|--- .... ....|--- .... B..3
..37|..|B-1 7.FE ....|B-3 ...F ....|B-1 6E.E B..4
....|..|--- .... ....|--- .... ....|--- .... B..3
....|..|--- .... ....|G#3 ...9 ....|--- .... B..4
....|..|--- .... ....|--- .... ....|--- .... B..3
..1C|..|B-1 FE4. ....|C#4 ...F ....|B-1 4E4. B..4
....|..|--- .... ....|--- .... ....|--- .... B..3
....|..|--- .... ....|B-3 ...9 ....|--- .... B..4
....|..|--- .... ....|--- .... ....|--- .... B..3
..37|..|B-1 7.F. ....|G-3 ...F ....|B-1 6E.. B..4
....|..|--- .... ....|--- .... ....|--- .... B..3
....|..|--- .... ....|C#4 ...9 ....|--- .... B..4
....|..|--- .... ....|--- .... ....|--- .... B..3
....|..|--- .... ....|B-3 ...F ....|--- .... B..4
....|..|--- .... ....|--- .... ....|--- .... B..3
....|..|--- .... ....|G-3 ...9 ....|--- .... B..4
....|..|--- .... ....|--- .... ....|--- .... B..3
....|..|--- .... ....|C#4 ...F ....|--- .... B..4
....|..|--- .... ....|--- .... ....|--- .... B..3
....|..|--- .... ....|B-3 ...9 ....|--- .... B..4
....|..|--- .... ....|--- .... ....|--- .... B..3
..1C|..|B-1 FE4F ....|F#3 ...F ....|B-1 4E4F B..4
....|..|--- .... ....|--- .... ....|--- .... B..3
....|..|--- .... ....|C#4 ...9 ....|--- .... B..4
....|..|--- .... ....|--- .... ....|--- .... B..3
....|..|--- .... ....|B-3 ...F ....|--- .... B..4
....|..|--- .... ....|--- .... ....|--- .... B..3
....|..|--- .... ....|F#3 ...9 ....|--- .... B..4
....|..|--- .... ....|--- .... ....|--- .... B..3
..37|..|B-1 7.F. ....|C#4 ...F ....|B-1 6E.. B..4
....|..|--- .... ....|--- .... ....|--- .... B..3
....|..|--- .... ....|B-3 ...9 ....|--- .... B..4
....|..|--- .... ....|--- .... ....|--- .... B..3
....|..|--- .... ....|C-4 ...F ....|--- .... B..4
....|..|--- .... ....|--- .... ....|--- .... B..3
....|..|--- .... ....|C#4 ...9 ....|--- .... B..4
....|..|--- .... ....|--- .... ....|--- .... B..3
....|..|--- .... ....|F-4 ...E ....|--- .... B..4
....|..|--- .... ....|--- .... ....|--- .... B..3
....|..|--- .... ....|C-4 ...9 ....|--- .... B..4
....|..|--- .... ....|--- .... ....|--- .... B..3
....|..|--- .... ....|G-4 ...E ....|--- .... B..4
....|..|--- .... ....|--- .... ....|--- .... B..3
....|..|--- .... ....|F-4 ...9 ....|--- .... B..4
....|..|--- .... ....|--- .... ....|--- .... B..3
....|..|--- .... ....|F-4 ..FF ....|--- .... B..4
....|..|--- .... ....|--- .... ....|--- .... B..3
....|..|--- .... ....|G-4 ..E9 ....|--- .... B..4
....|..|--- .... ....|--- .... ....|--- .... B..3
....|..|--- .... ....|A#4 ...E ....|--- .... B..4
....|..|--- .... ....|--- .... ....|--- .... B..3
....|..|--- .... ....|F-4 ..F9 ....|--- .... B..4
....|..|--- .... ....|--- .... ....|--- .... B..3
....|..|--- .... ....|C-5 ...E ....|--- .... B..4
....|..|--- .... ....|--- .... ....|--- .... B..3
....|..|--- .... ....|A#4 ..E9 ....|--- .... B..4
....|..|--- .... ....|--- .... ....|--- .... B..3
....|..|--- .... ....|A#4 ...E ....|--- .... B..4
....|..|--- .... ....|--- .... ....|--- .... B..3
....|..|--- .... ....|C-5 ..F9 ....|--- .... B..4
....|..|--- .... ....|--- .... ....|--- .... B..3
....|..|--- .... ....|C-5 ...E ....|--- .... B..4
....|..|--- .... ....|--- .... ....|--- .... B..3
....|..|--- .... ....|A#4 ..E9 ....|--- .... B..4
....|..|--- .... ....|--- .... ....|--- .... B..3
....|..|--- .... ....|F-5 ..FE ....|--- .... B..4
....|..|--- .... ....|--- .... ....|--- .... B..3
....|..|--- .... ....|C-5 ...9 ....|--- .... B..4
....|..|--- .... ....|--- .... ....|--- .... B..3

[Pattern8]
..27|..|F-1 FF4F ....|C#4 1F.F ....|F-1 4E4F B..4
....|..|--- .... ....|--- .... ....|--- .... B..3
....|..|--- .... ....|F-5 ...9 ....|--- .... B..4
....|..|--- .... ....|--- .... ....|--- .... B..3
..4E|..|F-1 7.F. ....|F-4 ...F ....|F-1 6E.. B..4
....|..|--- .... ....|--- .... ....|--- .... B..3
..14|..|F-2 R.3E ....|C#4 ...9 ....|F-2 1E1E B..4
....|..|--- .... ....|--- .... ....|--- .... B..3
....|..|F-2 ...F ....|G-4 2.DF ....|F-2 ...F B..4
....|..|--- .... ....|--- .... ....|--- .... B..3
....|..|--- .... ....|F-4 1.F9 ....|--- .... B..4
....|..|--- .... ....|--- .... ....|--- .... B..3
....|..|F-1 2.C. ....|G#4 ...F ....|F-2 2.D. B..4
....|..|--- .... ....|--- .... ....|--- .... B..3
....|..|--- .... ....|G-4 2.D9 ....|--- .... B..4
....|..|--- .... ....|--- .... ....|--- .... B..3
..27|..|F-1 F.4. ....|G-4 ...F ....|F-1 4E4. B..4
....|..|--- .... ....|--- .... ....|--- .... B..3
....|..|--- .... ....|G#4 1.F9 ....|--- .... B..4
....|..|--- .... ....|--- .... ....|--- .... B..3
..16|..|D#2 R.3. ....|F-4 ...F ....|D#2 1E1. B..4
....|..|--- .... ....|--- .... ....|--- .... B..3
....|..|--- .... ....|G-4 2.D9 ....|--- .... B..4
....|..|--- .... ....|--- .... ....|--- .... B..3
..27|..|F-1 F.4. ....|C#4 1.EF ....|F-1 4E4. B..4
....|..|--- .... ....|--- .... ....|--- .... B..3
....|..|--- .... ....|F-4 ...9 ....|--- .... B..4
....|..|--- .... ....|--- .... ....|--- .... B..3
..4E|..|F-1 7.F. ....|F-4 ...F ....|F-1 6E.. B..4
....|..|--- .... ....|--- .... ....|--- .... B..3
..14|..|F-2 R.3E ....|C#4 ...9 ....|F-2 1E1E B..4
....|..|--- .... ....|--- .... ....|--- .... B..3
....|..|F-2 ...F ....|G-4 2.DF ....|F-2 ...F B..4
....|..|--- .... ....|--- .... ....|--- .... B..3
....|..|--- .... ....|F-4 1.F9 ....|--- .... B..4
....|..|--- .... ....|--- .... ....|--- .... B..3
....|..|F-1 2.C. ....|G#4 ...F ....|F-2 2.D. B..4
....|..|--- .... ....|--- .... ....|--- .... B..3
....|..|--- .... ....|G-4 2.D9 ....|--- .... B..4
....|..|--- .... ....|--- .... ....|--- .... B..3
..27|..|F-1 F.4. ....|A#4 ...F ....|F-1 4E4. B..4
....|..|--- .... ....|--- .... ....|--- .... B..3
....|..|--- .... ....|G#4 1.F9 ....|--- .... B..4
....|..|--- .... ....|--- .... ....|--- .... B..3
..11|..|G-2 R.3. ....|G#4 ...F ....|G-2 1E1. B..4
....|..|--- .... ....|--- .... ....|--- .... B..3
....|..|--- .... ....|A#4 2.D9 ....|--- .... B..4
....|..|--- .... ....|--- .... ....|--- .... B..3
..2C|..|D#1 F.4. ....|C-4 1.FF ....|D#1 4E4. B..4
....|..|--- .... ....|--- .... ....|--- .... B..3
....|..|--- .... ....|G#4 ...9 ....|--- .... B..4
....|..|--- .... ....|--- .... ....|--- .... B..3
..58|..|D#1 7.F. ....|D#4 ...F ....|D#1 6E.. B..4
....|..|--- .... ....|--- .... ....|--- .... B..3
..16|..|D#2 R.3E ....|C-4 ...9 ....|D#2 1E1E B..4
....|..|--- .... ....|--- .... ....|--- .... B..3
....|..|D#2 ...F ....|F-4 2.DF ....|D#2 ...F B..4
....|..|--- .... ....|--- .... ....|--- .... B..3
....|..|--- .... ....|D#4 1.F9 ....|--- .... B..4
....|..|--- .... ....|--- .... ....|--- .... B..3
....|..|D#1 2.C. ....|G-4 ...F ....|D#2 2.D. B..4
....|..|--- .... ....|--- .... ....|--- .... B..3
....|..|--- .... ....|F-4 2.D9 ....|--- .... B..4
....|..|--- .... ....|--- .... ....|--- .... B..3
..2C|..|D#1 F.4. ....|F-4 ...F ....|D#1 4E4. B..4
....|..|--- .... ....|--- .... ....|--- .... B..3
....|..|--- .... ....|G-4 1.F9 ....|--- .... B..4
....|..|--- .... ....|--- .... ....|--- .... B..3
..17|..|D-2 R.3. ....|D#4 ...F ....|D-2 1E1. B..4
....|..|--- .... ....|--- .... ....|--- .... B..3
....|..|--- .... ....|F-4 2.D9 ....|--- .... B..4
....|..|--- .... ....|--- .... ....|--- .... B..3
..2C|..|D#1 F.4. ....|C-4 1.EF ....|D#1 4E4. B..4
....|..|--- .... ....|--- .... ....|--- .... B..3
....|..|--- .... ....|D#4 ...9 ....|--- .... B..4
....|..|--- .... ....|--- .... ....|--- .... B..3
..58|..|D#1 7.F. ....|D#4 ...F ....|D#1 6E.. B..4
....|..|--- .... ....|--- .... ....|--- .... B..3
..16|..|D#2 R.3E ....|C-4 ...9 ....|D#2 1E1E B..4
....|..|--- .... ....|--- .... ....|--- .... B..3
....|..|D#2 ...F ....|F-4 2.DF ....|D#2 ...F B..4
....|..|--- .... ....|--- .... ....|--- .... B..3
....|..|--- .... ....|D#4 1.F9 ....|--- .... B..4
....|..|--- .... ....|--- .... ....|--- .... B..3
....|..|D#1 2.C. ....|G-4 ...F ....|D#2 2.D. B..4
....|..|--- .... ....|--- .... ....|--- .... B..3
....|..|--- .... ....|F-4 2.D9 ....|--- .... B..4
....|..|--- .... ....|--- .... ....|--- .... B..3
..2C|..|D#1 F.4. ....|G#4 ...F ....|D#1 4E4. B..4
....|..|--- .... ....|--- .... ....|--- .... B..3
....|..|--- .... ....|G-4 1.F9 ....|--- .... B..4
....|..|--- .... ....|--- .... ....|--- .... B..3
..16|..|D#2 R.3. ....|G-4 ...F ....|D#2 1E1. B..4
....|..|--- .... ....|--- .... ....|--- .... B..3
....|..|--- .... ....|G#4 2.D9 ....|--- .... B..4
....|..|--- .... ....|--- .... ....|--- .... B..3

[Pattern9]
..1C|..|B-1 FF4. ....|B-3 1FEF ....|B-1 4E4. B..4
....|..|--- .... ....|--- .... ....|--- .... B..3
....|..|--- .... ....|G-4 ...9 ....|--- .... B..4
....|..|--- .... ....|--- .... ....|--- .... B..3
..37|..|B-1 7.F. ....|D#4 ...F ....|B-1 6E.. B..4
....|..|--- .... ....|--- .... ....|--- .... B..3
...E|..|B-2 R.3E ....|B-3 ...9 ....|B-2 1E1E B..4
....|..|--- .... ....|--- .... ....|--- .... B..3
....|..|B-2 ...F ....|F-4 2.DF ....|B-2 ...F B..4
....|..|--- .... ....|--- .... ....|--- .... B..3
....|..|--- .... ....|D#4 1.E9 ....|--- .... B..4
....|..|--- .... ....|--- .... ....|--- .... B..3
....|..|B-1 2.C. ....|F#4 ...F ....|B-2 2.D. B..4
....|..|--- .... ....|--- .... ....|--- .... B..3
....|..|--- .... ....|F-4 2.D9 ....|--- .... B..4
....|..|--- .... ....|--- .... ....|--- .... B..3
..1C|..|B-1 F.4. ....|F-4 ...F ....|B-1 4E4. B..4
....|..|--- .... ....|--- .... ....|--- .... B..3
....|..|--- .... ....|F#4 1.E9 ....|--- .... B..4
....|..|--- .... ....|--- .... ....|--- .... B..3
..16|..|D#2 R.3. ....|D#4 ...F ....|D#2 1E1. B..4
....|..|--- .... ....|--- .... ....|--- .... B..3
....|..|--- .... ....|F-4 2.D9 ....|--- .... B..4
....|..|--- .... ....|--- .... ....|--- .... B..3
..1C|..|B-1 F.4. ....|B-3 1.EF ....|B-1 4E4. B..4
....|..|--- .... ....|--- .... ....|--- .... B..3
....|..|--- .... ....|D#4 ...9 ....|--- .... B..4
....|..|--- .... ....|--- .... ....|--- .... B..3
..37|..|B-1 7.F. ....|D#4 ...F ....|B-1 6E.. B..4
....|..|--- .... ....|--- .... ....|--- .... B..3
...E|..|B-2 R.3E ....|B-3 ...9 ....|B-2 1E1E B..4
....|..|--- .... ....|--- .... ....|--- .... B..3
....|..|B-2 ...F ....|F-4 2.DF ....|B-2 ...F B..4
....|..|--- .... ....|--- .... ....|--- .... B..3
....|..|--- .... ....|D#4 1.E9 ....|--- .... B..4
....|..|--- .... ....|--- .... ....|--- .... B..3
....|..|B-1 2.C. ....|F#4 ...F ....|B-2 2.D. B..4
....|..|--- .... ....|--- .... ....|--- .... B..3
....|..|--- .... ....|F-4 2.D9 ....|--- .... B..4
....|..|--- .... ....|--- .... ....|--- .... B..3
..1C|..|B-1 F.4. ....|G#4 ...F ....|B-1 4E4. B..4
....|..|--- .... ....|--- .... ....|--- .... B..3
....|..|--- .... ....|F#4 1.E9 ....|--- .... B..4
....|..|--- .... ....|--- .... ....|--- .... B..3
..12|..|F#2 R.3. ....|F#4 ...F ....|F#2 1E1. B..4
....|..|--- .... ....|--- .... ....|--- .... B..3
....|..|--- .... ....|G#4 2.D9 ....|--- .... B..4
....|..|--- .... ....|--- .... ....|--- .... B..3
..1D|..|A#1 F.4. ....|A#3 1.EF ....|A#1 4E4. B..4
....|..|--- .... ....|--- .... ....|--- .... B..3
....|..|--- .... ....|F#4 ...9 ....|--- .... B..4
....|..|--- .... ....|--- .... ....|--- .... B..3
..3B|..|A#1 7.F. ....|C#4 ...F ....|A#1 6E.. B..4
....|..|--- .... ....|--- .... ....|--- .... B..3
...F|..|A#2 R.3E ....|A#3 ...9 ....|A#2 1E1E B..4
....|..|--- .... ....|--- .... ....|--- .... B..3
....|..|A#2 ...F ....|D#4 2.DF ....|A#2 ...F B..4
....|..|--- .... ....|--- .... ....|--- .... B..3
....|..|--- .... ....|C#4 1.E9 ....|--- .... B..4
....|..|--- .... ....|--- .... ....|--- .... B..3
....|..|A#1 2.C. ....|F-4 ...F ....|A#2 2.D. B..4
....|..|--- .... ....|--- .... ....|--- .... B..3
....|..|--- .... ....|D#4 2.D9 ....|--- .... B..4
....|..|--- .... ....|--- .... ....|--- .... B..3
..1D|..|A#1 F.4. ....|D#4 ...F ....|A#1 4E4. B..4
....|..|--- .... ....|--- .... ....|--- .... B..3
....|..|--- .... ....|F-4 1.E9 ....|--- .... B..4
....|..|--- .... ....|--- .... ....|--- .... B..3
..14|..|F-2 R.3. ....|C#4 ...F ....|F-2 1E1. B..4
....|..|--- .... ....|--- .... ....|--- .... B..3
....|..|--- .... ....|D#4 2.D9 ....|--- .... B..4
....|..|--- .... ....|--- .... ....|--- .... B..3
..1D|..|A#1 F.4. ....|A#3 1.EF ....|A#1 4E4. B..4
....|..|--- .... ....|--- .... ....|--- .... B..3
....|..|--- .... ....|C#4 ...9 ....|--- .... B..4
....|..|--- .... ....|--- .... ....|--- .... B..3
..3B|..|A#1 7.F. ....|C#4 ...F ....|A#1 6E.. B..4
....|..|--- .... ....|--- .... ....|--- .... B..3
...F|..|A#2 R.3E ....|A#3 ...9 ....|A#2 1E1E B..4
....|..|--- .... ....|--- .... ....|--- .... B..3
....|..|A#2 ...F ....|D#4 2.DF ....|A#2 ...F B..4
....|..|--- .... ....|--- .... ....|--- .... B..3
....|..|--- .... ....|C#4 1.E9 ....|--- .... B..4
....|..|--- .... ....|--- .... ....|--- .... B..3
....|..|A#3 C.F. ....|F-4 ...F ....|C-4 C.F. B..4
....|..|--- .... ....|--- .... ....|--- .... B..3
....|..|G#3 .... ....|D#4 2.D9 ....|A#3 .... B..4
....|..|--- .... ....|--- .... ....|--- .... B..3
..1D|..|A#1 F.4. ....|F#4 ...F ....|A#1 4E4. B..4
....|..|--- .... ....|--- .... ....|--- .... B..3
....|..|--- .... ....|F-4 1.E9 ....|--- .... B..4
....|..|--- .... ....|--- .... ....|--- .... B..3
....|..|A#3 B.F. ....|F-4 ...F ....|F-5 8.8. B..4
....|..|--- .... ....|--- .... ....|--- .... B..3
....|..|--- .... ....|F#4 2.D9 ....|--- .... B..4
....|..|--- .... ....|--- .... ....|--- .... B..3

[Pattern10]
..27|..|F-1 FF4F ....|C#4 1FEF ....|F-1 4E4F B..4
....|..|--- .... ....|--- .... ....|--- .... B..3
....|..|--- .... ....|F-4 ...9 ....|--- .... B..4
....|..|--- .... ....|--- .... ....|--- .... B..3
..4E|..|F-1 7.F. ....|F-4 ...F ....|F-1 6E.. B..4
....|..|--- .... ....|--- .... ....|--- .... B..3
..14|..|F-2 R.3E ....|C#4 ...9 ....|F-2 1E1E B..4
....|..|--- .... ....|--- .... ....|--- .... B..3
....|..|F-2 ...F ....|G-4 2.DF ....|F-2 ...F B..4
....|..|--- .... ....|--- .... ....|--- .... B..3
....|..|--- .... ....|F-4 1.E9 ....|--- .... B..4
....|..|--- .... ....|--- .... ....|--- .... B..3
....|..|A#3 B.F. ....|G#4 ...F ....|F-5 8.8. B..4
....|..|--- .... ....|--- .... ....|--- .... B..3
....|..|--- .... ....|G-4 2.D9 ....|--- .... B..4
....|..|--- .... ....|--- .... ....|--- .... B..3
..27|..|F-1 F.4. ....|G-4 ...F ....|F-1 4E4. B..4
....|..|--- .... ....|--- .... ....|--- .... B..3
....|..|--- .... ....|G#4 1.E9 ....|--- .... B..4
....|..|--- .... ....|--- .... ....|--- .... B..3
..16|..|D#2 R.3. ....|F-4 ...F ....|D#2 1E1. B..4
....|..|--- .... ....|--- .... ....|--- .... B..3
....|..|--- .... ....|G-4 2.D9 ....|--- .... B..4
....|..|--- .... ....|--- .... ....|--- .... B..3
..27|..|F-1 F.4. ....|C#4 1.EF ....|F-1 4E4. B..4
....|..|--- .... ....|--- .... ....|--- .... B..3
....|..|--- .... ....|F-4 ...9 ....|--- .... B..4
....|..|--- .... ....|--- .... ....|--- .... B..3
..4E|..|F-1 7.F. ....|F-4 ...F ....|F-1 6E.. B..4
....|..|--- .... ....|--- .... ....|--- .... B..3
..14|..|F-2 R.3E ....|C#4 ...9 ....|F-2 1E1E B..4
....|..|--- .... ....|--- .... ....|--- .... B..3
....|..|F-2 ...F ....|G-4 2.DF ....|F-2 ...F B..4
....|..|--- .... ....|--- .... ....|--- .... B..3
....|..|--- .... ....|F-4 1.E9 ....|--- .... B..4
....|..|--- .... ....|--- .... ....|--- .... B..3
....|..|A#3 B.F. ....|G#4 ...F ....|F-5 8.8. B..4
....|..|--- .... ....|--- .... ....|--- .... B..3
....|..|--- .... ....|G-4 2.D9 ....|--- .... B..4
....|..|--- .... ....|--- .... ....|--- .... B..3
..27|..|F-1 F.4. ....|A#4 ...F ....|F-1 4E4. B..4
....|..|--- .... ....|--- .... ....|--- .... B..3
....|..|--- .... ....|G#4 1.E9 ....|--- .... B..4
....|..|--- .... ....|--- .... ....|--- .... B..3
..11|..|G-2 R.3. ....|G#4 ...F ....|G-2 1E1. B..4
....|..|--- .... ....|--- .... ....|--- .... B..3
....|..|--- .... ....|A#4 2.D9 ....|--- .... B..4
....|..|--- .... ....|--- .... ....|--- .... B..3
..2C|..|D#1 F.4. ....|C-4 1.EF ....|D#1 4E4. B..4
....|..|--- .... ....|--- .... ....|--- .... B..3
....|..|--- .... ....|G#4 ...9 ....|--- .... B..4
....|..|--- .... ....|--- .... ....|--- .... B..3
..58|..|D#1 7.F. ....|D#4 ...F ....|D#1 6E.. B..4
....|..|--- .... ....|--- .... ....|--- .... B..3
..16|..|D#2 R.3E ....|C-4 ...9 ....|D#2 1E1E B..4
....|..|--- .... ....|--- .... ....|--- .... B..3
....|..|D#2 ...F ....|F-4 2.DF ....|D#2 ...F B..4
....|..|--- .... ....|--- .... ....|--- .... B..3
....|..|--- .... ....|D#4 1.E9 ....|--- .... B..4
....|..|--- .... ....|--- .... ....|--- .... B..3
....|..|A#3 B.F. ....|G-4 ...F ....|D#5 8.8. B..4
....|..|--- .... ....|--- .... ....|--- .... B..3
....|..|--- .... ....|F-4 2.D9 ....|--- .... B..4
....|..|--- .... ....|--- .... ....|--- .... B..3
..2C|..|D#1 F.4. ....|F-4 ...F ....|D#1 4E4. B..4
....|..|--- .... ....|--- .... ....|--- .... B..3
....|..|--- .... ....|G-4 1.E9 ....|--- .... B..4
....|..|--- .... ....|--- .... ....|--- .... B..3
..17|..|D-2 R.3. ....|D#4 ...F ....|D-2 1E1. B..4
....|..|--- .... ....|--- .... ....|--- .... B..3
....|..|--- .... ....|F-4 2.D9 ....|--- .... B..4
....|..|--- .... ....|--- .... ....|--- .... B..3
..2C|..|D#1 F.4. ....|C-4 1.EF ....|D#1 4E4. B..4
....|..|--- .... ....|--- .... ....|--- .... B..3
....|..|--- .... ....|D#4 ...9 ....|--- .... B..4
....|..|--- .... ....|--- .... ....|--- .... B..3
..58|..|D#1 7.F. ....|D#4 ...F ....|D#1 6E.. B..4
....|..|--- .... ....|--- .... ....|--- .... B..3
..16|..|D#2 R.3E ....|C-4 ...9 ....|D#2 1E1E B..4
....|..|--- .... ....|--- .... ....|--- .... B..3
....|..|D#2 ...F ....|F-4 2.DF ....|D#2 ...F B..4
....|..|--- .... ....|--- .... ....|--- .... B..3
....|..|--- .... ....|D#4 1.E9 ....|--- .... B..4
....|..|--- .... ....|--- .... ....|--- .... B..3
....|..|A#3 B.F. ....|G-4 ...F ....|D#5 8.8. B..4
....|..|--- .... ....|--- .... ....|--- .... B..3
....|..|--- .... ....|F-4 2.D9 ....|--- .... B..4
....|..|--- .... ....|--- .... ....|--- .... B..3
..2C|..|D#1 F.4. ....|G#4 ...F ....|D#1 4E4. B..4
....|..|--- .... ....|--- .... ....|--- .... B..3
....|..|--- .... ....|G-4 1.E9 ....|--- .... B..4
....|..|--- .... ....|--- .... ....|--- .... B..3
..16|..|D#2 R.3. ....|G-4 ...F ....|D#2 1E1. B..4
....|..|--- .... ....|--- .... ....|--- .... B..3
....|..|--- .... ....|G#4 2.D9 ....|--- .... B..4
....|..|--- .... ....|--- .... ....|--- .... B..3

[Pattern11]
..1C|..|B-1 FE4F ....|B-3 1FEF ....|B-1 4E4F B..4
....|..|--- .... ....|--- .... ....|--- .... B..3
....|..|--- .... ....|G-4 ...9 ....|--- .... B..4
....|..|--- .... ....|--- .... ....|--- .... B..3
..37|..|B-1 7.F. ....|D#4 ...F ....|B-1 6E.. B..4
....|..|--- .... ....|--- .... ....|--- .... B..3
...E|..|B-2 R.3E ....|B-3 ...9 ....|B-2 1E1E B..4
....|..|--- .... ....|--- .... ....|--- .... B..3
....|..|B-2 ...F ....|F-4 2.DF ....|B-2 ...F B..4
....|..|--- .... ....|--- .... ....|--- .... B..3
....|..|--- .... ....|D#4 1.E9 ....|--- .... B..4
....|..|--- .... ....|--- .... ....|--- .... B..3
....|..|A#3 B.F. ....|F#4 ...F ....|F#5 8.8. B..4
....|..|--- .... ....|--- .... ....|--- .... B..3
....|..|--- .... ....|F-4 2.D9 ....|--- .... B..4
....|..|--- .... ....|--- .... ....|--- .... B..3
..1C|..|B-1 F.4. ....|F-4 ...F ....|B-1 4E4. B..4
....|..|--- .... ....|--- .... ....|--- .... B..3
....|..|--- .... ....|F#4 1.E9 ....|--- .... B..4
....|..|--- .... ....|--- .... ....|--- .... B..3
..16|..|D#2 R.3. ....|D#4 ...F ....|D#2 1E1. B..4
....|..|--- .... ....|--- .... ....|--- .... B..3
....|..|--- .... ....|F-4 2.D9 ....|--- .... B..4
....|..|--- .... ....|--- .... ....|--- .... B..3
..1C|..|B-1 F.4. ....|B-3 1.EF ....|B-1 4E4. B..4
....|..|--- .... ....|--- .... ....|--- .... B..3
....|..|--- .... ....|D#4 ...9 ....|--- .... B..4
....|..|--- .... ....|--- .... ....|--- .... B..3
..37|..|B-1 7.F. ....|D#4 ...F ....|B-1 6E.. B..4
....|..|--- .... ....|--- .... ....|--- .... B..3
...E|..|B-2 R.3E ....|B-3 ...9 ....|B-2 1E1E B..4
....|..|--- .... ....|--- .... ....|--- .... B..3
....|..|B-2 ...F ....|F-4 2.DF ....|B-2 ...F B..4
....|..|--- .... ....|--- .... ....|--- .... B..3
....|..|--- .... ....|D#4 1.E9 ....|--- .... B..4
....|..|--- .... ....|--- .... ....|--- .... B..3
....|..|A#3 B.F. ....|F#4 ...F ....|F#5 8.8. B..4
....|..|--- .... ....|--- .... ....|--- .... B..3
....|..|--- .... ....|F-4 2.D9 ....|--- .... B..4
....|..|--- .... ....|--- .... ....|--- .... B..3
..1C|..|B-1 F.4. ....|G#4 ...F ....|B-1 4E4. B..4
....|..|--- .... ....|--- .... ....|--- .... B..3
....|..|--- .... ....|F#4 1.E9 ....|--- .... B..4
....|..|--- .... ....|--- .... ....|--- .... B..3
..12|..|F#2 R.3. ....|F#4 ...F ....|F#2 1E1. B..4
....|..|--- .... ....|--- .... ....|--- .... B..3
....|..|--- .... ....|G#4 2.D9 ....|--- .... B..4
....|..|--- .... ....|--- .... ....|--- .... B..3
..1D|..|A#1 F.4. ....|A#3 1.EF ....|A#1 4E4. B..4
....|..|--- .... ....|--- .... ....|--- .... B..3
....|..|--- .... ....|F#4 ...9 ....|--- .... B..4
....|..|--- .... ....|--- .... ....|--- .... B..3
..3B|..|A#1 7.F. ....|C#4 ...F ....|A#1 6E.. B..4
....|..|--- .... ....|--- .... ....|--- .... B..3
...F|..|A#2 R.3E ....|A#3 ...9 ....|A#2 1E1E B..4
....|..|--- .... ....|--- .... ....|--- .... B..3
....|..|A#2 ...F ....|D#4 2.DF ....|A#2 ...F B..4
....|..|--- .... ....|--- .... ....|--- .... B..3
....|..|--- .... ....|C#4 1.E9 ....|--- .... B..4
....|..|--- .... ....|--- .... ....|--- .... B..3
....|..|A#3 B.F. ....|F-4 ...F ....|F-5 8.8. B..4
....|..|--- .... ....|--- .... ....|--- .... B..3
....|..|--- .... ....|D#4 2.D9 ....|--- .... B..4
....|..|--- .... ....|--- .... ....|--- .... B..3
..1D|..|A#1 F.4. ....|D#4 ...F ....|A#1 4E4. B..4
....|..|--- .... ....|--- .... ....|--- .... B..3
....|..|--- .... ....|F-4 1.E9 ....|--- .... B..4
....|..|--- .... ....|--- .... ....|--- .... B..3
..14|..|F-2 R.3. ....|C#4 ...F ....|F-2 1E1. B..4
....|..|--- .... ....|--- .... ....|--- .... B..3
....|..|--- .... ....|D#4 2.D9 ....|--- .... B..4
....|..|--- .... ....|--- .... ....|--- .... B..3
..1D|..|A#1 F.4. ....|A#3 1.EF ....|A#1 4E4. B..4
....|..|--- .... ....|--- .... ....|--- .... B..3
....|..|--- .... ....|C#4 ...9 ....|--- .... B..4
....|..|--- .... ....|--- .... ....|--- .... B..3
..3B|..|A#1 7.F. ....|C#4 ...F ....|A#1 6E.. B..4
....|..|--- .... ....|--- .... ....|--- .... B..3
...F|..|A#2 R.3E ....|A#3 ...9 ....|A#2 1E1E B..4
....|..|--- .... ....|--- .... ....|--- .... B..3
....|..|A#3 B.FF ....|D#4 2.DF ....|F-5 8.8F B..4
....|..|--- .... ....|--- .... ....|--- .... B..3
....|..|--- .... ....|C#4 1.E9 ....|--- .... B..4
....|..|--- .... ....|--- .... ....|--- .... B..3
....|..|A#3 C... ....|F-4 ...F ....|C-4 C.F. B..4
....|..|--- .... ....|--- .... ....|--- .... B..3
....|..|A#3 .... ....|D#4 2.D9 ....|C-4 .... B..4
....|..|--- .... ....|--- .... ....|--- .... B..3
..1D|..|A#1 F.4. ....|F#4 ...F ....|A#1 4E4. B..4
....|..|--- .... ....|--- .... ....|--- .... B..3
....|..|--- .... ....|F-4 1.E9 ....|--- .... B..4
....|..|--- .... ....|--- .... ....|--- .... B..3
....|..|G#3 C.F. ....|F-4 ...F ....|A#3 C.F. B..4
....|..|--- .... ....|--- .... ....|--- .... B..3
....|..|--- .... ....|F#4 2.D9 ....|--- .... B..4
....|..|--- .... ....|--- .... ....|--- .... B..3

[Pattern12]
..1F|..|A-1 FE4F ....|A-3 1FEF ....|A-1 4E4F B..4
....|..|--- .... ....|--- .... ....|--- .... B..3
....|..|--- .... ....|C#4 ...9 ....|--- .... B..4
....|..|--- .... ....|--- .... ....|--- .... B..3
..3E|..|A-1 7.F. ....|C#4 ...F ....|A-1 6E.. B..4
....|..|--- .... ....|--- .... ....|--- .... B..3
..10|..|A-2 R.3E ....|A-3 ...9 ....|A-2 1E1E B..4
....|..|--- .... ....|--- .... ....|--- .... B..3
....|..|A-2 ...F ....|D#4 2.DF ....|A-2 ...F B..4
....|..|--- .... ....|--- .... ....|--- .... B..3
....|..|--- .... ....|C#4 1.E9 ....|--- .... B..4
....|..|--- .... ....|--- .... ....|--- .... B..3
....|..|A#3 B.F. ....|E-4 ...F ....|A-5 8.8. B..4
....|..|--- .... ....|--- .... ....|--- .... B..3
....|..|--- .... ....|D#4 2.D9 ....|--- .... B..4
....|..|--- .... ....|--- .... ....|--- .... B..3
..1F|..|A-1 F.4. ....|D#4 ...F ....|A-1 4E4. B..4
....|..|--- .... ....|--- .... ....|--- .... B..3
....|..|--- .... ....|E-4 1.E9 ....|--- .... B..4
....|..|--- .... ....|--- .... ....|--- .... B..3
..10|..|A-2 R.3. ....|C#4 ...F ....|A-2 1E1. B..4
....|..|--- .... ....|--- .... ....|--- .... B..3
....|..|--- .... ....|D#4 2.D9 ....|--- .... B..4
....|..|--- .... ....|--- .... ....|--- .... B..3
..1F|..|A-1 F.4. ....|A-3 1.EF ....|A-1 4E4. B..4
....|..|--- .... ....|--- .... ....|--- .... B..3
....|..|--- .... ....|C#4 ...9 ....|--- .... B..4
....|..|--- .... ....|--- .... ....|--- .... B..3
..3E|..|A-1 7.F. ....|C#4 ...F ....|A-1 6E.. B..4
....|..|--- .... ....|--- .... ....|--- .... B..3
..10|..|A-2 R.3E ....|A-3 ...9 ....|A-2 1E1E B..4
....|..|--- .... ....|--- .... ....|--- .... B..3
....|..|A-2 ...F ....|D#4 2.DF ....|A-2 ...F B..4
....|..|--- .... ....|--- .... ....|--- .... B..3
....|..|--- .... ....|C#4 1.E9 ....|--- .... B..4
....|..|--- .... ....|--- .... ....|--- .... B..3
....|..|A#3 B.F. ....|E-4 ...F ....|A-5 8.8. B..4
....|..|--- .... ....|--- .... ....|--- .... B..3
....|..|--- .... ....|D#4 2.D9 ....|--- .... B..4
....|..|--- .... ....|--- .... ....|--- .... B..3
..1F|..|A-1 F.4. ....|F#4 ...F ....|A-1 4E4. B..4
....|..|--- .... ....|--- .... ....|--- .... B..3
....|..|--- .... ....|E-4 1.E9 ....|--- .... B..4
....|..|--- .... ....|--- .... ....|--- .... B..3
..10|..|A-2 R.3. ....|E-4 ...F ....|A-2 1E1. B..4
....|..|--- .... ....|--- .... ....|--- .... B..3
....|..|--- .... ....|F#4 2.D9 ....|--- .... B..4
....|..|--- .... ....|--- .... ....|--- .... B..3
..21|..|G#1 F.4. ....|G#3 1.EF ....|G#1 4E4. B..4
....|..|--- .... ....|--- .... ....|--- .... B..3
....|..|--- .... ....|C#4 ...9 ....|--- .... B..4
....|..|--- .... ....|--- .... ....|--- .... B..3
..42|..|G#1 7.F. ....|B-3 ...F ....|G#1 6E.. B..4
....|..|--- .... ....|--- .... ....|--- .... B..3
..10|..|G#2 R.3E ....|G#3 ...9 ....|G#2 1E1E B..4
....|..|--- .... ....|--- .... ....|--- .... B..3
....|..|G#2 ...F ....|C#4 2.DF ....|G#2 ...F B..4
....|..|--- .... ....|--- .... ....|--- .... B..3
....|..|--- .... ....|B-3 1.E9 ....|--- .... B..4
....|..|--- .... ....|--- .... ....|--- .... B..3
....|..|A#3 B.F. ....|D#4 ...F ....|G#5 8.8. B..4
....|..|--- .... ....|--- .... ....|--- .... B..3
....|..|--- .... ....|C#4 2.D9 ....|--- .... B..4
....|..|--- .... ....|--- .... ....|--- .... B..3
..21|..|G#1 F.4. ....|C#4 ...F ....|G#1 4E4. B..4
....|..|--- .... ....|--- .... ....|--- .... B..3
....|..|--- .... ....|D#4 1.E9 ....|--- .... B..4
....|..|--- .... ....|--- .... ....|--- .... B..3
..10|..|G#2 R.3. ....|B-3 ...F ....|G#2 1E1. B..4
....|..|--- .... ....|--- .... ....|--- .... B..3
....|..|--- .... ....|C#4 2.D9 ....|--- .... B..4
....|..|--- .... ....|--- .... ....|--- .... B..3
..21|..|G#1 F.4. ....|G#3 1.EF ....|G#1 4E4. B..4
....|..|--- .... ....|--- .... ....|--- .... B..3
....|..|--- .... ....|B-3 ...9 ....|--- .... B..4
....|..|--- .... ....|--- .... ....|--- .... B..3
..42|..|G#1 7.F. ....|B-3 ...F ....|G#1 6E.. B..4
....|..|--- .... ....|--- .... ....|--- .... B..3
..10|..|G#2 R.3E ....|G#3 ...9 ....|G#2 1E1E B..4
....|..|--- .... ....|--- .... ....|--- .... B..3
....|..|G#2 ...F ....|C#4 2.DF ....|G#2 ...F B..4
....|..|--- .... ....|--- .... ....|--- .... B..3
....|..|--- .... ....|B-3 1.E9 ....|--- .... B..4
....|..|--- .... ....|--- .... ....|--- .... B..3
....|..|A#3 B.F. ....|D#4 ...F ....|G#5 8.8. B..4
....|..|--- .... ....|--- .... ....|--- .... B..3
....|..|--- .... ....|C#4 2.D9 ....|--- .... B..4
....|..|--- .... ....|--- .... ....|--- .... B..3
..21|..|G#1 F.4. ....|E-4 ...F ....|G#1 4E4. B..4
....|..|--- .... ....|--- .... ....|--- .... B..3
....|..|--- .... ....|D#4 1.E9 ....|--- .... B..4
....|..|--- .... ....|--- .... ....|--- .... B..3
..10|..|G#2 R.3. ....|D#4 ...F ....|G#2 1E1. B..4
....|..|--- .... ....|--- .... ....|--- .... B..3
....|..|--- .... ....|E-4 2.D9 ....|--- .... B..4
....|..|--- .... ....|--- .... ....|--- .... B..3

[Pattern13]
..23|..|G-1 FF4F ....|G-3 1FEF ....|G-1 4E4F B..4
....|..|--- .... ....|--- .... ....|--- .... B..3
....|..|--- .... ....|D#4 ...9 ....|--- .... B..4
....|..|--- .... ....|--- .... ....|--- .... B..3
....|..|G-1 ...E ....|B-3 ...F ....|G-1 ...E B..4
....|..|--- .... ....|--- .... ....|--- .... B..3
....|..|--- .... ....|G-3 ...9 ....|--- .... B..4
....|..|--- .... ....|--- .... ....|--- .... B..3
..46|..|G-1 7.F. ....|C#4 2.DF ....|G-1 6E.. B..4
....|..|--- .... ....|--- .... ....|--- .... B..3
....|..|--- .... ....|B-3 1.E9 ....|--- .... B..4
....|..|--- .... ....|--- .... ....|--- .... B..3
..11|..|G-1 2.C. ....|D-4 ...F ....|G-2 2ED. B..4
....|..|--- .... ....|--- .... ....|--- .... B..3
....|..|--- .... ....|C#4 2.D9 ....|--- .... B..4
....|..|--- .... ....|--- .... ....|--- .... B..3
..23|..|G-1 F.4. ....|C#4 ...F ....|G-1 4E4. B..4
....|..|--- .... ....|--- .... ....|--- .... B..3
....|..|--- .... ....|D-4 1.E9 ....|--- .... B..4
....|..|--- .... ....|--- .... ....|--- .... B..3
..11|..|G-1 2.C. ....|B-3 ...F ....|G-2 2ED. B..4
....|..|--- .... ....|--- .... ....|--- .... B..3
....|..|--- .... ....|C#4 2.D9 ....|--- .... B..4
....|..|--- .... ....|--- .... ....|--- .... B..3
..23|..|G-1 F.4. ....|E-4 1.EF ....|G-1 4E4. B..4
....|..|--- .... ....|--- .... ....|--- .... B..3
....|..|--- .... ....|B-3 ...9 ....|--- .... B..4
....|..|--- .... ....|--- .... ....|--- .... B..3
..46|..|G-1 7.FD ....|D-4 ...F ....|G-1 6E.D B..4
....|..|--- .... ....|--- .... ....|--- .... B..3
....|..|--- .... ....|E-4 ...9 ....|--- .... B..4
....|..|--- .... ....|--- .... ....|--- .... B..3
....|..|--- .... ....|C#4 2.DF ....|--- .... B..4
....|..|--- .... ....|--- .... ....|--- .... B..3
....|..|--- .... ....|D-4 1.E9 ....|--- .... B..4
....|..|--- .... ....|--- .... ....|--- .... B..3
..11|..|G-1 2.C. ....|D-4 ...F ....|G-2 2ED. B..4
....|..|--- .... ....|--- .... ....|--- .... B..3
....|..|--- .... ....|C#4 2.D9 ....|--- .... B..4
....|..|--- .... ....|--- .... ....|--- .... B..3
..23|..|G-1 F.4. ....|C#4 ...F ....|G-1 4E4. B..4
....|..|--- .... ....|--- .... ....|--- .... B..3
....|..|--- .... ....|D-4 1.E9 ....|--- .... B..4
....|..|--- .... ....|--- .... ....|--- .... B..3
..11|..|G-1 2.C. ....|B-3 ...F ....|G-2 2ED. B..4
....|..|--- .... ....|--- .... ....|--- .... B..3
....|..|--- .... ....|C#4 2.D9 ....|--- .... B..4
....|..|--- .... ....|--- .... ....|--- .... B..3
..1C|..|B-1 R.3C ....|F#3 1.FF ....|B-1 1E1C B..4
....|..|--- .... ....|--- .... ....|--- .... B..3
....|..|--- .... ....|C#4 ...9 ....|--- .... B..4
....|..|--- .... ....|--- .... ....|--- .... B..3
....|..|--- .... ....|B-3 ...F ....|--- .... B..4
....|..|--- .... ....|--- .... ....|--- .... B..3
....|..|--- .... ....|F#3 ...9 ....|--- .... B..4
....|..|--- .... ....|--- .... ....|--- .... B..3
..37|..|B-1 7.F. ....|C#4 2.DF ....|B-1 6E.. B..4
....|..|--- .... ....|--- .... ....|--- .... B..3
....|..|--- .... ....|B-3 1.F9 ....|--- .... B..4
....|..|--- .... ....|--- .... ....|--- .... B..3
....|..|--- .... ....|C-4 ...F ....|--- .... B..4
....|..|--- .... ....|--- .... ....|--- .... B..3
....|..|--- .... ....|C#4 2.D9 ....|--- .... B..4
....|..|--- .... ....|--- .... ....|--- .... B..3
....|..|--- .... ....|F-4 ...E ....|--- .... B..4
....|..|--- .... ....|--- .... ....|--- .... B..3
....|..|--- .... ....|C-4 1.F9 ....|--- .... B..4
....|..|--- .... ....|--- .... ....|--- .... B..3
....|..|B-1 R.5. ....|G-4 ...E ....|B-1 1.1. B..4
....|..|--- .... ....|--- .... ....|--- .... B..3
....|..|--- .... ....|F-4 2.D9 ....|--- .... B..4
....|..|--- .... ....|--- .... ....|--- .... B..3
....|..|--- .... ....|F-4 1.FD ....|--- .... B..4
....|..|--- .... ....|--- .... ....|--- .... B..3
....|..|--- .... ....|G-4 ...7 ....|--- .... B..4
....|..|--- .... ....|--- .... ....|--- .... B..3
....|..|B-1 ...B ....|A#4 ...C ....|B-1 ...B B..4
....|..|--- .... ....|--- .... ....|--- .... B..3
....|..|--- .... ....|F-4 ...7 ....|--- .... B..4
....|..|--- .... ....|--- .... ....|--- .... B..3
....|..|--- .... ....|C-5 2.DC ....|--- .... B..4
....|..|--- .... ....|--- .... ....|--- .... B..3
....|..|--- .... ....|A#4 1.F7 ....|--- .... B..4
....|..|--- .... ....|--- .... ....|--- .... B..3
....|..|--- .... ....|A#4 ...B ....|--- .... B..4
....|..|--- .... ....|--- .... ....|--- .... B..3
....|..|--- .... ....|C-5 2.D6 ....|--- .... B..4
....|..|--- .... ....|--- .... ....|--- .... B..3
....|..|--- .... ....|C-5 ...A ....|--- .... B..4
....|..|--- .... ....|--- .... ....|--- .... B..3
....|..|--- .... ....|A#4 1.F5 ....|--- .... B..4
....|..|--- .... ....|--- .... ....|--- .... B..3
....|..|--- .... ....|F-5 ...9 ....|--- .... B..4
....|..|--- .... ....|--- .... ....|--- .... B..3
....|..|--- .... ....|C-5 2.D4 ....|--- .... B..4
....|..|--- .... ....|--- .... ....|--- .... B..3

[Pattern14]
....|..|--- .... ....|A#4 1.F8 ....|--- .... B..4
....|..|--- .... ....|--- .... ....|--- .... B..3
....|..|--- .... ....|C-5 2.D4 ....|--- .... B..4
....|..|--- .... ....|--- .... ....|--- .... B..3
....|..|--- .... ....|C-5 ...7 ....|--- .... B..4
....|..|--- .... ....|--- .... ....|--- .... B..3
....|..|--- .... ....|A#4 1.F3 ....|--- .... B..4
....|..|--- .... ....|--- .... ....|--- .... B..3
....|..|--- .... ....|F-5 ...6 ....|--- .... B..4
....|..|--- .... ....|--- .... ....|--- .... B..3
....|..|--- .... ....|C-5 2.D2 ....|--- .... B..4
....|..|--- .... ....|--- .... ....|--- .... B..3
....|..|--- .... ....|A#4 1.F5 ....|--- .... B..4
....|..|--- .... ....|--- .... ....|--- .... B..3
....|..|--- .... ....|C-5 2.D2 ....|--- .... B..4
....|..|--- .... ....|--- .... ....|--- .... B..3
....|..|--- .... ....|C-5 ...4 ....|--- .... B..4
....|..|--- .... ....|--- .... ....|--- .... B..3
....|..|--- .... ....|A#4 1.F1 ....|--- .... B..4
....|..|--- .... ....|--- .... ....|--- .... B..3
....|..|--- .... ....|F-5 ...3 ....|--- .... B..4
....|..|--- .... ....|--- .... ....|--- .... B..3
....|..|--- .... ....|--- ...1 ....|--- .... B..4
....|..|--- .... ....|--- .... ....|--- .... B..3

[Pattern15]
....|..|R-- .... ....|R-- .... ....|R-- .... ....
....|..|--- .... ....|--- .... ....|--- .... ....
....|..|--- .... ....|--- .... ....|--- .... ....
....|..|--- .... ....|--- .... ....|--- .... ....
....|..|--- .... ....|--- .... ....|--- .... ....
....|..|--- .... ....|--- .... ....|--- .... ....
....|..|--- .... ....|--- .... ....|--- .... ....
....|..|--- .... ....|--- .... ....|--- .... ....

[Module]
VortexTrackerII=0
Version=3.7
Title=Vradark's Revenge: intro [2]
Author=n1k-o  27.08.2022
NoteTable=2
ChipFreq=1750000
IntFreq=48828
Speed=4
Noise=HEX
PlayOrder=0,1,2,3,4,5,6,7,8,9,10,11,12,13,14,L15


[Ornament1]
L0

[Ornament2]
L0

[Ornament3]
L0

[Ornament4]
L0

[Ornament5]
L0

[Ornament6]
L0

[Ornament7]
L0

[Ornament8]
L0

[Ornament9]
L0

[Ornament10]
L0

[Ornament11]
L0

[Ornament12]
L0

[Ornament13]
3,L0

[Ornament14]
-1,-1,L0

[Ornament15]
L0

[Ornament16]
L0

[Ornament17]
L0

[Ornament18]
L0

[Ornament19]
L0

[Ornament20]
L0

[Ornament21]
L0

[Ornament22]
L0

[Ornament23]
L0

[Ornament24]
L0

[Ornament25]
L0

[Ornament26]
L0

[Ornament27]
L0

[Ornament28]
L0

[Ornament29]
L0

[Ornament30]
L0

[Ornament31]
L0

[Sample1]
... +000_ +00_ 0_ L

[Sample2]
T.E +001^ +00_ E_
T.E +000_ +00_ E_
T.E +000_ +00_ E_
T.E +000_ +00_ E_
T.E +000_ +00_ D_
T.E +000_ +00_ D_
T.E +000_ +00_ C_
T.E +000_ +00_ C_
T.E +000_ +00_ C_
T.E +000_ +00_ B_
T.E +000_ +00_ B_
T.E +000_ +00_ A_
T.E +000_ +00_ A_ L
T.E -002_ +00_ 9_
T.E -004_ +00_ 9_
T.E -002_ +00_ 9_
T.E +000_ +00_ 9_
T.E +002_ +00_ 9_
T.E +004_ +00_ 9_
T.E +002_ +00_ 9+

[Sample3]
... +000_ +00_ 0_ L

[Sample4]
... +000_ +00_ 0_ L

[Sample5]
... +000_ +00_ 0_ L

[Sample6]
... +000_ +00_ 0_ L

[Sample7]
... +000_ +00_ 0_ L

[Sample8]
... +000_ +00_ 0_ L

[Sample9]
T.E +000_ +00_ A_
T.E +000_ +00_ A_
T.E +000_ +00_ A_
T.E +000_ +00_ A_
T.E +000_ +00_ 9_
T.E +000_ +00_ 9_
T.E +000_ +00_ 8_
T.E +000_ +00_ 8_
T.E +000_ +00_ 8_
T.E +000_ +00_ 7_
T.E +000_ +00_ 7_
T.E +000_ +00_ 6_
T.E +000_ +00_ 6_ L
T.E -002_ +00_ 5_
T.E -004_ +00_ 5_
T.E -002_ +00_ 5_
T.E +000_ +00_ 5_
T.E +002_ +00_ 5_
T.E +004_ +00_ 5_
T.E +002_ +00_ 5+

[Sample10]
T.E +001_ +00_ 6_ L
T.E -001_ +00_ 5_
T.E -003_ +00_ 5_
T.E -001_ +00_ 5_
T.E +001_ +00_ 5_
T.E +003_ +00_ 5_
T.E +005_ +00_ 5_
T.E +003_ +00_ 5+

[Sample11]
T.E +001_ +00_ A+ L
T.E -001_ +00_ 9_
T.E -003_ +00_ 9_
T.E -001_ +00_ 9_
T.E +001_ +00_ 9_
T.E +003_ +00_ 9_
T.E +005_ +00_ 9_
T.E +003_ +00_ 9+

[Sample12]
... +000_ +00_ 0_ L

[Sample13]
... +000_ +00_ 0_ L

[Sample14]
... +000_ +00_ 0_ L

[Sample15]
... +000_ +00_ 0_ L

[Sample16]
... +000_ +00_ 0_ L

[Sample17]
... +000_ +00_ 0_ L

[Sample18]
... +000_ +00_ 0_ L

[Sample19]
... +000_ +00_ 0_ L

[Sample20]
... +000_ +00_ 0_ L

[Sample21]
... +000_ +00_ 0_ L

[Sample22]
... +000_ +00_ 0_ L

[Sample23]
... +000_ +00_ 0_ L

[Sample24]
... +000_ +00_ 0_ L

[Sample25]
... +000_ +00_ 0_ L

[Sample26]
... +000_ +00_ 0_ L

[Sample27]
... +000_ +00_ 0_ L

[Sample28]
... +000_ +00_ 0_ L

[Sample29]
... +000_ +00_ 0_ L

[Sample30]
... +000_ +00_ 0_ L

[Sample31]
... +000_ +00_ 0_ L

[Pattern0]
....|..|C#5 BF.1 ....|F-5 BF.3 ....|G#4 BF.1 B..4
....|..|--- .... ....|--- .... ....|--- .... B..3
....|..|--- ...2 ....|--- ...4 ....|--- ...2 B..4
....|..|--- .... ....|--- .... ....|--- .... B..3
....|..|--- ...3 ....|--- ...5 ....|--- ...3 B..4
....|..|--- .... ....|--- .... ....|--- .... B..3
....|..|--- ...4 ....|--- ...6 ....|--- ...4 B..4
....|..|--- .... ....|--- .... ....|--- .... B..3
....|..|--- ...5 ....|--- ...7 ....|--- ...5 B..4
....|..|--- .... ....|--- .... ....|--- .... B..3
....|..|--- ...6 ....|--- ...8 ....|--- ...6 B..4
....|..|--- .... ....|--- .... ....|--- .... B..3
....|..|--- ...7 ....|--- ...9 ....|--- ...7 B..4
....|..|--- .... ....|--- .... ....|--- .... B..3
....|..|--- .... ....|--- .... ....|--- .... B..4
....|..|--- .... ....|--- .... ....|--- .... B..3
....|..|--- .... ....|--- .... ....|--- .... B..4
....|..|--- .... ....|--- .... ....|--- .... B..3
....|..|--- ...6 ....|--- ...8 ....|--- ...6 B..4
....|..|--- .... ....|--- .... ....|--- .... B..3
....|..|--- ...5 ....|--- ...7 ....|--- ...5 B..4
....|..|--- .... ....|--- .... ....|--- .... B..3
....|..|--- ...3 ....|--- ...6 ....|--- ...3 B..4
....|..|--- .... ....|--- .... ....|--- .... B..3
....|..|D#5 ...1 31.1|G-5 ...3 31.1|A#4 ...1 B..4
....|..|--- .... ....|--- .... ....|--- .... B..3
....|..|--- ...2 ....|--- ...4 ....|--- ...2 B..4
....|..|--- .... ....|--- .... ....|--- .... B..3
....|..|--- ...3 ....|--- ...5 ....|--- ...3 B..4
....|..|--- .... ....|--- .... ....|--- .... B..3
....|..|--- ...4 ....|--- ...6 ....|--- ...4 B..4
....|..|--- .... ....|--- .... ....|--- .... B..3
....|..|--- ...5 ....|--- ...7 ....|--- ...5 B..4
....|..|--- .... ....|--- .... ....|--- .... B..3
....|..|--- ...6 ....|--- ...8 ....|--- ...6 B..4
....|..|--- .... ....|--- .... ....|--- .... B..3
....|..|--- ...7 ....|--- ...9 ....|--- ...7 B..4
....|..|--- .... ....|--- .... ....|--- .... B..3
....|..|--- .... ....|--- .... ....|--- .... B..4
....|..|--- .... ....|--- .... ....|--- .... B..3
....|..|--- .... ....|--- .... ....|--- .... B..4
....|..|--- .... ....|--- .... ....|--- .... B..3
....|..|--- ...6 ....|--- ...8 ....|--- ...6 B..4
....|..|--- .... ....|--- .... ....|--- .... B..3
....|..|--- ...5 ....|--- ...7 ....|--- ...5 B..4
....|..|--- .... ....|--- .... ....|--- .... B..3
....|..|--- ...3 ....|--- ...6 ....|--- ...3 B..4
....|..|--- .... ....|--- .... ....|--- .... B..3
....|..|D#5 ...1 ....|F#5 ...3 31.1|B-4 ...1 B..4
....|..|--- .... ....|--- .... ....|--- .... B..3
....|..|--- ...2 ....|--- ...4 ....|--- ...2 B..4
....|..|--- .... ....|--- .... ....|--- .... B..3
....|..|--- ...3 ....|--- ...5 ....|--- ...3 B..4
....|..|--- .... ....|--- .... ....|--- .... B..3
....|..|--- ...4 ....|--- ...6 ....|--- ...4 B..4
....|..|--- .... ....|--- .... ....|--- .... B..3
....|..|--- ...5 ....|--- ...7 ....|--- ...5 B..4
....|..|--- .... ....|--- .... ....|--- .... B..3
....|..|--- ...6 ....|--- ...8 ....|--- ...6 B..4
....|..|--- .... ....|--- .... ....|--- .... B..3
....|..|--- ...7 ....|--- ...9 ....|--- ...7 B..4
....|..|--- .... ....|--- .... ....|--- .... B..3
....|..|--- .... ....|--- .... ....|--- .... B..4
....|..|--- .... ....|--- .... ....|--- .... B..3
....|..|--- .... ....|--- .... ....|--- .... B..4
....|..|--- .... ....|--- .... ....|--- .... B..3
....|..|--- ...6 ....|--- ...8 ....|--- ...6 B..4
....|..|--- .... ....|--- .... ....|--- .... B..3
....|..|--- ...5 ....|--- ...7 ....|--- ...5 B..4
....|..|--- .... ....|--- .... ....|--- .... B..3
....|..|--- ...3 ....|--- ...6 ....|--- ...3 B..4
....|..|--- .... ....|--- .... ....|--- .... B..3
....|..|C#5 ...1 31.1|F-5 ...3 31.1|A#4 ...1 B..4
....|..|--- .... ....|--- .... ....|--- .... B..3
....|..|--- ...2 ....|--- ...4 ....|--- ...2 B..4
....|..|--- .... ....|--- .... ....|--- .... B..3
....|..|--- ...3 ....|--- ...5 ....|--- ...3 B..4
....|..|--- .... ....|--- .... ....|--- .... B..3
....|..|--- ...4 ....|--- ...6 ....|--- ...4 B..4
....|..|--- .... ....|--- .... ....|--- .... B..3
....|..|--- ...5 ....|--- ...7 ....|--- ...5 B..4
....|..|--- .... ....|--- .... ....|--- .... B..3
....|..|--- ...6 ....|--- ...8 ....|--- ...6 B..4
....|..|--- .... ....|--- .... ....|--- .... B..3
....|..|--- ...7 ....|--- ...9 ....|--- ...7 B..4
....|..|--- .... ....|--- .... ....|--- .... B..3
....|..|--- .... ....|--- .... ....|--- .... B..4
....|..|--- .... ....|--- .... ....|--- .... B..3
....|..|--- .... ....|--- .... ....|--- .... B..4
....|..|--- .... ....|--- .... ....|--- .... B..3
....|..|--- ...6 ....|--- ...8 ....|--- ...6 B..4
....|..|--- .... ....|--- .... ....|--- .... B..3
....|..|--- ...5 ....|--- ...7 ....|--- ...5 B..4
....|..|--- .... ....|--- .... ....|--- .... B..3
....|..|--- ...3 ....|--- ...6 ....|--- ...3 B..4
....|..|--- .... ....|--- .... ....|--- .... B..3

[Pattern1]
....|..|C#5 ...1 ....|E-5 ...3 ....|A-4 ...1 B..4
....|..|--- .... ....|--- .... ....|--- .... B..3
....|..|--- ...2 ....|--- ...4 ....|--- ...2 B..4
....|..|--- .... ....|--- .... ....|--- .... B..3
....|..|--- ...3 ....|--- ...5 ....|--- ...3 B..4
....|..|--- .... ....|--- .... ....|--- .... B..3
....|..|--- ...4 ....|--- ...6 ....|--- ...4 B..4
....|..|--- .... ....|--- .... ....|--- .... B..3
....|..|--- ...5 ....|--- ...7 ....|--- ...5 B..4
....|..|--- .... ....|--- .... ....|--- .... B..3
....|..|--- ...6 ....|--- ...8 ....|--- ...6 B..4
....|..|--- .... ....|--- .... ....|--- .... B..3
....|..|--- ...7 ....|--- ...9 ....|--- ...7 B..4
....|..|--- .... ....|--- .... ....|--- .... B..3
....|..|--- .... ....|--- .... ....|--- .... B..4
....|..|--- .... ....|--- .... ....|--- .... B..3
....|..|--- .... ....|--- .... ....|--- .... B..4
....|..|--- .... ....|--- .... ....|--- .... B..3
....|..|--- ...6 ....|--- ...8 ....|--- ...6 B..4
....|..|--- .... ....|--- .... ....|--- .... B..3
....|..|--- ...5 ....|--- ...7 ....|--- ...5 B..4
....|..|--- .... ....|--- .... ....|--- .... B..3
....|..|--- ...3 ....|--- ...6 ....|--- ...3 B..4
....|..|--- .... ....|--- .... ....|--- .... B..3
....|..|B-4 ...1 31.1|D#5 ...3 31.1|G#4 ...1 B..4
....|..|--- .... ....|--- .... ....|--- .... B..3
....|..|--- ...2 ....|--- ...4 ....|--- ...2 B..4
....|..|--- .... ....|--- .... ....|--- .... B..3
....|..|--- ...3 ....|--- ...5 ....|--- ...3 B..4
....|..|--- .... ....|--- .... ....|--- .... B..3
....|..|--- ...4 ....|--- ...6 ....|--- ...4 B..4
....|..|--- .... ....|--- .... ....|--- .... B..3
....|..|--- ...5 ....|--- ...7 ....|--- ...5 B..4
....|..|--- .... ....|--- .... ....|--- .... B..3
....|..|--- ...6 ....|--- ...8 ....|--- ...6 B..4
....|..|--- .... ....|--- .... ....|--- .... B..3
....|..|--- ...7 ....|--- ...9 ....|--- ...7 B..4
....|..|--- .... ....|--- .... ....|--- .... B..3
....|..|--- .... ....|--- .... ....|--- .... B..4
....|..|--- .... ....|--- .... ....|--- .... B..3
....|..|--- .... ....|--- .... ....|--- .... B..4
....|..|--- .... ....|--- .... ....|--- .... B..3
....|..|--- ...6 ....|--- ...8 ....|--- ...6 B..4
....|..|--- .... ....|--- .... ....|--- .... B..3
....|..|--- ...5 ....|--- ...7 ....|--- ...5 B..4
....|..|--- .... ....|--- .... ....|--- .... B..3
....|..|--- ...3 ....|--- ...6 ....|--- ...3 B..4
....|..|--- .... ....|--- .... ....|--- .... B..3
....|..|B-4 ...1 ....|D-5 ...3 31.1|G-4 ...1 B..4
....|..|--- .... ....|--- .... ....|--- .... B..3
....|..|--- ...2 ....|--- ...4 ....|--- ...2 B..4
....|..|--- .... ....|--- .... ....|--- .... B..3
....|..|--- ...3 ....|--- ...5 ....|--- ...3 B..4
....|..|--- .... ....|--- .... ....|--- .... B..3
....|..|--- ...4 ....|--- ...6 ....|--- ...4 B..4
....|..|--- .... ....|--- .... ....|--- .... B..3
....|..|--- ...5 ....|--- ...7 ....|--- ...5 B..4
....|..|--- .... ....|--- .... ....|--- .... B..3
....|..|--- ...6 ....|--- ...8 ....|--- ...6 B..4
....|..|--- .... ....|--- .... ....|--- .... B..3
....|..|--- ...7 ....|--- ...9 ....|--- ...7 B..4
....|..|--- .... ....|--- .... ....|--- .... B..3
....|..|--- .... ....|--- .... ....|--- .... B..4
....|..|--- .... ....|--- .... ....|--- .... B..3
....|..|--- .... ....|--- .... ....|--- .... B..4
....|..|--- .... ....|--- .... ....|--- .... B..3
....|..|--- ...6 ....|--- ...8 ....|--- ...6 B..4
....|..|--- .... ....|--- .... ....|--- .... B..3
....|..|--- ...5 ....|--- ...7 ....|--- ...5 B..4
....|..|--- .... ....|--- .... ....|--- .... B..3
....|..|--- ...3 ....|--- ...6 ....|--- ...3 B..4
....|..|--- .... ....|--- .... ....|--- .... B..3
....|..|--- .... ....|--- .... ....|--- .... B..4
....|..|--- .... ....|--- .... ....|--- .... B..3
....|..|--- .... ....|--- ...5 ....|--- .... B..4
....|..|--- .... ....|--- .... ....|--- .... B..3
....|..|--- .... ....|--- .... ....|--- .... B..4
....|..|--- .... ....|--- .... ....|--- .... B..3
....|..|--- ...2 ....|--- ...4 ....|--- ...2 B..4
....|..|--- .... ....|--- .... ....|--- .... B..3
....|..|--- .... ....|--- .... ....|--- .... B..4
....|..|--- .... ....|--- .... ....|--- .... B..3
....|..|--- .... ....|--- ...3 ....|--- .... B..4
....|..|--- .... ....|--- .... ....|--- .... B..3
....|..|--- .... ....|--- .... ....|--- .... B..4
....|..|--- .... ....|--- .... ....|--- .... B..3
....|..|--- .... ....|--- ...2 ....|--- .... B..4
....|..|--- .... ....|--- .... ....|--- .... B..3
....|..|--- ...1 ....|--- .... ....|--- ...1 B..4
....|..|--- .... ....|--- .... ....|--- .... B..3
....|..|--- .... ....|--- ...1 ....|--- .... B..4
....|..|--- .... ....|--- .... ....|--- .... B..3
....|..|--- .... ....|--- .... ....|--- .... B..4
....|..|--- .... ....|--- .... ....|--- .... B..3
....|..|--- .... ....|--- .... ....|--- .... B..4
....|..|--- .... ....|--- .... ....|--- .... B..3

[Pattern2]
....|..|--- .... ....|F-5 2.FF ....|--- .... B..4
....|..|--- .... ....|--- .... ....|--- .... B..3
....|..|F-5 9.FF ....|--- .... ....|--- .... B..4
....|..|--- .... ....|--- .... ....|--- .... B..3
....|..|--- .... ....|--- .... ....|F-5 9.FF B..4
....|..|--- .... ....|--- .... ....|--- .... B..3
....|..|--- .... ....|--- .... ....|--- .... B..4
....|..|--- .... ....|--- .... ....|--- .... B..3
....|..|--- .... ....|--- ...B ....|--- .... B..4
....|..|--- .... ....|--- .... ....|--- .... B..3
....|..|--- ...B ....|--- .... ....|--- .... B..4
....|..|--- .... ....|--- .... ....|--- .... B..3
....|..|--- .... ....|F-5 ..EF ....|--- ...B B..4
....|..|--- .... ....|--- .... ....|--- .... B..3
....|..|F-5 ..EF ....|--- .... ....|--- .... B..4
....|..|--- .... ....|--- .... ....|--- .... B..3
....|..|--- .... ....|--- ...B ....|F-5 ..EF B..4
....|..|--- .... ....|--- .... ....|--- .... B..3
....|..|--- ...B ....|--- .... ....|--- .... B..4
....|..|--- .... ....|--- .... ....|--- .... B..3
....|..|--- .... ....|C#5 ..FF ....|--- ...B B..4
....|..|--- .... ....|--- .... ....|--- .... B..3
....|..|C#5 ..FF ....|--- .... ....|--- .... B..4
....|..|--- .... ....|--- .... ....|--- .... B..3
....|..|--- .... ....|D#5 .... ....|C#5 ..FF B..4
....|..|--- .... ....|--- .... ....|--- .... B..3
....|..|D#5 .... ....|--- .... ....|--- .... B..4
....|..|--- .... ....|--- .... ....|--- .... B..3
....|..|--- .... ....|C#5 ...9 ....|D#5 .... B..4
....|..|--- .... ....|--- .... ....|--- .... B..3
....|..|C#5 ...9 ....|D#5 .... ....|--- .... B..4
....|..|--- .... ....|--- .... ....|--- .... B..3
....|..|D#5 .... ....|F-5 ...F ....|C#5 ...9 B..4
....|..|--- .... ....|--- .... ....|--- .... B..3
....|..|F-5 ...F ....|--- .... ....|D#5 .... B..4
....|..|--- .... ....|--- .... ....|--- .... B..3
....|..|--- .... ....|D#5 ...9 ....|F-5 ...F B..4
....|..|--- .... ....|--- .... ....|--- .... B..3
....|..|D#5 ...9 ....|F-5 .... ....|--- .... B..4
....|..|--- .... ....|--- .... ....|--- .... B..3
....|..|F-5 .... ....|C-5 ..EF ....|D#5 ...9 B..4
....|..|--- .... ....|--- .... ....|--- .... B..3
....|..|C-5 ..EF ....|--- .... ....|F-5 .... B..4
....|..|--- .... ....|--- .... ....|--- .... B..3
....|..|--- .... ....|C-5 B.F. ....|C-5 ..EF B..4
....|..|--- .... ....|--- .... ....|--- .... B..3
....|..|C-5 A.F. ....|--- .... ....|--- .... B..4
....|..|--- .... ....|--- .... ....|--- .... B..3
....|..|--- .... ....|--- ...9 ....|C-5 A.F. B..4
....|..|--- .... ....|--- .... ....|--- .... B..3
....|..|--- ...9 ....|--- .... ....|--- .... B..4
....|..|--- .... ....|--- .... ....|--- .... B..3
....|..|--- .... ....|C-5 2.E. ....|--- ...9 B..4
....|..|--- .... ....|--- .... ....|--- .... B..3
....|..|C-5 9.E. ....|--- .... ....|--- .... B..4
....|..|--- .... ....|--- .... ....|--- .... B..3
....|..|--- .... ....|C-5 B.F. ....|C-5 9.E. B..4
....|..|--- .... ....|--- .... ....|--- .... B..3
....|..|C-5 A.F. ....|--- .... ....|--- .... B..4
....|..|--- .... ....|--- .... ....|--- .... B..3
....|..|--- .... ....|D#5 2..F ....|C-5 A.F. B..4
....|..|--- .... ....|--- .... ....|--- .... B..3
....|..|D#5 9..F ....|--- .... ....|--- .... B..4
....|..|--- .... ....|--- .... ....|--- .... B..3
....|..|--- .... ....|C-5 ...9 ....|D#5 9..F B..4
....|..|--- .... ....|--- .... ....|--- .... B..3
....|..|C-5 ...9 ....|--- .... ....|--- .... B..4
....|..|--- .... ....|--- .... ....|--- .... B..3
....|..|--- .... ....|F-5 ...F ....|C-5 ...9 B..4
....|..|--- .... ....|--- .... ....|--- .... B..3
....|..|F-5 ...F ....|--- .... ....|--- .... B..4
....|..|--- .... ....|--- .... ....|--- .... B..3
....|..|--- .... ....|C#5 ..E. ....|F-5 ...F B..4
....|..|--- .... ....|--- .... ....|--- .... B..3
....|..|C#5 ..E. ....|--- .... ....|--- .... B..4
....|..|--- .... ....|--- .... ....|--- .... B..3
....|..|--- .... ....|--- .... 15.7|C#5 ..E. B..4
....|..|--- .... ....|--- .... ....|--- .... B..3
....|..|--- .... 15.7|--- .... ....|--- .... B..4
....|..|--- .... ....|--- .... ....|--- .... B..3
....|..|--- .... ....|A#4 ..F. ....|--- .... B..4
....|..|--- .... ....|--- .... ....|--- .... B..3
....|..|A#4 ..F. ....|C#5 ...9 ....|--- .... B..4
....|..|--- .... ....|--- .... ....|--- .... B..3
....|..|C#5 ...9 ....|--- .... ....|A#4 ..F. B..4
....|..|--- .... ....|--- .... ....|--- .... B..3
....|..|--- .... ....|A#4 .... ....|C#5 ...9 B..4
....|..|--- .... ....|--- .... ....|--- .... B..3
....|..|A#4 .... ....|F-4 ...F ....|--- .... B..4
....|..|--- .... ....|--- .... ....|--- .... B..3
....|..|F-4 ...F ....|G#4 .... ....|A#4 .... B..4
....|..|--- .... ....|--- .... ....|--- .... B..3
....|..|G#4 .... ....|A#4 ..E. ....|F-4 ...F B..4
....|..|--- .... ....|--- .... ....|--- .... B..3
....|..|A#4 ..E. ....|C-5 ..F. ....|G#4 .... B..4
....|..|--- .... ....|--- .... ....|--- .... B..3

[Pattern3]
....|..|C-5 ..F. ....|E-5 .... ....|A#4 ..E. B..4
....|..|--- .... ....|--- .... ....|--- .... B..3
....|..|E-5 .... ....|--- .... ....|C-5 ..F. B..4
....|..|--- .... ....|--- .... ....|--- .... B..3
....|..|--- .... ....|E-5 B.F. ....|E-5 .... B..4
....|..|--- .... ....|--- .... ....|--- .... B..3
....|..|E-5 A... ....|--- .... ....|--- .... B..4
....|..|--- .... ....|--- .... ....|--- .... B..3
....|..|--- .... ....|E-5 2..9 ....|E-5 A... B..4
....|..|--- .... ....|--- .... ....|--- .... B..3
....|..|E-5 9..9 ....|--- .... ....|--- .... B..4
....|..|--- .... ....|--- .... ....|--- .... B..3
....|..|--- .... ....|E-5 ..EF ....|E-5 9..9 B..4
....|..|--- .... ....|--- .... ....|--- .... B..3
....|..|E-5 ..EF ....|--- .... ....|--- .... B..4
....|..|--- .... ....|--- .... ....|--- .... B..3
....|..|--- .... ....|C#5 ..F. ....|E-5 ..EF B..4
....|..|--- .... ....|--- .... ....|--- .... B..3
....|..|C#5 ..F. ....|E-5 ...B ....|--- .... B..4
....|..|--- .... ....|--- .... ....|--- .... B..3
....|..|E-5 ...B ....|E-5 ...F ....|C#5 ..F. B..4
....|..|--- .... ....|--- .... ....|--- .... B..3
....|..|E-5 ...F ....|C#5 ...B ....|E-5 ...B B..4
....|..|--- .... ....|--- .... ....|--- .... B..3
....|..|C#5 ...B ....|F#5 ...F ....|E-5 ...F B..4
....|..|--- .... ....|--- .... ....|--- .... B..3
....|..|F#5 ...F ....|--- .... ....|C#5 ...B B..4
....|..|--- .... ....|--- .... ....|--- .... B..3
....|..|--- .... ....|--- .... ....|F#5 ...F B..4
....|..|--- .... ....|--- .... ....|--- .... B..3
....|..|--- .... ....|--- .... ....|--- .... B..4
....|..|--- .... ....|--- .... ....|--- .... B..3
....|..|--- .... ....|--- ...B 15.9|--- .... B..4
....|..|--- .... ....|--- .... ....|--- .... B..3
....|..|--- ...B 15.9|--- .... ....|--- .... B..4
....|..|--- .... ....|--- .... ....|--- .... B..3
....|..|--- .... ....|B-4 ...F ....|--- ...B B..4
....|..|--- .... ....|--- .... ....|--- .... B..3
....|..|B-4 ...F ....|--- .... ....|--- .... B..4
....|..|--- .... ....|--- .... ....|--- .... B..3
....|..|--- .... ....|F#5 ...9 ....|B-4 ...F B..4
....|..|--- .... ....|--- .... ....|--- .... B..3
....|..|F#5 ...9 ....|--- .... ....|--- .... B..4
....|..|--- .... ....|--- .... ....|--- .... B..3
....|..|--- .... ....|B-4 ...7 ....|F#5 ...9 B..4
....|..|--- .... ....|--- .... ....|--- .... B..3
....|..|B-4 ...7 ....|--- .... ....|--- .... B..4
....|..|--- .... ....|--- .... ....|--- .... B..3
....|..|--- .... ....|G-5 ..EF ....|B-4 ...7 B..4
....|..|--- .... ....|--- .... ....|--- .... B..3
....|..|G-5 ..EF ....|--- .... ....|--- .... B..4
....|..|--- .... ....|--- .... ....|--- .... B..3
....|..|--- .... ....|--- .... ....|G-5 ..EF B..4
....|..|--- .... ....|--- .... ....|--- .... B..3
....|..|--- .... ....|F#5 ..F. ....|--- .... B..4
....|..|--- .... ....|--- .... ....|--- .... B..3
....|..|F#5 ..F. ....|G-5 ...9 ....|--- .... B..4
....|..|--- .... ....|--- .... ....|--- .... B..3
....|..|G-5 ...9 ....|F#5 .... ....|F#5 ..F. B..4
....|..|--- .... ....|--- .... ....|--- .... B..3
....|..|F#5 .... ....|E-5 ..EF ....|G-5 ...9 B..4
....|..|--- .... ....|--- .... ....|--- .... B..3
....|..|E-5 ..EF ....|F#5 ..F. ....|F#5 .... B..4
....|..|--- .... ....|--- .... ....|--- .... B..3
....|..|F#5 ..F. ....|G-5 .... ....|E-5 ..EF B..4
....|..|--- .... ....|--- .... ....|--- .... B..3
....|..|G-5 .... ....|F#5 ...B ....|F#5 ..F. B..4
....|..|--- .... ....|--- .... ....|--- .... B..3
....|..|F#5 ...B ....|D-5 ...F ....|G-5 .... B..4
....|..|--- .... ....|--- .... ....|--- .... B..3
....|..|D-5 ...F ....|G-5 ...B ....|F#5 ...B B..4
....|..|--- .... ....|--- .... ....|--- .... B..3
....|..|G-5 ...B ....|E-5 ..EF ....|D-5 ...F B..4
....|..|--- .... ....|--- .... ....|--- .... B..3
....|..|E-5 ..EF ....|--- .... ....|G-5 ...B B..4
....|..|--- .... ....|--- .... ....|--- .... B..3
....|..|--- .... ....|--- .... ....|E-5 ..EF B..4
....|..|--- .... ....|--- .... ....|--- .... B..3
....|..|--- .... ....|D-5 ..F. ....|--- .... B..4
....|..|--- .... ....|--- .... ....|--- .... B..3
....|..|D-5 ..F. ....|E-5 ...9 ....|--- .... B..4
....|..|--- .... ....|--- .... ....|--- .... B..3
....|..|E-5 ...9 ....|D-5 .... ....|D-5 ..F. B..4
....|..|--- .... ....|--- .... ....|--- .... B..3
....|..|D-5 .... ....|C#5 ..EF ....|E-5 ...9 B..4
....|..|--- .... ....|--- .... ....|--- .... B..3
....|..|C#5 ..EF ....|D-5 ..F. ....|D-5 .... B..4
....|..|--- .... ....|--- .... ....|--- .... B..3
....|..|D-5 ..F. ....|E-5 .... ....|C#5 ..EF B..4
....|..|--- .... ....|--- .... ....|--- .... B..3
....|..|E-5 .... ....|D-5 ...B ....|D-5 ..F. B..4
....|..|--- .... ....|--- .... ....|--- .... B..3
....|..|D-5 ...B ....|A-4 ...F ....|E-5 .... B..4
....|..|--- .... ....|--- .... ....|--- .... B..3
....|..|A-4 ...F ....|E-5 ...B ....|D-5 ...B B..4
....|..|--- .... ....|--- .... ....|--- .... B..3

[Pattern4]
....|..|E-5 ...B ....|B-4 ...F ....|A-4 ...F B..4
....|..|--- .... ....|--- .... ....|--- .... B..3
....|..|B-4 ...F ....|--- .... ....|E-5 ...B B..4
....|..|--- .... ....|--- .... ....|--- .... B..3
....|..|--- .... ....|--- .... ....|B-4 ...F B..4
....|..|--- .... ....|--- .... ....|--- .... B..3
....|..|--- .... ....|--- .... ....|--- .... B..4
....|..|--- .... ....|--- .... ....|--- .... B..3
....|..|--- .... ....|--- ...7 ....|--- .... B..4
....|..|--- .... ....|--- .... ....|--- .... B..3
....|..|--- ...7 ....|--- .... ....|--- .... B..4
....|..|--- .... ....|--- .... ....|--- .... B..3
....|..|--- .... ....|--- ...A ....|--- ...7 B..4
....|..|--- .... ....|--- .... ....|--- .... B..3
....|..|--- ...A ....|--- .... ....|--- .... B..4
....|..|--- .... ....|--- .... ....|--- .... B..3
....|..|--- .... ....|--- .... ....|--- ...A B..4
....|..|--- .... ....|--- .... ....|--- .... B..3
....|..|--- .... ....|--- .... ....|--- .... B..4
....|..|--- .... ....|--- .... ....|--- .... B..3
....|..|--- .... ....|--- ...5 ....|--- .... B..4
....|..|--- .... ....|--- .... ....|--- .... B..3
....|..|--- ...5 ....|--- .... ....|--- .... B..4
....|..|--- .... ....|--- .... ....|--- .... B..3
....|..|--- .... ....|C#5 ..EF ....|--- ...5 B..4
....|..|--- .... ....|--- .... ....|--- .... B..3
....|..|C#5 ..EF ....|D-5 ..F. ....|--- .... B..4
....|..|--- .... ....|--- .... ....|--- .... B..3
....|..|D-5 ..F. ....|E-5 .... ....|C#5 ..EF B..4
....|..|--- .... ....|--- .... ....|--- .... B..3
....|..|E-5 .... ....|--- .... ....|D-5 ..F. B..4
....|..|--- .... ....|--- .... ....|--- .... B..3
....|..|--- .... ....|--- .... ....|E-5 .... B..4
....|..|--- .... ....|--- .... ....|--- .... B..3
....|..|--- .... ....|--- .... ....|--- .... B..4
....|..|--- .... ....|--- .... ....|--- .... B..3
....|..|--- .... ....|--- ...B ....|--- .... B..4
....|..|--- .... ....|--- .... ....|--- .... B..3
....|..|--- ...B ....|--- .... ....|--- .... B..4
....|..|--- .... ....|--- .... ....|--- .... B..3
....|..|--- .... ....|A-5 ...F ....|--- ...B B..4
....|..|--- .... ....|--- .... ....|--- .... B..3
....|..|A-5 ...F ....|--- .... ....|--- .... B..4
....|..|--- .... ....|--- .... ....|--- .... B..3
....|..|--- .... ....|E-5 ...9 ....|A-5 ...F B..4
....|..|--- .... ....|--- .... ....|--- .... B..3
....|..|E-5 ...9 ....|A-5 .... ....|--- .... B..4
....|..|--- .... ....|--- .... ....|--- .... B..3
....|..|A-5 .... ....|F#5 ..EF ....|E-5 ...9 B..4
....|..|--- .... ....|--- .... ....|--- .... B..3
....|..|F#5 ..EF ....|--- .... ....|A-5 .... B..4
....|..|--- .... ....|--- .... ....|--- .... B..3
....|..|--- .... ....|--- .... ....|F#5 ..EF B..4
....|..|--- .... ....|--- .... ....|--- .... B..3
....|..|--- .... ....|--- .... ....|--- .... B..4
....|..|--- .... ....|--- .... ....|--- .... B..3
....|..|--- .... ....|--- ...7 ....|--- .... B..4
....|..|--- .... ....|--- .... ....|--- .... B..3
....|..|--- ...7 ....|--- .... ....|--- .... B..4
....|..|--- .... ....|--- .... ....|--- .... B..3
....|..|--- .... ....|--- ...8 ....|--- ...7 B..4
....|..|--- .... ....|--- .... ....|--- .... B..3
....|..|--- ...8 ....|--- .... ....|--- .... B..4
....|..|--- .... ....|--- .... ....|--- .... B..3
....|..|--- .... ....|--- ...9 ....|--- ...8 B..4
....|..|--- .... ....|--- .... ....|--- .... B..3
....|..|--- ...9 ....|--- .... ....|--- .... B..4
....|..|--- .... ....|--- .... ....|--- .... B..3
....|..|--- .... ....|--- ...5 ....|--- ...9 B..4
....|..|--- .... ....|--- .... ....|--- .... B..3
....|..|--- ...5 ....|--- .... ....|--- .... B..4
....|..|--- .... ....|--- .... ....|--- .... B..3
....|..|--- .... ....|--- ...6 ....|--- ...5 B..4
....|..|--- .... ....|--- .... ....|--- .... B..3
....|..|--- ...6 ....|--- .... ....|--- .... B..4
....|..|--- .... ....|--- .... ....|--- .... B..3
....|..|--- .... ....|--- ...7 ....|--- ...6 B..4
....|..|--- .... ....|--- .... ....|--- .... B..3
....|..|--- ...7 ....|--- .... ....|--- .... B..4
....|..|--- .... ....|--- .... ....|--- .... B..3
....|..|--- .... ....|--- ...3 ....|--- ...7 B..4
....|..|--- .... ....|--- .... ....|--- .... B..3
....|..|--- ...3 ....|--- .... ....|--- .... B..4
....|..|--- .... ....|--- .... ....|--- .... B..3
....|..|--- .... ....|--- ...4 ....|--- ...3 B..4
....|..|--- .... ....|--- .... ....|--- .... B..3
....|..|--- ...4 ....|--- .... ....|--- .... B..4
....|..|--- .... ....|--- .... ....|--- .... B..3
....|..|--- .... ....|--- ...5 ....|--- ...4 B..4
....|..|--- .... ....|--- .... ....|--- .... B..3
....|..|--- ...5 ....|--- .... ....|--- .... B..4
....|..|--- .... ....|--- .... ....|--- .... B..3
....|..|--- .... ....|--- ...1 ....|--- ...5 B..4
....|..|--- .... ....|--- .... ....|--- .... B..3
....|..|--- ...1 ....|--- .... ....|--- .... B..4
....|..|--- .... ....|--- .... ....|--- .... B..3

[Pattern5]
....|..|--- .... ....|F-5 2.FF ....|F-6 9.FF B..4
....|..|--- .... ....|--- .... ....|--- .... B..3
....|..|F-5 9.FF ....|--- .... ....|--- .... B..4
....|..|--- .... ....|--- .... ....|--- .... B..3
....|..|--- .... ....|--- .... ....|--- .... B..4
....|..|--- .... ....|--- .... ....|--- .... B..3
....|..|--- .... ....|--- .... ....|--- .... B..4
....|..|--- .... ....|--- .... ....|--- .... B..3
....|..|--- .... ....|--- ...B ....|--- ...B B..4
....|..|--- .... ....|--- .... ....|--- .... B..3
....|..|--- ...B ....|--- .... ....|--- .... B..4
....|..|--- .... ....|--- .... ....|--- .... B..3
....|..|--- .... ....|F-5 ..EF ....|F-6 ..EF B..4
....|..|--- .... ....|--- .... ....|--- .... B..3
....|..|F-5 ..EF ....|--- .... ....|--- .... B..4
....|..|--- .... ....|--- .... ....|--- .... B..3
....|..|--- .... ....|--- ...B ....|--- ...B B..4
....|..|--- .... ....|--- .... ....|--- .... B..3
....|..|--- ...B ....|--- .... ....|--- .... B..4
....|..|--- .... ....|--- .... ....|--- .... B..3
....|..|--- .... ....|C#5 ..FF ....|C#6 ..FF B..4
....|..|--- .... ....|--- .... ....|--- .... B..3
....|..|C#5 ..FF ....|--- .... ....|--- .... B..4
....|..|--- .... ....|--- .... ....|--- .... B..3
....|..|--- .... ....|D#5 .... ....|D#6 .... B..4
....|..|--- .... ....|--- .... ....|--- .... B..3
....|..|D#5 .... ....|--- .... ....|--- .... B..4
....|..|--- .... ....|--- .... ....|--- .... B..3
....|..|--- .... ....|C#5 ...A ....|C#6 ...A B..4
....|..|--- .... ....|--- .... ....|--- .... B..3
....|..|C#5 ...A ....|D#5 .... ....|D#6 .... B..4
....|..|--- .... ....|--- .... ....|--- .... B..3
....|..|D#5 .... ....|F-5 ...F ....|F-6 ...F B..4
....|..|--- .... ....|--- .... ....|--- .... B..3
....|..|F-5 ...F ....|--- .... ....|--- .... B..4
....|..|--- .... ....|--- .... ....|--- .... B..3
....|..|--- .... ....|D#5 ...A ....|D#6 ...A B..4
....|..|--- .... ....|--- .... ....|--- .... B..3
....|..|D#5 ...A ....|F-5 .... ....|F-6 .... B..4
....|..|--- .... ....|--- .... ....|--- .... B..3
....|..|F-5 .... ....|C-5 ..EF ....|C-6 ..EF B..4
....|..|--- .... ....|--- .... ....|--- .... B..3
....|..|C-5 ..EF ....|--- .... ....|--- .... B..4
....|..|--- .... ....|--- .... ....|--- .... B..3
....|..|--- .... ....|C-5 B.F. ....|C-6 A.F. B..4
....|..|--- .... ....|--- .... ....|--- .... B..3
....|..|C-5 A.F. ....|--- .... ....|--- .... B..4
....|..|--- .... ....|--- .... ....|--- .... B..3
....|..|--- .... ....|--- ...9 ....|--- ...9 B..4
....|..|--- .... ....|--- .... ....|--- .... B..3
....|..|--- ...9 ....|--- .... ....|--- .... B..4
....|..|--- .... ....|--- .... ....|--- .... B..3
....|..|--- .... ....|--- .... ....|--- .... B..4
....|..|--- .... ....|--- .... ....|--- .... B..3
....|..|--- .... ....|--- .... ....|--- .... B..4
....|..|--- .... ....|--- .... ....|--- .... B..3
....|..|--- .... ....|--- ...7 ....|--- ...7 B..4
....|..|--- .... ....|--- .... ....|--- .... B..3
....|..|--- ...7 ....|--- .... ....|--- .... B..4
....|..|--- .... ....|--- .... ....|--- .... B..3
....|..|--- .... ....|D#5 2..F ....|D#6 9..F B..4
....|..|--- .... ....|--- .... ....|--- .... B..3
....|..|D#5 9..F ....|--- .... ....|--- .... B..4
....|..|--- .... ....|--- .... ....|--- .... B..3
....|..|--- .... ....|C-5 ...A ....|C-6 ...A B..4
....|..|--- .... ....|--- .... ....|--- .... B..3
....|..|C-5 ...A ....|--- .... ....|--- .... B..4
....|..|--- .... ....|--- .... ....|--- .... B..3
....|..|--- .... ....|F-5 ...F ....|F-6 ...F B..4
....|..|--- .... ....|--- .... ....|--- .... B..3
....|..|F-5 ...F ....|--- .... ....|--- .... B..4
....|..|--- .... ....|--- .... ....|--- .... B..3
....|..|--- .... ....|C#5 ..E. ....|C#6 ..E. B..4
....|..|--- .... ....|--- .... ....|--- .... B..3
....|..|C#5 ..E. ....|--- .... ....|--- .... B..4
....|..|--- .... ....|--- .... ....|--- .... B..3
....|..|--- .... ....|--- .... ....|--- .... B..4
....|..|--- .... ....|--- .... ....|--- .... B..3
....|..|--- .... ....|--- .... ....|--- .... B..4
....|..|--- .... ....|--- .... ....|--- .... B..3
....|..|--- .... ....|A#4 ..F. ....|A#5 ..F. B..4
....|..|--- .... ....|--- .... ....|--- .... B..3
....|..|A#4 ..F. ....|C#5 ...A ....|C#6 ...A B..4
....|..|--- .... ....|--- .... ....|--- .... B..3
....|..|C#5 ...A ....|--- .... ....|--- .... B..4
....|..|--- .... ....|--- .... ....|--- .... B..3
....|..|--- .... ....|A#4 .... ....|A#5 .... B..4
....|..|--- .... ....|--- .... ....|--- .... B..3
....|..|A#4 .... ....|F-4 ...F ....|C-4 2... B..4
....|..|--- .... ....|--- .... ....|--- .... B..3
....|..|F-4 ...F ....|G#4 .... ....|D#4 ...B B..4
....|..|--- .... ....|--- .... ....|--- .... B..3
....|..|G#4 .... ....|A#4 ..E. ....|F-4 ..EC B..4
....|..|--- .... ....|--- .... ....|--- .... B..3
....|..|A#4 ..E. ....|C-5 ..F. ....|G#4 ..FD B..4
....|..|--- .... ....|--- .... ....|--- .... B..3

[Pattern6]
....|..|C-5 ..F. ....|E-5 .... ....|E-6 9..F B..4
....|..|--- .... ....|--- .... ....|--- .... B..3
....|..|E-5 9... ....|--- .... ....|--- .... B..4
....|..|--- .... ....|--- .... ....|--- .... B..3
....|..|--- .... ....|E-5 B... ....|E-6 A... B..4
....|..|--- .... ....|--- .... ....|--- .... B..3
....|..|E-5 A... ....|--- .... ....|--- .... B..4
....|..|--- .... ....|--- .... ....|--- .... B..3
....|..|--- .... ....|E-5 2..A ....|E-6 9..9 B..4
....|..|--- .... ....|--- .... ....|--- .... B..3
....|..|E-5 9..A ....|--- .... ....|--- .... B..4
....|..|--- .... ....|--- .... ....|--- .... B..3
....|..|--- .... ....|E-5 B... ....|E-6 A... B..4
....|..|--- .... ....|--- .... ....|--- .... B..3
....|..|E-5 A... ....|--- .... ....|--- .... B..4
....|..|--- .... ....|--- .... ....|--- .... B..3
....|..|--- .... ....|A-4 2..F ....|C#4 2..A B..4
....|..|--- .... ....|--- .... ....|--- .... B..3
....|..|A-4 9..F ....|B-4 .... ....|F#4 ...B B..4
....|..|--- .... ....|--- .... ....|--- .... B..3
....|..|B-4 .... ....|C#5 ..E. ....|A-4 ..EC B..4
....|..|--- .... ....|--- .... ....|--- .... B..3
....|..|C#5 ..E. ....|D#5 ..F. ....|B-4 ..FD B..4
....|..|--- .... ....|--- .... ....|--- .... B..3
....|..|D#5 ..F. ....|F#5 .... ....|D#5 .... B..4
....|..|--- .... ....|--- .... ....|--- .... B..3
....|..|F#5 .... ....|--- .... ....|--- .... B..4
....|..|--- .... ....|--- .... ....|--- .... B..3
....|..|--- .... ....|--- .... ....|--- .... B..4
....|..|--- .... ....|--- .... ....|--- .... B..3
....|..|--- .... ....|--- .... ....|--- .... B..4
....|..|--- .... ....|--- .... ....|--- .... B..3
....|..|--- .... ....|--- ...B 15.9|--- ...9 B..4
....|..|--- .... ....|--- .... ....|--- .... B..3
....|..|--- ...B 15.9|--- .... ....|--- .... B..4
....|..|--- .... ....|--- .... ....|--- .... B..3
....|..|--- .... ....|--- .... ....|--- .... B..4
....|..|--- .... ....|--- .... ....|--- .... B..3
....|..|--- .... ....|--- .... ....|--- .... B..4
....|..|--- .... ....|--- .... ....|--- .... B..3
....|..|--- .... ....|B-4 ..EF ....|F#4 ..EA B..4
....|..|--- .... ....|--- .... ....|--- .... B..3
....|..|B-4 ..EF ....|C#5 ..D. ....|G#4 ..FB B..4
....|..|--- .... ....|--- .... ....|--- .... B..3
....|..|C#5 ..F. ....|D-5 .... ....|A-4 ...C B..4
....|..|--- .... ....|--- .... ....|--- .... B..3
....|..|D-5 .... ....|E-5 .... ....|B-4 ...D B..4
....|..|--- .... ....|--- .... ....|--- .... B..3
....|..|E-5 .... ....|G-5 .... ....|E-5 9..F B..4
....|..|--- .... ....|--- .... ....|--- .... B..3
....|..|G-5 .... ....|--- .... ....|--- .... B..4
....|..|--- .... ....|--- .... ....|--- .... B..3
....|..|--- .... ....|--- .... ....|--- .... B..4
....|..|--- .... ....|--- .... ....|--- .... B..3
....|..|--- .... ....|F#5 .... ....|D-5 .... B..4
....|..|--- .... ....|--- .... ....|--- .... B..3
....|..|F#5 .... ....|G-5 ...A ....|E-5 ...9 B..4
....|..|--- .... ....|--- .... ....|--- .... B..3
....|..|G-5 ...A ....|F#5 .... ....|D-5 .... B..4
....|..|--- .... ....|--- .... ....|--- .... B..3
....|..|F#5 .... ....|E-5 ..EF ....|B-4 ..EE B..4
....|..|--- .... ....|--- .... ....|--- .... B..3
....|..|E-5 ..EF ....|F#5 ..F. ....|D-5 ..F. B..4
....|..|--- .... ....|--- .... ....|--- .... B..3
....|..|F#5 ..F. ....|G-5 .... ....|E-5 .... B..4
....|..|--- .... ....|--- .... ....|--- .... B..3
....|..|G-5 .... ....|F#5 ...A ....|D-5 ...9 B..4
....|..|--- .... ....|--- .... ....|--- .... B..3
....|..|F#5 ...A ....|D-5 ...F ....|B-4 ...E B..4
....|..|--- .... ....|--- .... ....|--- .... B..3
....|..|D-5 ...F ....|G-5 ...A ....|E-5 ...9 B..4
....|..|--- .... ....|--- .... ....|--- .... B..3
....|..|G-5 ...A ....|E-5 ..DF ....|C#5 ...E B..4
....|..|--- .... ....|--- .... ....|--- .... B..3
....|..|E-5 ...F ....|--- .... ....|--- .... B..4
....|..|--- .... ....|--- .... ....|--- .... B..3
....|..|--- .... ....|--- .... ....|--- .... B..4
....|..|--- .... ....|--- .... ....|--- .... B..3
....|..|--- .... ....|D-5 .... ....|B-4 .... B..4
....|..|--- .... ....|--- .... ....|--- .... B..3
....|..|D-5 .... ....|E-5 ...A ....|C#5 ...9 B..4
....|..|--- .... ....|--- .... ....|--- .... B..3
....|..|E-5 ...A ....|D-5 .... ....|B-4 .... B..4
....|..|--- .... ....|--- .... ....|--- .... B..3
....|..|D-5 .... ....|C#5 ..EF ....|A-4 ..EE B..4
....|..|--- .... ....|--- .... ....|--- .... B..3
....|..|C#5 ..EF ....|D-5 ..F. ....|B-4 ..F. B..4
....|..|--- .... ....|--- .... ....|--- .... B..3
....|..|D-5 ..F. ....|E-5 .... ....|C#5 .... B..4
....|..|--- .... ....|--- .... ....|--- .... B..3
....|..|E-5 .... ....|D-5 ...A ....|B-4 ...9 B..4
....|..|--- .... ....|--- .... ....|--- .... B..3
....|..|D-5 ...A ....|A-4 ...F ....|F#4 ...E B..4
....|..|--- .... ....|--- .... ....|--- .... B..3
....|..|A-4 ...F ....|E-5 ...A ....|C#5 ...9 B..4
....|..|--- .... ....|--- .... ....|--- .... B..3

[Pattern7]
....|..|E-5 ...A ....|B-4 ...F ....|F#4 ...E B..4
....|..|--- .... ....|--- .... ....|--- .... B..3
....|..|B-4 ...F ....|--- .... ....|--- .... B..4
....|..|--- .... ....|--- .... ....|--- .... B..3
....|..|--- .... ....|--- .... ....|--- .... B..4
....|..|--- .... ....|--- .... ....|--- .... B..3
....|..|--- .... ....|--- .... ....|--- .... B..4
....|..|--- .... ....|--- .... ....|--- .... B..3
....|..|--- .... ....|--- .... ....|--- .... B..4
....|..|--- .... ....|--- .... ....|--- .... B..3
....|..|--- .... ....|--- .... ....|--- .... B..4
....|..|--- .... ....|--- .... ....|--- .... B..3
....|..|--- .... ....|--- ...B ....|--- ...A B..4
....|..|--- .... ....|--- .... ....|--- .... B..3
....|..|--- ...B ....|--- .... ....|--- .... B..4
....|..|--- .... ....|--- .... ....|--- .... B..3
....|..|--- .... ....|--- .... ....|--- .... B..4
....|..|--- .... ....|--- .... ....|--- .... B..3
....|..|--- .... ....|--- .... ....|--- .... B..4
....|..|--- .... ....|--- .... ....|--- .... B..3
....|..|--- .... ....|--- ...9 ....|--- ...8 B..4
....|..|--- .... ....|--- .... ....|--- .... B..3
....|..|--- ...9 ....|--- .... ....|--- .... B..4
....|..|--- .... ....|--- .... ....|--- .... B..3
....|..|--- .... ....|C#5 2.DF ....|C#6 9.FF B..4
....|..|--- .... ....|--- .... ....|--- .... B..3
....|..|C#5 9.FF ....|D-5 .... ....|D-6 .... B..4
....|..|--- .... ....|--- .... ....|--- .... B..3
....|..|D-5 .... ....|E-5 .... ....|E-6 .... B..4
....|..|--- .... ....|--- .... ....|--- .... B..3
....|..|E-5 .... ....|--- .... ....|--- .... B..4
....|..|--- .... ....|--- .... ....|--- .... B..3
....|..|--- .... ....|--- .... ....|--- .... B..4
....|..|--- .... ....|--- .... ....|--- .... B..3
....|..|--- .... ....|--- .... ....|--- .... B..4
....|..|--- .... ....|--- .... ....|--- .... B..3
....|..|--- .... ....|--- ...B ....|--- ...B B..4
....|..|--- .... ....|--- .... ....|--- .... B..3
....|..|--- ...B ....|--- .... ....|--- .... B..4
....|..|--- .... ....|--- .... ....|--- .... B..3
....|..|--- .... ....|A-5 ...F ....|A-6 ...F B..4
....|..|--- .... ....|--- .... ....|--- .... B..3
....|..|A-5 ...F ....|--- .... ....|--- .... B..4
....|..|--- .... ....|--- .... ....|--- .... B..3
....|..|--- .... ....|--- ...B ....|--- ...B B..4
....|..|--- .... ....|--- .... ....|--- .... B..3
....|..|--- ...B ....|--- .... ....|--- .... B..4
....|..|--- .... ....|--- .... ....|--- .... B..3
....|..|--- .... ....|F#5 ...F ....|F#6 ...F B..4
....|..|--- .... ....|--- .... ....|--- .... B..3
....|..|F#5 ...F ....|--- .... ....|--- .... B..4
....|..|--- .... ....|--- .... ....|--- .... B..3
....|..|--- .... ....|--- .... ....|--- .... B..4
....|..|--- .... ....|--- .... ....|--- .... B..3
....|..|--- .... ....|--- .... ....|--- .... B..4
....|..|--- .... ....|--- .... ....|--- .... B..3
....|..|--- .... ....|--- ...B ....|--- ...B B..4
....|..|--- .... ....|--- .... ....|--- .... B..3
....|..|--- ...B ....|--- .... ....|--- .... B..4
....|..|--- .... ....|--- .... ....|--- .... B..3
....|..|--- .... ....|--- .... ....|--- .... B..4
....|..|--- .... ....|--- .... ....|--- .... B..3
....|..|--- .... ....|--- .... ....|--- .... B..4
....|..|--- .... ....|--- .... ....|--- .... B..3
....|..|--- .... ....|--- ...9 ....|--- ...9 B..4
....|..|--- .... ....|--- .... ....|--- .... B..3
....|..|--- ...9 ....|--- .... ....|--- .... B..4
....|..|--- .... ....|--- .... ....|--- .... B..3
....|..|--- .... ....|--- .... ....|--- .... B..4
....|..|--- .... ....|--- .... ....|--- .... B..3
....|..|--- .... ....|--- .... ....|--- .... B..4
....|..|--- .... ....|--- .... ....|--- .... B..3
....|..|--- .... ....|--- ...7 ....|--- ...7 B..4
....|..|--- .... ....|--- .... ....|--- .... B..3
....|..|--- ...7 ....|--- .... ....|--- .... B..4
....|..|--- .... ....|--- .... ....|--- .... B..3
....|..|--- .... ....|--- .... ....|--- .... B..4
....|..|--- .... ....|--- .... ....|--- .... B..3
....|..|--- .... ....|--- .... ....|--- .... B..4
....|..|--- .... ....|--- .... ....|--- .... B..3
....|..|--- .... ....|--- ...5 ....|--- ...5 B..4
....|..|--- .... ....|--- .... ....|--- .... B..3
....|..|--- ...5 ....|--- .... ....|--- .... B..4
....|..|--- .... ....|--- .... ....|--- .... B..3
....|..|--- .... ....|--- .... ....|--- .... B..4
....|..|--- .... ....|--- .... ....|--- .... B..3
....|..|--- .... ....|--- .... ....|--- .... B..4
....|..|--- .... ....|--- .... ....|--- .... B..3
....|..|--- .... ....|--- ...3 ....|--- ...3 B..4
....|..|--- .... ....|--- .... ....|--- .... B..3
....|..|--- ...3 ....|--- .... ....|--- .... B..4
....|..|--- .... ....|--- .... ....|--- .... B..3
....|..|--- .... ....|--- .... ....|--- .... B..4
....|..|--- .... ....|--- .... ....|--- .... B..3
....|..|--- .... ....|--- .... ....|--- .... B..4
....|..|--- .... ....|--- .... ....|--- .... B..3

[Pattern8]
....|..|R-- .... ....|R-- .... ....|R-- .... B..4
....|..|--- .... ....|--- .... ....|--- .... B..3
....|..|--- .... ....|--- .... ....|--- .... B..4
....|..|--- .... ....|--- .... ....|--- .... B..3
....|..|--- .... ....|--- .... ....|--- .... B..4
....|..|--- .... ....|--- .... ....|--- .... B..3
....|..|--- .... ....|--- .... ....|--- .... B..4
....|..|--- .... ....|--- .... ....|--- .... B..3
....|..|--- .... ....|--- .... ....|--- .... B..4
....|..|--- .... ....|--- .... ....|--- .... B..3
....|..|--- .... ....|--- .... ....|--- .... B..4
....|..|--- .... ....|--- .... ....|--- .... B..3
....|..|G#5 2.EE ....|--- .... ....|F-5 2.EE B..4
....|..|--- .... ....|--- .... ....|--- .... B..3
....|..|--- .... ....|G#5 9.EE ....|--- .... B..4
....|..|--- .... ....|--- .... ....|--- .... B..3
....|..|--- .... ....|--- .... ....|--- .... B..4
....|..|--- .... ....|--- .... ....|--- .... B..3
....|..|--- .... ....|--- .... ....|--- .... B..4
....|..|--- .... ....|--- .... ....|--- .... B..3
....|..|G-5 ..F. ....|--- .... ....|D#5 ..F. B..4
....|..|--- .... ....|--- .... ....|--- .... B..3
....|..|--- .... ....|G-5 ..F. ....|--- .... B..4
....|..|--- .... ....|--- .... ....|--- .... B..3
....|..|--- .... ....|--- .... ....|--- .... B..4
....|..|--- .... ....|--- .... ....|--- .... B..3
....|..|--- .... ....|--- .... ....|--- .... B..4
....|..|--- .... ....|--- .... ....|--- .... B..3
....|..|--- .... ....|--- .... ....|--- .... B..4
....|..|--- .... ....|--- .... ....|--- .... B..3
....|..|--- .... ....|--- .... ....|--- .... B..4
....|..|--- .... ....|--- .... ....|--- .... B..3
....|..|--- ...9 ....|--- .... ....|--- ...9 B..4
....|..|--- .... ....|--- .... ....|--- .... B..3
....|..|--- .... ....|--- ...9 ....|--- .... B..4
....|..|--- .... ....|--- .... ....|--- .... B..3
....|..|--- .... ....|F-5 2..F ....|F-6 9..F B..4
....|..|--- .... ....|--- .... ....|--- .... B..3
....|..|F-5 9..F ....|--- .... ....|--- .... B..4
....|..|--- .... ....|--- .... ....|--- .... B..3
....|..|--- .... ....|G-5 ..E. ....|G-6 ..E. B..4
....|..|--- .... ....|--- .... ....|--- .... B..3
....|..|G-5 ..E. ....|--- .... ....|--- .... B..4
....|..|--- .... ....|--- .... ....|--- .... B..3
....|..|--- .... ....|A#5 ..D. ....|A#6 ..D. B..4
....|..|--- .... ....|--- .... ....|--- .... B..3
....|..|A#5 ..D. ....|--- .... ....|--- .... B..4
....|..|--- .... ....|--- .... ....|--- .... B..3
....|..|--- .... ....|--- .... ....|--- .... B..4
....|..|--- .... ....|--- .... ....|--- .... B..3
....|..|--- .... ....|--- .... ....|--- .... B..4
....|..|--- .... ....|--- .... ....|--- .... B..3
....|..|--- .... ....|--- ...B ....|--- ...B B..4
....|..|--- .... ....|--- .... ....|--- .... B..3
....|..|--- ...B ....|--- .... ....|--- .... B..4
....|..|--- .... ....|--- .... ....|--- .... B..3
....|..|G#5 2.EE ....|--- .... ....|F-5 2..E B..4
....|..|--- .... ....|--- .... ....|--- .... B..3
....|..|--- .... ....|G#5 9.EE ....|--- .... B..4
....|..|--- .... ....|--- .... ....|--- .... B..3
....|..|--- .... ....|--- .... ....|--- .... B..4
....|..|--- .... ....|--- .... ....|--- .... B..3
....|..|--- .... ....|--- .... ....|--- .... B..4
....|..|--- .... ....|--- .... ....|--- .... B..3
....|..|G-5 ..F. ....|--- .... ....|D#5 .... B..4
....|..|--- .... ....|--- .... ....|--- .... B..3
....|..|--- .... ....|G-5 ..F. ....|--- .... B..4
....|..|--- .... ....|--- .... ....|--- .... B..3
....|..|G#5 ...A ....|--- .... ....|F-5 ...A B..4
....|..|--- .... ....|--- .... ....|--- .... B..3
....|..|--- .... ....|G#5 ...A ....|--- .... B..4
....|..|--- .... ....|--- .... ....|--- .... B..3
....|..|D#5 ..EF ....|--- .... ....|A#4 ..EE B..4
....|..|--- .... ....|--- .... ....|--- .... B..3
....|..|--- .... ....|D#5 ..EF ....|--- .... B..4
....|..|--- .... ....|--- .... ....|--- .... B..3
....|..|--- .... ....|--- .... ....|--- .... B..4
....|..|--- .... ....|--- .... ....|--- .... B..3
....|..|--- .... ....|--- .... ....|--- .... B..4
....|..|--- .... ....|--- .... ....|--- .... B..3
....|..|--- ...9 ....|A#4 2.D. ....|A#5 9.FF B..4
....|..|--- .... ....|--- .... ....|--- .... B..3
....|..|A#4 9.FF ....|C-5 ...E ....|C-6 ...E B..4
....|..|--- .... ....|--- .... ....|--- .... B..3
....|..|C-5 ...E ....|D#5 ...F ....|D#6 ...F B..4
....|..|--- .... ....|--- .... ....|--- .... B..3
....|..|D#5 ...F ....|--- .... ....|--- .... B..4
....|..|--- .... ....|--- .... ....|--- .... B..3
....|..|--- .... ....|C-5 .... ....|C-6 .... B..4
....|..|--- .... ....|--- .... ....|--- .... B..3
....|..|C-5 .... ....|D#5 ...E ....|D#6 ...E B..4
....|..|--- .... ....|--- .... ....|--- .... B..3
....|..|D#5 ...E ....|F-5 ...F ....|F-6 ...F B..4
....|..|--- .... ....|--- .... ....|--- .... B..3
....|..|F-5 ...F ....|--- .... ....|--- .... B..4
....|..|--- .... ....|--- .... ....|--- .... B..3

[Pattern9]
....|..|F-5 2.EE ....|R-- .... ....|C#5 2.EE B..4
....|..|--- .... ....|--- .... ....|--- .... B..3
....|..|--- .... ....|F-5 9.EE ....|--- .... B..4
....|..|--- .... ....|--- .... ....|--- .... B..3
....|..|--- .... ....|--- .... ....|--- .... B..4
....|..|--- .... ....|--- .... ....|--- .... B..3
....|..|--- .... ....|--- .... ....|--- .... B..4
....|..|--- .... ....|--- .... ....|--- .... B..3
....|..|F#5 ..F. ....|--- .... ....|D#5 ..F. B..4
....|..|--- .... ....|--- .... ....|--- .... B..3
....|..|--- .... ....|F#5 ..F. ....|--- .... B..4
....|..|--- .... ....|--- .... ....|--- .... B..3
....|..|--- .... ....|--- .... ....|--- .... B..4
....|..|--- .... ....|--- .... ....|--- .... B..3
....|..|--- .... ....|--- .... ....|--- .... B..4
....|..|--- .... ....|--- .... ....|--- .... B..3
....|..|D#5 .... ....|--- .... ....|B-4 .... B..4
....|..|--- .... ....|--- .... ....|--- .... B..3
....|..|--- .... ....|D#5 .... ....|--- .... B..4
....|..|--- .... ....|--- .... ....|--- .... B..3
....|..|F#5 ...A ....|--- .... ....|D#5 ...A B..4
....|..|--- .... ....|--- .... ....|--- .... B..3
....|..|--- .... ....|F#5 ...A ....|--- .... B..4
....|..|--- .... ....|--- .... ....|--- .... B..3
....|..|F-5 ..EF ....|--- .... ....|C#5 ..EE B..4
....|..|--- .... ....|--- .... ....|--- .... B..3
....|..|--- .... ....|F-5 ..EF ....|--- .... B..4
....|..|--- .... ....|--- .... ....|--- .... B..3
....|..|--- .... ....|--- .... ....|--- .... B..4
....|..|--- .... ....|--- .... ....|--- .... B..3
....|..|--- .... ....|--- .... ....|--- .... B..4
....|..|--- .... ....|--- .... ....|--- .... B..3
....|..|F#5 ..D. ....|--- .... ....|D#5 ..F. B..4
....|..|--- .... ....|--- .... ....|--- .... B..3
....|..|--- .... ....|F#5 ..D. ....|--- .... B..4
....|..|--- .... ....|--- .... ....|--- .... B..3
....|..|--- .... ....|--- .... ....|--- .... B..4
....|..|--- .... ....|--- .... ....|--- .... B..3
....|..|--- .... ....|--- .... ....|--- .... B..4
....|..|--- .... ....|--- .... ....|--- .... B..3
....|..|G#5 .... ....|--- .... ....|F-5 .... B..4
....|..|--- .... ....|--- .... ....|--- .... B..3
....|..|--- .... ....|G#5 .... ....|--- .... B..4
....|..|--- .... ....|--- .... ....|--- .... B..3
....|..|F#5 ...A ....|--- .... ....|D#5 ...A B..4
....|..|--- .... ....|--- .... ....|--- .... B..3
....|..|--- .... ....|F#5 ...A ....|--- .... B..4
....|..|--- .... ....|--- .... ....|--- .... B..3
....|..|A#5 ...E ....|--- .... ....|F-5 ..EE B..4
....|..|--- .... ....|--- .... ....|--- .... B..3
....|..|--- .... ....|A#5 ...E ....|--- .... B..4
....|..|--- .... ....|--- .... ....|--- .... B..3
....|..|--- .... ....|--- .... ....|--- .... B..4
....|..|--- .... ....|--- .... ....|--- .... B..3
....|..|--- .... ....|--- .... ....|--- .... B..4
....|..|--- .... ....|--- .... ....|--- .... B..3
....|..|--- .... ....|--- .... ....|--- .... B..4
....|..|--- .... ....|--- .... ....|--- .... B..3
....|..|--- .... ....|--- .... ....|--- .... B..4
....|..|--- .... ....|--- .... ....|--- .... B..3
....|..|--- ...B ....|--- .... ....|--- ...B B..4
....|..|--- .... ....|--- .... ....|--- .... B..3
....|..|--- .... ....|--- ...B ....|--- .... B..4
....|..|--- .... ....|--- .... ....|--- .... B..3
....|..|G#5 ...E ....|--- .... ....|F-5 ..FE B..4
....|..|--- .... ....|--- .... ....|--- .... B..3
....|..|--- .... ....|G#5 ...E ....|--- .... B..4
....|..|--- .... ....|--- .... ....|--- .... B..3
....|..|F#5 ..E. ....|--- .... ....|D#5 ..E. B..4
....|..|--- .... ....|--- .... ....|--- .... B..3
....|..|--- .... ....|F#5 ..E. ....|--- .... B..4
....|..|--- .... ....|--- .... ....|--- .... B..3
....|..|F-5 ..D. ....|--- .... ....|C#5 ..F. B..4
....|..|--- .... ....|--- .... ....|--- .... B..3
....|..|--- .... ....|F-5 ..D. ....|--- .... B..4
....|..|--- .... ....|--- .... ....|--- .... B..3
....|..|--- .... ....|--- .... ....|--- .... B..4
....|..|--- .... ....|--- .... ....|--- .... B..3
....|..|--- .... ....|--- .... ....|--- .... B..4
....|..|--- .... ....|--- .... ....|--- .... B..3
....|..|--- .... ....|--- .... ....|--- .... B..4
....|..|--- .... ....|--- .... ....|--- .... B..3
....|..|--- .... ....|--- .... ....|--- .... B..4
....|..|--- .... ....|--- .... ....|--- .... B..3
....|..|--- ...9 ....|--- .... ....|--- ...9 B..4
....|..|--- .... ....|--- .... ....|--- .... B..3
....|..|--- .... ....|--- ...9 ....|--- .... B..4
....|..|--- .... ....|--- .... ....|--- .... B..3
....|..|--- .... ....|--- .... ....|--- .... B..4
....|..|--- .... ....|--- .... ....|--- .... B..3
....|..|--- .... ....|--- .... ....|--- .... B..4
....|..|--- .... ....|--- .... ....|--- .... B..3
....|..|--- ...7 ....|--- .... ....|--- .... B..4
....|..|--- .... ....|--- .... ....|--- .... B..3
....|..|--- .... ....|--- ...7 ....|--- ...7 B..4
....|..|--- .... ....|--- .... ....|--- .... B..3

[Pattern10]
....|..|--- ...5 ....|G#5 2.EF ....|G#6 9.EF B..4
....|..|--- .... ....|--- .... ....|--- .... B..3
....|..|G#5 9.EF ....|--- .... ....|--- .... B..4
....|..|--- .... ....|--- .... ....|--- .... B..3
....|..|--- .... ....|--- .... ....|--- .... B..4
....|..|--- .... ....|--- .... ....|--- .... B..3
....|..|--- .... ....|--- .... ....|--- .... B..4
....|..|--- .... ....|--- .... ....|--- .... B..3
....|..|--- .... ....|G-5 ..F. ....|G-6 ..F. B..4
....|..|--- .... ....|--- .... ....|--- .... B..3
....|..|G-5 ..F. ....|--- .... ....|--- .... B..4
....|..|--- .... ....|--- .... ....|--- .... B..3
....|..|--- .... ....|G#5 ...B ....|G#6 ...B B..4
....|..|--- .... ....|--- .... ....|--- .... B..3
....|..|G#5 ...B ....|--- .... ....|--- .... B..4
....|..|--- .... ....|--- .... ....|--- .... B..3
....|..|--- .... ....|C-5 ..EF ....|C-6 ..EF B..4
....|..|--- .... ....|--- .... ....|--- .... B..3
....|..|C-5 ..EF ....|D#5 ..DE ....|D#6 ..DE B..4
....|..|--- .... ....|--- .... ....|--- .... B..3
....|..|D#5 ..FE ....|F-5 ...F ....|F-6 ...F B..4
....|..|--- .... ....|--- .... ....|--- .... B..3
....|..|F-5 ...F ....|--- .... ....|--- .... B..4
....|..|--- .... ....|--- .... ....|--- .... B..3
....|..|--- .... ....|D#5 .... ....|D#6 .... B..4
....|..|--- .... ....|--- .... ....|--- .... B..3
....|..|D#5 .... ....|F-5 ..FE ....|F-6 ..FE B..4
....|..|--- .... ....|--- .... ....|--- .... B..3
....|..|F-5 ...E ....|G-5 ..DF ....|G-6 ..DF B..4
....|..|--- .... ....|--- .... ....|--- .... B..3
....|..|G-5 ...F ....|--- .... ....|--- .... B..4
....|..|--- .... ....|--- .... ....|--- .... B..3
....|..|--- .... ....|F-5 .... ....|F-6 .... B..4
....|..|--- .... ....|--- .... ....|--- .... B..3
....|..|F-5 .... ....|G-5 ..FE ....|G-6 ..FE B..4
....|..|--- .... ....|--- .... ....|--- .... B..3
....|..|G-5 ...E ....|A#5 ..DF ....|A#6 ..DF B..4
....|..|--- .... ....|--- .... ....|--- .... B..3
....|..|A#5 ...F ....|--- .... ....|--- .... B..4
....|..|--- .... ....|--- .... ....|--- .... B..3
....|..|--- .... ....|G-5 .... ....|G-6 .... B..4
....|..|--- .... ....|--- .... ....|--- .... B..3
....|..|G-5 .... ....|A#5 ...9 ....|A#6 ...9 B..4
....|..|--- .... ....|--- .... ....|--- .... B..3
....|..|A#5 ...9 ....|A#5 ...F ....|A#6 ...F B..4
....|..|--- .... ....|--- .... ....|--- .... B..3
....|..|A#5 ...F ....|G-5 ...9 ....|G-6 ...9 B..4
....|..|--- .... ....|--- .... ....|--- .... B..3
....|..|G-5 ...9 ....|G#5 ..EF ....|G#6 ..EF B..4
....|..|--- .... ....|--- .... ....|--- .... B..3
....|..|G#5 ..EF ....|--- .... ....|--- .... B..4
....|..|--- .... ....|--- .... ....|--- .... B..3
....|..|--- .... ....|--- .... ....|--- .... B..4
....|..|--- .... ....|--- .... ....|--- .... B..3
....|..|--- .... ....|--- .... ....|--- .... B..4
....|..|--- .... ....|--- .... ....|--- .... B..3
....|..|--- .... ....|G-5 ..F. ....|G-6 ..F. B..4
....|..|--- .... ....|--- .... ....|--- .... B..3
....|..|G-5 ..F. ....|--- .... ....|--- .... B..4
....|..|--- .... ....|--- .... ....|--- .... B..3
....|..|--- .... ....|--- .... ....|--- .... B..4
....|..|--- .... ....|--- .... ....|--- .... B..3
....|..|--- .... ....|--- .... ....|--- .... B..4
....|..|--- .... ....|--- .... ....|--- .... B..3
....|..|--- .... ....|--- ...B ....|--- ...B B..4
....|..|--- .... ....|--- .... ....|--- .... B..3
....|..|--- ...B ....|--- .... ....|--- .... B..4
....|..|--- .... ....|--- .... ....|--- .... B..3
....|..|--- .... ....|--- ...9 ....|--- ...9 B..4
....|..|--- .... ....|--- .... ....|--- .... B..3
....|..|--- ...9 ....|--- .... ....|--- .... B..4
....|..|--- .... ....|--- .... ....|--- .... B..3
....|..|--- .... ....|G-5 ..EF ....|G-6 ..EF B..4
....|..|--- .... ....|--- .... ....|--- .... B..3
....|..|G-5 ..EF ....|--- .... ....|--- .... B..4
....|..|--- .... ....|--- .... ....|--- .... B..3
....|..|--- .... ....|--- .... ....|--- .... B..4
....|..|--- .... ....|--- .... ....|--- .... B..3
....|..|--- .... ....|--- .... ....|--- .... B..4
....|..|--- .... ....|--- .... ....|--- .... B..3
....|..|--- .... ....|D#5 ..F. ....|D#6 ..F. B..4
....|..|--- .... ....|--- .... ....|--- .... B..3
....|..|D#5 ..F. ....|--- .... ....|--- .... B..4
....|..|--- .... ....|--- .... ....|--- .... B..3
....|..|--- .... ....|G-5 ...B ....|G-6 ...B B..4
....|..|--- .... ....|--- .... ....|--- .... B..3
....|..|G-5 ...B ....|--- .... ....|--- .... B..4
....|..|--- .... ....|--- .... ....|--- .... B..3
....|..|--- .... ....|C-5 ...F ....|C-6 ...F B..4
....|..|--- .... ....|--- .... ....|--- .... B..3
....|..|C-5 ...F ....|--- .... ....|--- .... B..4
....|..|--- .... ....|--- .... ....|--- .... B..3
....|..|--- .... ....|D#5 ...B ....|D#6 ...B B..4
....|..|--- .... ....|--- .... ....|--- .... B..3
....|..|D#5 ...B ....|--- .... ....|--- .... B..4
....|..|--- .... ....|--- .... ....|--- .... B..3

[Pattern11]
....|..|C-5 2.EE ....|R-- .... ....|F#4 2.EE B..4
....|..|--- .... ....|--- .... ....|--- .... B..3
....|..|--- .... ....|C-5 9.EE ....|--- .... B..4
....|..|--- .... ....|--- .... ....|--- .... B..3
....|..|--- .... ....|--- .... ....|--- .... B..4
....|..|--- .... ....|--- .... ....|--- .... B..3
....|..|--- .... ....|--- .... ....|--- .... B..4
....|..|--- .... ....|--- .... ....|--- .... B..3
....|..|C#5 ..F. ....|--- .... ....|G#4 ..F. B..4
....|..|--- .... ....|--- .... ....|--- .... B..3
....|..|--- .... ....|C#5 ..F. ....|--- .... B..4
....|..|--- .... ....|--- .... ....|--- .... B..3
....|..|C-5 ...B ....|--- .... ....|F#4 ...B B..4
....|..|--- .... ....|--- .... ....|--- .... B..3
....|..|--- .... ....|C-5 ...B ....|--- .... B..4
....|..|--- .... ....|--- .... ....|--- .... B..3
....|..|F-5 ...E ....|--- .... ....|C-5 ...E B..4
....|..|--- .... ....|--- .... ....|--- .... B..3
....|..|--- .... ....|F-5 ...E ....|--- .... B..4
....|..|--- .... ....|--- .... ....|--- .... B..3
....|..|C#5 ...B ....|--- .... ....|G#4 ...B B..4
....|..|--- .... ....|--- .... ....|--- .... B..3
....|..|--- .... ....|C#5 ...B ....|--- .... B..4
....|..|--- .... ....|--- .... ....|--- .... B..3
....|..|F#5 ..EE ....|--- .... ....|C#5 ..EE B..4
....|..|--- .... ....|--- .... ....|--- .... B..3
....|..|--- .... ....|F#5 ..EE ....|--- .... B..4
....|..|--- .... ....|--- .... ....|--- .... B..3
....|..|--- .... ....|--- .... ....|--- .... B..4
....|..|--- .... ....|--- .... ....|--- .... B..3
....|..|--- .... ....|--- .... ....|--- .... B..4
....|..|--- .... ....|--- .... ....|--- .... B..3
....|..|G#5 ..D. ....|--- .... ....|D#5 ..F. B..4
....|..|--- .... ....|--- .... ....|--- .... B..3
....|..|--- .... ....|G#5 ..D. ....|--- .... B..4
....|..|--- .... ....|--- .... ....|--- .... B..3
....|..|F#5 ...B ....|--- .... ....|C#5 ...B B..4
....|..|--- .... ....|--- .... ....|--- .... B..3
....|..|--- .... ....|F#5 ...B ....|--- .... B..4
....|..|--- .... ....|--- .... ....|--- .... B..3
....|..|A-5 ...E ....|--- .... ....|E-5 ...E B..4
....|..|--- .... ....|--- .... ....|--- .... B..3
....|..|--- .... ....|A-5 ...E ....|--- .... B..4
....|..|--- .... ....|--- .... ....|--- .... B..3
....|..|G#5 ...B ....|--- .... ....|D#5 ...B B..4
....|..|--- .... ....|--- .... ....|--- .... B..3
....|..|--- .... ....|G#5 ...B ....|--- .... B..4
....|..|--- .... ....|--- .... ....|--- .... B..3
....|..|A#5 ..EE ....|--- .... ....|F-5 ..EE B..4
....|..|--- .... ....|--- .... ....|--- .... B..3
....|..|--- .... ....|A#5 ..EE ....|--- .... B..4
....|..|--- .... ....|--- .... ....|--- .... B..3
....|..|--- .... ....|--- .... ....|--- .... B..4
....|..|--- .... ....|--- .... ....|--- .... B..3
....|..|--- .... ....|--- .... ....|--- .... B..4
....|..|--- .... ....|--- .... ....|--- .... B..3
....|..|--- .... ....|--- .... ....|--- .... B..4
....|..|--- .... ....|--- .... ....|--- .... B..3
....|..|--- .... ....|--- .... ....|--- .... B..4
....|..|--- .... ....|--- .... ....|--- .... B..3
....|..|--- ...9 ....|--- .... ....|--- ...9 B..4
....|..|--- .... ....|--- .... ....|--- .... B..3
....|..|--- .... ....|--- ...9 ....|--- .... B..4
....|..|--- .... ....|--- .... ....|--- .... B..3
....|..|G#5 ..DE ....|--- .... ....|D#5 ..FE B..4
....|..|--- .... ....|--- .... ....|--- .... B..3
....|..|--- .... ....|G#5 ..DE ....|--- .... B..4
....|..|--- .... ....|--- .... ....|--- .... B..3
....|..|C#6 .... ....|--- .... ....|G#5 .... B..4
....|..|--- .... ....|--- .... ....|--- .... B..3
....|..|--- .... ....|C#6 .... ....|--- .... B..4
....|..|--- .... ....|--- .... ....|--- .... B..3
....|..|A#5 ..E. ....|--- .... ....|F-5 ..E. B..4
....|..|--- .... ....|--- .... ....|--- .... B..3
....|..|--- .... ....|A#5 ..E. ....|--- .... B..4
....|..|--- .... ....|--- .... ....|--- .... B..3
....|..|--- .... ....|--- .... ....|--- .... B..4
....|..|--- .... ....|--- .... ....|--- .... B..3
....|..|--- .... ....|--- .... ....|--- .... B..4
....|..|--- .... ....|--- .... ....|--- .... B..3
....|..|--- .... ....|--- .... ....|--- .... B..4
....|..|--- .... ....|--- .... ....|--- .... B..3
....|..|--- .... ....|--- .... ....|--- .... B..4
....|..|--- .... ....|--- .... ....|--- .... B..3
....|..|--- ...9 ....|F-5 2.FD ....|F-6 9.FD B..4
....|..|--- .... ....|--- .... ....|--- .... B..3
....|..|F-5 9.FD ....|D#5 .... ....|D#6 .... B..4
....|..|--- .... ....|--- .... ....|--- .... B..3
....|..|D#5 .... ....|C#5 ...E ....|C#6 ...E B..4
....|..|--- .... ....|--- .... ....|--- .... B..3
....|..|C#5 ...E ....|C-5 .... ....|C-6 .... B..4
....|..|--- .... ....|--- .... ....|--- .... B..3
....|..|C-5 .... ....|A#4 ...F ....|A#5 ...F B..4
....|..|--- .... ....|--- .... ....|--- .... B..3
....|..|A#4 ...F ....|G#4 .... ....|G#5 .... B..4
....|..|--- .... ....|--- .... ....|--- .... B..3

[Pattern12]
....|..|G#4 .... ....|A-4 ..EF ....|A-5 9.EF B..4
....|..|--- .... ....|--- .... ....|--- .... B..3
....|..|A-4 9.EF ....|--- .... ....|--- .... B..4
....|..|--- .... ....|--- .... ....|--- .... B..3
....|..|--- .... ....|--- .... ....|--- .... B..4
....|..|--- .... ....|--- .... ....|--- .... B..3
....|..|--- .... ....|--- .... ....|--- .... B..4
....|..|--- .... ....|--- .... ....|--- .... B..3
....|..|--- .... ....|E-4 ..D. ....|E-5 ..D. B..4
....|..|--- .... ....|--- .... ....|--- .... B..3
....|..|E-4 ..D. ....|A-4 .... ....|A-5 .... B..4
....|..|--- .... ....|--- .... ....|--- .... B..3
....|..|A-4 .... ....|B-4 ..E. ....|B-5 ..E. B..4
....|..|--- .... ....|--- .... ....|--- .... B..3
....|..|B-4 ..E. ....|--- .... ....|--- .... B..4
....|..|--- .... ....|--- .... ....|--- .... B..3
....|..|--- .... ....|--- .... ....|--- .... B..4
....|..|--- .... ....|--- .... ....|--- .... B..3
....|..|--- .... ....|--- .... ....|--- .... B..4
....|..|--- .... ....|--- .... ....|--- .... B..3
....|..|--- .... ....|E-4 ..D. ....|E-5 ..D. B..4
....|..|--- .... ....|--- .... ....|--- .... B..3
....|..|E-4 ..D. ....|B-4 .... ....|B-5 .... B..4
....|..|--- .... ....|--- .... ....|--- .... B..3
....|..|B-4 .... ....|C#5 ..E. ....|C#6 ..E. B..4
....|..|--- .... ....|--- .... ....|--- .... B..3
....|..|C#5 ..E. ....|--- .... ....|--- .... B..4
....|..|--- .... ....|--- .... ....|--- .... B..3
....|..|--- .... ....|--- .... ....|--- .... B..4
....|..|--- .... ....|--- .... ....|--- .... B..3
....|..|--- .... ....|--- .... ....|--- .... B..4
....|..|--- .... ....|--- .... ....|--- .... B..3
....|..|--- .... ....|E-4 ..D. ....|E-5 ..D. B..4
....|..|--- .... ....|--- .... ....|--- .... B..3
....|..|E-4 ..D. ....|C#5 ...E ....|C#6 ...E B..4
....|..|--- .... ....|--- .... ....|--- .... B..3
....|..|C#5 ...E ....|A-5 ..EF ....|A-6 ..EF B..4
....|..|--- .... ....|--- .... ....|--- .... B..3
....|..|A-5 ..EF ....|G#5 ..DE ....|G#6 ..DE B..4
....|..|--- .... ....|--- .... ....|--- .... B..3
....|..|G#5 ..DE ....|E-5 ..EF ....|E-6 ..EF B..4
....|..|--- .... ....|--- .... ....|--- .... B..3
....|..|E-5 ..EF ....|D#5 ..FE ....|D#6 ..FE B..4
....|..|--- .... ....|--- .... ....|--- .... B..3
....|..|D#5 ..FE ....|C#5 ..EF ....|C#6 ..EF B..4
....|..|--- .... ....|--- .... ....|--- .... B..3
....|..|C#5 ..EF ....|B-4 ..DE ....|B-5 ..DE B..4
....|..|--- .... ....|--- .... ....|--- .... B..3
....|..|B-4 ..DE ....|G#4 ..EF ....|G#5 ..EF B..4
....|..|--- .... ....|--- .... ....|--- .... B..3
....|..|G#4 ..EF ....|--- .... ....|--- .... B..4
....|..|--- .... ....|--- .... ....|--- .... B..3
....|..|--- .... ....|--- .... ....|--- .... B..4
....|..|--- .... ....|--- .... ....|--- .... B..3
....|..|--- .... ....|--- .... ....|--- .... B..4
....|..|--- .... ....|--- .... ....|--- .... B..3
....|..|--- .... ....|D#4 ..D. ....|D#5 ..D. B..4
....|..|--- .... ....|--- .... ....|--- .... B..3
....|..|D#4 ..D. ....|G#4 .... ....|G#5 .... B..4
....|..|--- .... ....|--- .... ....|--- .... B..3
....|..|G#4 .... ....|B-4 ..E. ....|B-5 ..E. B..4
....|..|--- .... ....|--- .... ....|--- .... B..3
....|..|B-4 ..E. ....|--- .... ....|--- .... B..4
....|..|--- .... ....|--- .... ....|--- .... B..3
....|..|--- .... ....|--- .... ....|--- .... B..4
....|..|--- .... ....|--- .... ....|--- .... B..3
....|..|--- .... ....|--- .... ....|--- .... B..4
....|..|--- .... ....|--- .... ....|--- .... B..3
....|..|--- .... ....|G#4 ..D. ....|G#5 ..D. B..4
....|..|--- .... ....|--- .... ....|--- .... B..3
....|..|G#4 ..D. ....|B-4 .... ....|B-5 .... B..4
....|..|--- .... ....|--- .... ....|--- .... B..3
....|..|B-4 .... ....|D#5 ..E. ....|D#6 ..E. B..4
....|..|--- .... ....|--- .... ....|--- .... B..3
....|..|D#5 ..E. ....|--- .... ....|--- .... B..4
....|..|--- .... ....|--- .... ....|--- .... B..3
....|..|--- .... ....|--- .... ....|--- .... B..4
....|..|--- .... ....|--- .... ....|--- .... B..3
....|..|--- .... ....|--- .... ....|--- .... B..4
....|..|--- .... ....|--- .... ....|--- .... B..3
....|..|--- .... ....|--- ...B ....|--- ...B B..4
....|..|--- .... ....|--- .... ....|--- .... B..3
....|..|--- ...B ....|--- .... ....|--- .... B..4
....|..|--- .... ....|--- .... ....|--- .... B..3
....|..|--- .... ....|F#5 ...F ....|F#6 ...F B..4
....|..|--- .... ....|--- .... ....|--- .... B..3
....|..|F#5 ...F ....|C#5 ..DE ....|C#6 ..DE B..4
....|..|--- .... ....|--- .... ....|--- .... B..3
....|..|C#5 ..DE ....|D#5 ..FF ....|D#6 ..FF B..4
....|..|--- .... ....|--- .... ....|--- .... B..3
....|..|D#5 ..FF ....|G#4 ..DE ....|G#5 ..DE B..4
....|..|--- .... ....|--- .... ....|--- .... B..3
....|..|G#4 ..DE ....|B-4 ..EF ....|B-5 ..EF B..4
....|..|--- .... ....|--- .... ....|--- .... B..3
....|..|B-4 ..EF ....|D#4 ..FE ....|D#5 ..FE B..4
....|..|--- .... ....|--- .... ....|--- .... B..3

[Pattern13]
....|..|G-4 2.DE ....|R-- .... ....|D-4 2.EE B..4
....|..|--- .... ....|--- .... ....|--- .... B..3
....|..|--- .... ....|G-4 9.DE ....|--- .... B..4
....|..|--- .... ....|--- .... ....|--- .... B..3
....|..|--- .... ....|--- .... ....|--- .... B..4
....|..|--- .... ....|--- .... ....|--- .... B..3
....|..|--- .... ....|--- .... ....|--- .... B..4
....|..|--- .... ....|--- .... ....|--- .... B..3
....|..|--- .... ....|--- .... ....|--- .... B..4
....|..|--- .... ....|--- .... ....|--- .... B..3
....|..|--- .... ....|--- .... ....|--- .... B..4
....|..|--- .... ....|--- .... ....|--- .... B..3
....|..|--- ...9 ....|--- .... ....|--- ...9 B..4
....|..|--- .... ....|--- .... ....|--- .... B..3
....|..|--- .... ....|--- ...9 ....|--- .... B..4
....|..|--- .... ....|--- .... ....|--- .... B..3
....|..|--- .... ....|--- .... ....|--- .... B..4
....|..|--- .... ....|--- .... ....|--- .... B..3
....|..|--- .... ....|--- .... ....|--- .... B..4
....|..|--- .... ....|--- .... ....|--- .... B..3
....|..|--- ...7 ....|--- .... ....|--- ...7 B..4
....|..|--- .... ....|--- .... ....|--- .... B..3
....|..|--- .... ....|--- ...7 ....|--- .... B..4
....|..|--- .... ....|--- .... ....|--- .... B..3
....|..|B-4 ...E ....|--- .... ....|G-4 ...E B..4
....|..|--- .... ....|--- .... ....|--- .... B..3
....|..|--- .... ....|B-4 ...E ....|--- .... B..4
....|..|--- .... ....|--- .... ....|--- .... B..3
....|..|--- .... ....|--- .... ....|--- .... B..4
....|..|--- .... ....|--- .... ....|--- .... B..3
....|..|--- .... ....|--- .... ....|--- .... B..4
....|..|--- .... ....|--- .... ....|--- .... B..3
....|..|--- .... ....|--- .... ....|--- .... B..4
....|..|--- .... ....|--- .... ....|--- .... B..3
....|..|--- .... ....|--- .... ....|--- .... B..4
....|..|--- .... ....|--- .... ....|--- .... B..3
....|..|--- ...9 ....|--- .... ....|--- ...9 B..4
....|..|--- .... ....|--- .... ....|--- .... B..3
....|..|--- .... ....|--- ...9 ....|--- .... B..4
....|..|--- .... ....|--- .... ....|--- .... B..3
....|..|--- .... ....|--- .... ....|--- .... B..4
....|..|--- .... ....|--- .... ....|--- .... B..3
....|..|--- .... ....|--- .... ....|--- .... B..4
....|..|--- .... ....|--- .... ....|--- .... B..3
....|..|--- ...7 ....|--- .... ....|--- ...7 B..4
....|..|--- .... ....|--- .... ....|--- .... B..3
....|..|--- .... ....|--- ...7 ....|--- .... B..4
....|..|--- .... ....|--- .... ....|--- .... B..3
....|..|F#4 ...E ....|--- .... ....|D#4 ...E B..4
....|..|--- .... ....|--- .... ....|--- .... B..3
....|..|--- .... ....|F#4 ...E ....|--- .... B..4
....|..|--- .... ....|--- .... ....|--- .... B..3
....|..|--- .... ....|--- .... ....|--- .... B..4
....|..|--- .... ....|--- .... ....|--- .... B..3
....|..|--- .... ....|--- .... ....|--- .... B..4
....|..|--- .... ....|--- .... ....|--- .... B..3
....|..|--- .... ....|--- .... ....|--- .... B..4
....|..|--- .... ....|--- .... ....|--- .... B..3
....|..|--- .... ....|--- .... ....|--- .... B..4
....|..|--- .... ....|--- .... ....|--- .... B..3
....|..|G-4 ...D ....|--- .... ....|E-4 ...D B..4
....|..|--- .... ....|--- .... ....|--- .... B..3
....|..|--- .... ....|G-4 ...D ....|--- .... B..4
....|..|--- .... ....|--- .... ....|--- .... B..3
....|..|--- .... ....|--- .... ....|--- .... B..4
....|..|--- .... ....|--- .... ....|--- .... B..3
....|..|--- .... ....|--- .... ....|--- .... B..4
....|..|--- .... ....|--- .... ....|--- .... B..3
....|..|--- .... ....|--- .... ....|--- .... B..4
....|..|--- .... ....|--- .... ....|--- .... B..3
....|..|--- .... ....|--- .... ....|--- .... B..4
....|..|--- .... ....|--- .... ....|--- .... B..3
....|..|A#4 ...C ....|--- .... ....|F-4 ...C B..4
....|..|--- .... ....|--- .... ....|--- .... B..3
....|..|--- .... ....|A#4 ...C ....|--- .... B..4
....|..|--- .... ....|--- .... ....|--- .... B..3
....|..|--- .... ....|--- .... ....|--- .... B..4
....|..|--- .... ....|--- .... ....|--- .... B..3
....|..|--- .... ....|--- .... ....|--- .... B..4
....|..|--- .... ....|--- .... ....|--- .... B..3
....|..|--- .... ....|--- .... ....|--- .... B..4
....|..|--- .... ....|--- .... ....|--- .... B..3
....|..|--- .... ....|--- .... ....|--- .... B..4
....|..|--- .... ....|--- .... ....|--- .... B..3
....|..|C-5 ...B ....|--- .... ....|G-4 ...B B..4
....|..|--- .... ....|--- .... ....|--- .... B..3
....|..|--- .... ....|C-5 ...B ....|--- .... B..4
....|..|--- .... ....|--- .... ....|--- .... B..3
....|..|--- .... ....|--- .... ....|--- .... B..4
....|..|--- .... ....|--- .... ....|--- .... B..3
....|..|--- .... ....|--- .... ....|--- .... B..4
....|..|--- .... ....|--- .... ....|--- .... B..3
....|..|--- ...A ....|--- .... ....|--- ...A B..4
....|..|--- .... ....|--- .... ....|--- .... B..3
....|..|--- ...9 ....|--- ...A ....|--- ...9 B..4
....|..|--- .... ....|--- .... ....|--- .... B..3

[Pattern14]
....|..|D#5 ...8 ....|--- ...9 ....|A#4 ...8 B..4
....|..|--- .... ....|--- .... ....|--- .... B..3
....|..|--- ...7 ....|D#5 ...8 ....|--- ...7 B..4
....|..|--- .... ....|--- .... ....|--- .... B..3
....|..|--- ...6 ....|--- ...7 ....|--- ...6 B..4
....|..|--- .... ....|--- .... ....|--- .... B..3
....|..|--- ...5 ....|--- ...6 ....|--- ...5 B..4
....|..|--- .... ....|--- .... ....|--- .... B..3
....|..|--- ...4 ....|--- ...5 ....|--- ...4 B..4
....|..|--- .... ....|--- .... ....|--- .... B..3
....|..|--- ...3 ....|--- ...4 ....|--- ...3 B..4
....|..|--- .... ....|--- .... ....|--- .... B..3
....|..|F-5 ...2 ....|--- ...3 ....|C-5 ...2 B..4
....|..|--- .... ....|--- .... ....|--- .... B..3
....|..|--- ...1 ....|F-5 ...2 ....|--- ...1 B..4
....|..|--- .... ....|--- .... ....|--- .... B..3
....|..|--- .... ....|--- ...1 ....|--- .... B..4
....|..|--- .... ....|--- .... ....|--- .... B..3
....|..|--- .... ....|--- .... ....|--- .... B..4
....|..|--- .... ....|--- .... ....|--- .... B..3
....|..|--- .... ....|--- .... ....|--- .... B..4
....|..|--- .... ....|--- .... ....|--- .... B..3
....|..|--- .... ....|--- .... ....|--- .... B..4
....|..|--- .... ....|--- .... ....|--- .... B..3

[Pattern15]
....|..|R-- .... ....|R-- .... ....|R-- .... ....
....|..|--- .... ....|--- .... ....|--- .... ....
....|..|--- .... ....|--- .... ....|--- .... ....
....|..|--- .... ....|--- .... ....|--- .... ....
....|..|--- .... ....|--- .... ....|--- .... ....
....|..|--- .... ....|--- .... ....|--- .... ....
....|..|--- .... ....|--- .... ....|--- .... ....
....|..|--- .... ....|--- .... ....|--- .... ....

[Module]
VortexTrackerII=0
Version=3.7
Title=Vradark's Revenge: intro [3]
Author=n1k-o  27.08.2022
NoteTable=2
ChipFreq=1750000
IntFreq=48828
Speed=5
Noise=HEX
PlayOrder=0,1,2,3,4,5,6,7,8,9,10,11,12,13,14,L15


[Ornament1]
L0

[Ornament2]
L0

[Ornament3]
24,12,L0,-3,9,-3,-7,5,-7,-3,0

[Ornament4]
24,12,L0,-4,8,-4,-7,5,-7,-4,0

[Ornament5]
24,12,L0,-5,7,-5,-9,3,-9,-5,0

[Ornament6]
24,12,L0,-5,7,-5,-8,4,-8,-5,0

[Ornament7]
24,12,L0,-2,10,-2,-7,5,-7,-2,0

[Ornament8]
24,12,L0,-3,9,-3,-8,4,-8,-3,0

[Ornament9]
24,12,L0,-4,8,-4,-9,3,-9,-4,0

[Ornament10]
24,12,L0,-5,7,-5,-10,2,-10,-5,0

[Ornament11]
L0

[Ornament12]
24,12,L0,-2,10,-2,-5,7,-5,-2,0

[Ornament13]
L0

[Ornament14]
L0

[Ornament15]
L0

[Ornament16]
L0

[Ornament17]
L0

[Ornament18]
L0

[Ornament19]
L0

[Ornament20]
L0

[Ornament21]
L0

[Ornament22]
L0

[Ornament23]
L0

[Ornament24]
L0

[Ornament25]
L0

[Ornament26]
L0

[Ornament27]
L0

[Ornament28]
L0

[Ornament29]
L0

[Ornament30]
L0

[Ornament31]
L0

[Sample1]
... +000_ +00_ 0_ L

[Sample2]
... +000_ +00_ 0_ L

[Sample3]
... +000_ +00_ 0_ L

[Sample4]
... +000_ +00_ 0_ L

[Sample5]
... +000_ +00_ 0_ L

[Sample6]
... +000_ +00_ 0_ L

[Sample7]
... +000_ +00_ 0_ L

[Sample8]
TN. +000_ +00_ 8_ L
TN. -001_ +00_ 8_
TN. -002_ +00_ 7_
TN. -001_ +00_ 7_
TN. +000_ +00_ 7_
TN. +000_ +00_ 6_
TN. +001_ +00_ 6_
TN. +002_ +00_ 6_
TN. +001_ +00_ 6_
TN. +000_ +00_ 5_
TN. -001_ +00_ 8-
TN. -002_ +00_ 7_
TN. -001_ +00_ 7_
TN. +000_ +00_ 7_
TN. +000_ +00_ 6_
TN. +001_ +00_ 6_
TN. +002_ +00_ 6_
TN. +001_ +00_ 6_
TN. +000_ +00_ 5_
TN. -001_ +00_ 5_

[Sample9]
TN. +000_ +00_ F_ L
TN. -001_ +00_ F_
TN. -002_ +00_ C_
TN. -001_ +00_ 9_

[Sample10]
TN. +000_ +00_ 8+ L
TN. -001_ +00_ 8_
TN. -002_ +00_ 7_
TN. -001_ +00_ 7_
TN. +000_ +00_ 7_
TN. +000_ +00_ 6_
TN. +001_ +00_ 6_
TN. +002_ +00_ 6_
TN. +001_ +00_ 6_
TN. +000_ +00_ 5_
TN. -001_ +00_ 8+
TN. -002_ +00_ 7_
TN. -001_ +00_ 7_
TN. +000_ +00_ 7_
TN. +000_ +00_ 6_
TN. +001_ +00_ 6_
TN. +002_ +00_ 6_
TN. +001_ +00_ 6_
TN. +000_ +00_ 5_
TN. -001_ +00_ 5_

[Sample11]
T.. +000_ +00_ C_
T.. +001_ +00_ C_
T.. +002_ +00_ C_
T.. +001_ +00_ C_
T.. +000_ +00_ B_ L
T.. -001_ +00_ B_
T.. -002_ +00_ B_
T.. -001_ +00_ B_
T.. +000_ +00_ B_
T.. +001_ +00_ B_
T.. +002_ +00_ B_
T.. +001_ +00_ B_

[Sample12]
TN. +000_ +00_ 8+ L
TN. -001_ +00_ 8_
TN. -002_ +00_ 7_
TN. -001_ +00_ 7_
TN. +000_ +00_ 7_
TN. +000_ +00_ 8_
TN. +001_ +00_ 8_
TN. +002_ +00_ 8_
TN. +001_ +00_ 8_
TN. +000_ +00_ 7_
TN. -001_ +00_ 8+
TN. -002_ +00_ 7_
TN. -001_ +00_ 7_
TN. +000_ +00_ 7_
TN. +000_ +00_ 8_
TN. +001_ +00_ 8_
TN. +002_ +00_ 8_
TN. +001_ +00_ 8_
TN. +000_ +00_ 7_
TN. -001_ +00_ 7_

[Sample13]
... +000_ +00_ 0_ L

[Sample14]
TN. +000_ +00_ F_
TN. +001_ +00_ E_
TN. +002_ +00_ D_
TN. +001_ +00_ C_
TN. +000_ +00_ B_
TN. -001_ +00_ B_
TN. -002_ +00_ A_
TN. -001_ +00_ A_
TN. +000_ +00_ A_
TN. +000_ +00_ B_
TN. +001_ +00_ B_
TN. +002_ +00_ B_
TN. +001_ +00_ B_
TN. +000_ +00_ A_
TN. -001_ +00_ A_
TN. -002_ +00_ 9_
TN. -001_ +00_ 9_
TN. +000_ +00_ 9_
TN. +000_ +00_ A_
TN. +001_ +00_ A_
TN. +002_ +00_ A_
TN. +001_ +00_ A_
TN. +000_ +00_ 9_
TN. -001_ +00_ 9_
TN. -002_ +00_ 8_
TN. -001_ +00_ 8_
TN. +000_ +00_ 8_
TN. +000_ +00_ 9_
TN. +001_ +00_ 9_
TN. +002_ +00_ 9_
TN. +001_ +00_ 9_
TN. +000_ +00_ 8_
TN. -001_ +00_ 8_
TN. -002_ +00_ 7_
TN. -001_ +00_ 7_
TN. +000_ +00_ 7_
TN. +000_ +00_ 8_
TN. +001_ +00_ 8_
TN. +002_ +00_ 8_
TN. +001_ +00_ 8_
TN. +000_ +00_ 9- L
TN. -001_ +00_ 9_
TN. -002_ +00_ 8_
TN. -001_ +00_ 8_
TN. +000_ +00_ 8_
TN. +000_ +00_ 9_
TN. +001_ +00_ 9_
TN. +002_ +00_ 9_
TN. +001_ +00_ 9_
TN. +000_ +00_ 8_
TN. -001_ +00_ 9_
TN. -002_ +00_ 8_
TN. -001_ +00_ 8_
TN. +000_ +00_ 8_
TN. +000_ +00_ 9_
TN. +001_ +00_ 9_
TN. +002_ +00_ 9_
TN. +001_ +00_ 9_
TN. +000_ +00_ 8_
TN. -001_ +00_ 8_

[Sample15]
T.. +001^ +00_ 9_
T.. +001_ +00_ 9_
T.. +002_ +00_ 9_
T.. +001_ +00_ 9_
T.. +000_ +00_ 8_
T.. -001_ +00_ 8_
T.. -002_ +00_ 7_
T.. -001_ +00_ 7_
T.. +000_ +00_ 7_
T.. +000_ +00_ 8_
T.. +001_ +00_ 8_
T.. +002_ +00_ 8_
T.. +001_ +00_ 8_
T.. +000_ +00_ 7_
T.. -001_ +00_ 7_
T.. -002_ +00_ 6_
T.. -001_ +00_ 6_
T.. +000_ +00_ 6_
T.. +000_ +00_ 7_
T.. +001_ +00_ 7_
T.. +002_ +00_ 7_
T.. +001_ +00_ 7_
T.. +000_ +00_ 6_
T.. -001_ +00_ 6_
T.. -002_ +00_ 5_
T.. -001_ +00_ 7- L
T.. +000_ +00_ 7_
T.. +000_ +00_ 8_
T.. +001_ +00_ 8_
T.. +002_ +00_ 8_
T.. +001_ +00_ 8_
T.. +000_ +00_ 7_
T.. -001_ +00_ 7_
T.. -002_ +00_ 6_
T.. -001_ +00_ 6_
T.. +000_ +00_ 6_
T.. +000_ +00_ 7_
T.. +001_ +00_ 7_
T.. +002_ +00_ 7_
T.. +001_ +00_ 7_
T.. +000_ +00_ 7_
T.. -001_ +00_ 7_
T.. -002_ +00_ 6_
T.. -001_ +00_ 6_
T.. +000_ +00_ 6_
T.. +000_ +00_ 7_
T.. +001_ +00_ 7_
T.. +002_ +00_ 7_
T.. +001_ +00_ 7_
T.. +000_ +00_ 6_
T.. -001_ +00_ 7_
T.. -002_ +00_ 6_
T.. -001_ +00_ 6_
T.. +000_ +00_ 6_
T.. +000_ +00_ 7_
T.. +001_ +00_ 7_
T.. +002_ +00_ 7_
T.. +001_ +00_ 7_
T.. +000_ +00_ 6_
T.. -001_ +00_ 6_

[Sample16]
... +000_ +00_ 0_ L

[Sample17]
... +000_ +00_ 0_ L

[Sample18]
... +000_ +00_ 0_ L

[Sample19]
... +000_ +00_ 0_ L

[Sample20]
... +000_ +00_ 0_ L

[Sample21]
... +000_ +00_ 0_ L

[Sample22]
... +000_ +00_ 0_ L

[Sample23]
... +000_ +00_ 0_ L

[Sample24]
... +000_ +00_ 0_ L

[Sample25]
... +000_ +00_ 0_ L

[Sample26]
... +000_ +00_ 0_ L

[Sample27]
... +000_ +00_ 0_ L

[Sample28]
... +000_ +00_ 0_ L

[Sample29]
... +000_ +00_ 0_ L

[Sample30]
... +000_ +00_ 0_ L

[Sample31]
... +000_ +00_ 0_ L

[Pattern0]
....|..|R-- .... ....|C#5 BF66 ....|R-- .... B..4
....|..|--- .... ....|--- .... ....|--- .... B..3
....|..|--- .... ....|--- .... ....|--- .... B..4
....|..|--- .... ....|--- .... ....|--- .... B..3
....|..|--- .... ....|--- ...7 ....|--- .... B..4
....|..|--- .... ....|--- .... ....|--- .... B..3
....|..|--- .... ....|--- .... ....|--- .... B..4
....|..|--- .... ....|--- .... ....|--- .... B..3
....|..|--- .... ....|--- ...8 ....|--- .... B..4
....|..|--- .... ....|--- .... ....|--- .... B..3
....|..|--- .... ....|--- .... ....|--- .... B..4
....|..|--- .... ....|--- .... ....|--- .... B..3
....|..|F-5 F.9F ....|--- ...9 ....|G#5 F.3F B..4
....|..|--- .... ....|--- .... ....|--- .... B..3
....|..|--- .... ....|--- .... ....|--- .... B..4
....|..|--- .... ....|--- .... ....|--- .... B..3
....|..|--- .... ....|--- ...8 ....|--- .... B..4
....|..|--- .... ....|--- .... ....|--- .... B..3
....|..|--- .... ....|--- .... ....|--- .... B..4
....|..|--- .... ....|--- .... ....|--- .... B..3
....|..|--- .... ....|--- ...7 ....|--- .... B..4
....|..|--- .... ....|--- .... ....|--- .... B..3
....|..|--- .... ....|--- .... ....|--- .... B..4
....|..|--- .... ....|--- .... ....|--- .... B..3
....|..|--- ...9 ....|D#5 ...6 ....|--- ...B B..4
....|..|--- .... ....|--- .... ....|--- .... B..3
....|..|--- .... ....|--- .... ....|--- .... B..4
....|..|--- .... ....|--- .... ....|--- .... B..3
....|..|--- .... ....|--- ...7 ....|--- .... B..4
....|..|--- .... ....|--- .... ....|--- .... B..3
....|..|--- .... ....|--- .... ....|--- .... B..4
....|..|--- .... ....|--- .... ....|--- .... B..3
....|..|--- .... ....|--- ...8 ....|--- .... B..4
....|..|--- .... ....|--- .... ....|--- .... B..3
....|..|--- .... ....|--- .... ....|--- .... B..4
....|..|--- .... ....|--- .... ....|--- .... B..3
....|..|A#5 ..3F ....|--- ...9 ....|G-5 .F9F B..4
....|..|--- .... ....|--- .... ....|--- .... B..3
....|..|--- .... ....|--- .... ....|--- .... B..4
....|..|--- .... ....|--- .... ....|--- .... B..3
....|..|--- .... ....|--- ...8 ....|--- .... B..4
....|..|--- .... ....|--- .... ....|--- .... B..3
....|..|--- .... ....|--- .... ....|--- .... B..4
....|..|--- .... ....|--- .... ....|--- .... B..3
....|..|--- .... ....|--- ...7 ....|--- .... B..4
....|..|--- .... ....|--- .... ....|--- .... B..3
....|..|--- .... ....|--- .... ....|--- .... B..4
....|..|--- .... ....|--- .... ....|--- .... B..3
....|..|--- ...B ....|D#5 ..9. ....|--- ...9 B..4
....|..|--- .... ....|--- .... ....|--- .... B..3
....|..|--- .... ....|--- .... ....|--- .... B..4
....|..|--- .... ....|--- .... ....|--- .... B..3
....|..|--- .... ....|--- ...8 ....|--- .... B..4
....|..|--- .... ....|--- .... ....|--- .... B..3
....|..|--- .... ....|--- .... ....|--- .... B..4
....|..|--- .... ....|--- .... ....|--- .... B..3
....|..|--- .... ....|--- ...9 ....|--- .... B..4
....|..|--- .... ....|--- .... ....|--- .... B..3
....|..|--- .... ....|--- .... ....|--- .... B..4
....|..|--- .... ....|--- .... ....|--- .... B..3
....|..|F#5 ...F ....|--- ...A ....|B-5 ..6F B..4
....|..|--- .... ....|--- .... ....|--- .... B..3
....|..|--- .... ....|--- .... ....|--- .... B..4
....|..|--- .... ....|--- .... ....|--- .... B..3
....|..|--- .... ....|--- ...9 ....|--- .... B..4
....|..|--- .... ....|--- .... ....|--- .... B..3
....|..|--- .... ....|--- .... ....|--- .... B..4
....|..|--- .... ....|--- .... ....|--- .... B..3
....|..|--- .... ....|--- ...8 ....|--- .... B..4
....|..|--- .... ....|--- .... ....|--- .... B..3
....|..|--- .... ....|--- .... ....|--- .... B..4
....|..|--- .... ....|--- .... ....|--- .... B..3
....|..|--- ...9 ....|C#5 ..87 ....|--- ...B B..4
....|..|--- .... ....|--- .... ....|--- .... B..3
....|..|--- .... ....|--- .... ....|--- .... B..4
....|..|--- .... ....|--- .... ....|--- .... B..3
....|..|--- .... ....|--- ...8 ....|--- .... B..4
....|..|--- .... ....|--- .... ....|--- .... B..3
....|..|--- .... ....|--- .... ....|--- .... B..4
....|..|--- .... ....|--- .... ....|--- .... B..3
....|..|--- .... ....|--- ...9 ....|--- .... B..4
....|..|--- .... ....|--- .... ....|--- .... B..3
....|..|--- .... ....|--- .... ....|--- .... B..4
....|..|--- .... ....|--- .... ....|--- .... B..3
....|..|A#5 ..5F ....|--- ...A ....|F-5 ..4F B..4
....|..|--- .... ....|--- .... ....|--- .... B..3
....|..|--- .... ....|--- .... ....|--- .... B..4
....|..|--- .... ....|--- .... ....|--- .... B..3
....|..|--- .... ....|--- ...9 ....|--- .... B..4
....|..|--- .... ....|--- .... ....|--- .... B..3
....|..|--- .... ....|--- .... ....|--- .... B..4
....|..|--- .... ....|--- .... ....|--- .... B..3
....|..|--- .... ....|--- ...8 ....|--- .... B..4
....|..|--- .... ....|--- .... ....|--- .... B..3
....|..|--- .... ....|--- .... ....|--- .... B..4
....|..|--- .... ....|--- .... ....|--- .... B..3

[Pattern1]
....|..|--- ...B ....|C#5 ..94 ....|--- ...9 B..4
....|..|--- .... ....|--- .... ....|--- .... B..3
....|..|--- .... ....|--- ...5 ....|--- .... B..4
....|..|--- .... ....|--- .... ....|--- .... B..3
....|..|--- .... ....|--- ...6 ....|--- .... B..4
....|..|--- .... ....|--- .... ....|--- .... B..3
....|..|--- .... ....|--- ...7 ....|--- .... B..4
....|..|--- .... ....|--- .... ....|--- .... B..3
....|..|--- .... ....|--- ...8 ....|--- .... B..4
....|..|--- .... ....|--- .... ....|--- .... B..3
....|..|--- .... ....|--- ...9 ....|--- .... B..4
....|..|--- .... ....|--- .... ....|--- .... B..3
....|..|E-5 ..3F ....|--- ...A ....|A-5 ..6F B..4
....|..|--- .... ....|--- .... ....|--- .... B..3
....|..|--- .... ....|--- .... ....|--- .... B..4
....|..|--- .... ....|--- .... ....|--- .... B..3
....|..|--- .... ....|--- ...9 ....|--- .... B..4
....|..|--- .... ....|--- .... ....|--- .... B..3
....|..|--- .... ....|--- .... ....|--- .... B..4
....|..|--- .... ....|--- .... ....|--- .... B..3
....|..|--- .... ....|--- ...8 ....|--- .... B..4
....|..|--- .... ....|--- .... ....|--- .... B..3
....|..|--- .... ....|--- .... ....|--- .... B..4
....|..|--- .... ....|--- .... ....|--- .... B..3
....|..|--- ...9 ....|B-4 ..84 ....|--- ...B B..4
....|..|--- .... ....|--- .... ....|--- .... B..3
....|..|--- .... ....|--- ...5 ....|--- .... B..4
....|..|--- .... ....|--- .... ....|--- .... B..3
....|..|--- .... ....|--- ...6 ....|--- .... B..4
....|..|--- .... ....|--- .... ....|--- .... B..3
....|..|--- .... ....|--- ...7 ....|--- .... B..4
....|..|--- .... ....|--- .... ....|--- .... B..3
....|..|--- .... ....|--- ...8 ....|--- .... B..4
....|..|--- .... ....|--- .... ....|--- .... B..3
....|..|--- .... ....|--- ...9 ....|--- .... B..4
....|..|--- .... ....|--- .... ....|--- .... B..3
....|..|G#5 ..5F ....|--- ...A ....|D#5 ..4F B..4
....|..|--- .... ....|--- .... ....|--- .... B..3
....|..|--- .... ....|--- .... ....|--- .... B..4
....|..|--- .... ....|--- .... ....|--- .... B..3
....|..|--- .... ....|--- ...9 ....|--- .... B..4
....|..|--- .... ....|--- .... ....|--- .... B..3
....|..|--- .... ....|--- .... ....|--- .... B..4
....|..|--- .... ....|--- .... ....|--- .... B..3
....|..|--- .... ....|--- ...8 ....|--- .... B..4
....|..|--- .... ....|--- .... ....|--- .... B..3
....|..|--- .... ....|--- .... ....|--- .... B..4
....|..|--- .... ....|--- .... ....|--- .... B..3
....|..|--- ...B ....|B-4 ..97 ....|--- ...9 B..4
....|..|--- .... ....|--- .... ....|--- .... B..3
....|..|--- .... ....|--- .... ....|--- .... B..4
....|..|--- .... ....|--- .... ....|--- .... B..3
....|..|--- .... ....|--- ...8 ....|--- .... B..4
....|..|--- .... ....|--- .... ....|--- .... B..3
....|..|--- .... ....|--- .... ....|--- .... B..4
....|..|--- .... ....|--- .... ....|--- .... B..3
....|..|--- .... ....|--- ...9 ....|--- .... B..4
....|..|--- .... ....|--- .... ....|--- .... B..3
....|..|--- .... ....|--- .... ....|--- .... B..4
....|..|--- .... ....|--- .... ....|--- .... B..3
....|..|D-5 ..3F ....|--- ...A ....|G-5 E.6E B..4
....|..|--- .... ....|--- .... ....|--- .... B..3
....|..|--- .... ....|--- .... ....|--- .... B..4
....|..|--- .... ....|--- .... ....|--- .... B..3
....|.1|--- .... ....|--- .... ....|--- .... B..4
....|.1|--- .... ....|--- .... ....|--- .... B..3
....|.1|--- .... ....|--- .... ....|--- .... B..4
....|.1|--- .... ....|--- .... ....|--- .... B..3
....|.1|--- .... ....|--- ...9 ....|--- .... B..4
....|.1|--- .... ....|--- .... ....|--- .... B..3
....|.2|--- .... ....|--- .... ....|--- .... B..4
....|.2|--- .... ....|--- .... ....|--- .... B..3
....|.2|G-5 E.6D ....|--- .... ....|D-5 F.3. B..4
....|.2|--- .... ....|--- .... ....|--- .... B..3
....|.2|--- .... ....|--- .... ....|--- .... B..4
....|.2|--- .... ....|--- .... ....|--- .... B..3
....|.3|--- .... ....|--- ...8 ....|--- .... B..4
....|.3|--- .... ....|--- .... ....|--- .... B..3
....|.3|--- .... ....|--- .... ....|--- .... B..4
....|.3|--- .... ....|--- .... ....|--- .... B..3
....|.3|--- .... ....|--- .... ....|--- .... B..4
....|.3|--- .... ....|--- .... ....|--- .... B..3
....|.4|--- .... ....|--- .... ....|--- .... B..4
....|.4|--- .... ....|--- .... ....|--- .... B..3
....|.4|D-5 F.3. ....|--- ...7 ....|G-5 E.6C B..4
....|.4|--- .... ....|--- .... ....|--- .... B..3
....|.4|--- .... ....|--- .... ....|--- .... B..4
....|.4|--- .... ....|--- .... ....|--- .... B..3
....|.5|--- .... ....|--- ...6 ....|--- .... B..4
....|.5|--- .... ....|--- .... ....|--- .... B..3
....|.5|--- .... ....|--- .... ....|--- .... B..4
....|.5|--- .... ....|--- .... ....|--- .... B..3
....|.5|--- .... ....|--- ...5 ....|--- .... B..4
....|.5|--- .... ....|--- .... ....|--- .... B..3
....|.6|--- .... ....|--- .... ....|--- .... B..4
....|.6|--- .... ....|--- .... ....|--- .... B..3

[Pattern2]
....|.4|R-- .... ....|F-5 E.9F ....|F-6 F.9F B..4
....|.4|--- .... ....|--- .... ....|--- .... B..3
....|.4|F-5 F.9F ....|--- .... ....|--- .... B..4
....|.3|--- .... ....|--- .... ....|--- .... B..3
....|.3|--- .... ....|--- .... ....|--- .... B..4
....|.3|--- .... ....|--- .... ....|--- .... B..3
....|.2|--- .... ....|--- .... ....|--- .... B..4
....|.2|--- .... ....|--- .... ....|--- .... B..3
....|.2|--- .... ....|--- .... ....|--- .... B..4
....|.1|--- .... ....|--- .... ....|--- .... B..3
....|.1|--- .... ....|--- .... ....|--- .... B..4
....|.1|--- .... ....|--- .... ....|--- .... B..3
....|..|--- .... ....|--- .... ....|--- .... B..4
....|..|--- .... ....|--- .... ....|--- .... B..3
....|..|--- .... ....|--- .... ....|--- .... B..4
....|..|--- .... ....|--- .... ....|--- .... B..3
....|..|--- .... ....|F-5 .... ....|F-6 .... B..4
....|..|--- .... ....|--- .... ....|--- .... B..3
....|..|F-5 .... ....|--- .... ....|--- .... B..4
....|..|--- .... ....|--- .... ....|--- .... B..3
....|..|--- .... ....|--- .... ....|--- .... B..4
....|..|--- .... ....|--- .... ....|--- .... B..3
....|..|--- .... ....|--- .... ....|--- .... B..4
....|..|--- .... ....|--- .... ....|--- .... B..3
....|.4|--- .... ....|G-5 .... ....|G-6 .... B..4
....|.4|--- .... ....|--- .... ....|--- .... B..3
....|.4|G-5 .... ....|--- .... ....|--- .... B..4
....|.3|--- .... ....|--- .... ....|--- .... B..3
....|.3|--- .... ....|--- .... ....|--- .... B..4
....|.3|--- .... ....|--- .... ....|--- .... B..3
....|.2|--- .... ....|--- .... ....|--- .... B..4
....|.2|--- .... ....|--- .... ....|--- .... B..3
....|.2|--- .... ....|--- .... ....|--- .... B..4
....|.1|--- .... ....|--- .... ....|--- .... B..3
....|.1|--- .... ....|--- .... ....|--- .... B..4
....|.1|--- .... ....|--- .... ....|--- .... B..3
....|..|--- .... ....|--- .... ....|--- .... B..4
....|..|--- .... ....|--- .... ....|--- .... B..3
....|..|--- .... ....|--- .... ....|--- .... B..4
....|..|--- .... ....|--- .... ....|--- .... B..3
....|..|--- .... ....|G-5 .... ....|G-6 .... B..4
....|..|--- .... ....|--- .... ....|--- .... B..3
....|..|G-5 .... ....|--- .... ....|--- .... B..4
....|..|--- .... ....|--- .... ....|--- .... B..3
....|..|--- .... ....|--- .... ....|--- .... B..4
....|..|--- .... ....|--- .... ....|--- .... B..3
....|..|--- .... ....|--- .... ....|--- .... B..4
....|..|--- .... ....|--- .... ....|--- .... B..3
....|.4|--- .... ....|F#5 ..3. ....|F#6 ..3. B..4
....|.4|--- .... ....|--- .... ....|--- .... B..3
....|.4|F#5 ..3. ....|--- .... ....|--- .... B..4
....|.3|--- .... ....|--- .... ....|--- .... B..3
....|.3|--- .... ....|--- .... ....|--- .... B..4
....|.3|--- .... ....|--- .... ....|--- .... B..3
....|.2|--- .... ....|--- .... ....|--- .... B..4
....|.2|--- .... ....|--- .... ....|--- .... B..3
....|.2|--- .... ....|--- .... ....|--- .... B..4
....|.1|--- .... ....|--- .... ....|--- .... B..3
....|.1|--- .... ....|--- .... ....|--- .... B..4
....|.1|--- .... ....|--- .... ....|--- .... B..3
....|..|--- .... ....|--- .... ....|--- .... B..4
....|..|--- .... ....|--- .... ....|--- .... B..3
....|..|--- .... ....|--- .... ....|--- .... B..4
....|..|--- .... ....|--- .... ....|--- .... B..3
....|..|--- .... ....|F#5 .... ....|F#6 .... B..4
....|..|--- .... ....|--- .... ....|--- .... B..3
....|..|F#5 .... ....|--- .... ....|--- .... B..4
....|..|--- .... ....|--- .... ....|--- .... B..3
....|..|--- .... ....|--- .... ....|--- .... B..4
....|..|--- .... ....|--- .... ....|--- .... B..3
....|..|--- .... ....|--- .... ....|--- .... B..4
....|..|--- .... ....|--- .... ....|--- .... B..3
....|.4|--- .... ....|F-5 ..4. ....|F-6 ..4. B..4
....|.4|--- .... ....|--- .... ....|--- .... B..3
....|.4|F-5 ..4. ....|--- .... ....|--- .... B..4
....|.3|--- .... ....|--- .... ....|--- .... B..3
....|.3|--- .... ....|--- .... ....|--- .... B..4
....|.3|--- .... ....|--- .... ....|--- .... B..3
....|.2|--- .... ....|--- .... ....|--- .... B..4
....|.2|--- .... ....|--- .... ....|--- .... B..3
....|.2|--- .... ....|F-5 ...E ....|F-6 .... B..4
....|.1|--- .... ....|--- .... ....|--- .... B..3
....|.1|F-5 ...E ....|--- .... ....|--- .... B..4
....|.1|--- .... ....|--- .... ....|--- .... B..3
....|..|--- .... ....|--- .... ....|--- .... B..4
....|..|--- .... ....|--- .... ....|--- .... B..3
....|..|--- .... ....|--- .... ....|--- .... B..4
....|..|--- .... ....|--- .... ....|--- .... B..3
....|.4|--- .... ....|F-5 ...F ....|F-6 .... B..4
....|.4|--- .... ....|--- .... ....|--- .... B..3
....|.4|F-5 ...F ....|--- .... ....|--- .... B..4
....|.3|--- .... ....|--- .... ....|--- .... B..3
....|.3|--- .... ....|--- .... ....|--- .... B..4
....|.3|--- .... ....|--- .... ....|--- .... B..3
....|.2|--- .... ....|--- .... ....|--- .... B..4
....|.2|--- .... ....|--- .... ....|--- .... B..3

[Pattern3]
....|.4|--- .... ....|A-5 ..6. ....|A-6 ..6. B..4
....|.4|--- .... ....|--- .... ....|--- .... B..3
....|.4|A-5 ..6. ....|--- .... ....|--- .... B..4
....|.3|--- .... ....|--- .... ....|--- .... B..3
....|.3|--- .... ....|--- .... ....|--- .... B..4
....|.3|--- .... ....|--- .... ....|--- .... B..3
....|.2|--- .... ....|--- .... ....|--- .... B..4
....|.2|--- .... ....|--- .... ....|--- .... B..3
....|.2|--- .... ....|--- .... ....|--- .... B..4
....|.1|--- .... ....|--- .... ....|--- .... B..3
....|.1|--- .... ....|--- .... ....|--- .... B..4
....|.1|--- .... ....|--- .... ....|--- .... B..3
....|..|--- .... ....|--- .... ....|--- .... B..4
....|..|--- .... ....|--- .... ....|--- .... B..3
....|..|--- .... ....|--- .... ....|--- .... B..4
....|..|--- .... ....|--- .... ....|--- .... B..3
....|..|--- .... ....|A-5 .... ....|A-6 .... B..4
....|..|--- .... ....|--- .... ....|--- .... B..3
....|..|A-5 .... ....|--- .... ....|--- .... B..4
....|..|--- .... ....|--- .... ....|--- .... B..3
....|..|--- .... ....|--- .... ....|--- .... B..4
....|..|--- .... ....|--- .... ....|--- .... B..3
....|..|--- .... ....|--- .... ....|--- .... B..4
....|..|--- .... ....|--- .... ....|--- .... B..3
....|.4|--- .... ....|G#5 ..5. ....|G#6 ..5. B..4
....|.4|--- .... ....|--- .... ....|--- .... B..3
....|.4|G#5 ..5. ....|--- .... ....|--- .... B..4
....|.3|--- .... ....|--- .... ....|--- .... B..3
....|.3|--- .... ....|--- .... ....|--- .... B..4
....|.3|--- .... ....|--- .... ....|--- .... B..3
....|.2|--- .... ....|--- .... ....|--- .... B..4
....|.2|--- .... ....|--- .... ....|--- .... B..3
....|.2|--- .... ....|--- .... ....|--- .... B..4
....|.1|--- .... ....|--- .... ....|--- .... B..3
....|.1|--- .... ....|--- .... ....|--- .... B..4
....|.1|--- .... ....|--- .... ....|--- .... B..3
....|..|--- .... ....|--- .... ....|--- .... B..4
....|..|--- .... ....|--- .... ....|--- .... B..3
....|..|--- .... ....|--- .... ....|--- .... B..4
....|..|--- .... ....|--- .... ....|--- .... B..3
....|..|--- .... ....|G#5 .... ....|G#6 .... B..4
....|..|--- .... ....|--- .... ....|--- .... B..3
....|..|G#5 .... ....|--- .... ....|--- .... B..4
....|..|--- .... ....|--- .... ....|--- .... B..3
....|..|--- .... ....|--- .... ....|--- .... B..4
....|..|--- .... ....|--- .... ....|--- .... B..3
....|..|--- .... ....|--- .... ....|--- .... B..4
....|..|--- .... ....|--- .... ....|--- .... B..3
....|.4|--- .... ....|G-5 ..6. ....|G-6 ..6. B..4
....|.4|--- .... ....|--- .... ....|--- .... B..3
....|.4|G-5 ..6. ....|--- .... ....|--- .... B..4
....|.3|--- .... ....|--- .... ....|--- .... B..3
....|.3|--- .... ....|--- .... ....|--- .... B..4
....|.3|--- .... ....|--- .... ....|--- .... B..3
....|.2|--- .... ....|--- .... ....|--- .... B..4
....|.2|--- .... ....|--- .... ....|--- .... B..3
....|.2|--- .... ....|--- .... ....|--- .... B..4
....|.1|--- .... ....|--- .... ....|--- .... B..3
....|.1|--- .... ....|--- .... ....|--- .... B..4
....|.1|--- .... ....|--- .... ....|--- .... B..3
....|..|--- .... ....|G-5 .... ....|G-6 .... B..4
....|..|--- .... ....|--- .... ....|--- .... B..3
....|..|G-5 .... ....|--- .... ....|--- .... B..4
....|..|--- .... ....|--- .... ....|--- .... B..3
....|..|--- .... ....|--- .... ....|--- .... B..4
....|..|--- .... ....|--- .... ....|--- .... B..3
....|..|--- .... ....|--- .... ....|--- .... B..4
....|..|--- .... ....|--- .... ....|--- .... B..3
....|..|--- .... ....|--- .... ....|--- .... B..4
....|..|--- .... ....|--- .... ....|--- .... B..3
....|..|--- .... ....|--- .... ....|--- .... B..4
....|..|--- .... ....|--- .... ....|--- .... B..3
....|.4|--- .... ....|A-5 .... ....|A-6 .... B..4
....|.4|--- .... ....|--- .... ....|--- .... B..3
....|.4|A-5 .... ....|--- .... ....|--- .... B..4
....|.3|--- .... ....|--- .... ....|--- .... B..3
....|.3|--- .... ....|--- .... ....|--- .... B..4
....|.3|--- .... ....|--- .... ....|--- .... B..3
....|.2|--- .... ....|--- .... ....|--- .... B..4
....|.2|--- .... ....|--- .... ....|--- .... B..3
....|.2|--- .... ....|A-5 ...E ....|A-6 ...E B..4
....|.1|--- .... ....|--- .... ....|--- .... B..3
....|.1|A-5 ...E ....|--- .... ....|--- .... B..4
....|.1|--- .... ....|--- .... ....|--- .... B..3
....|..|--- .... ....|--- .... ....|--- .... B..4
....|..|--- .... ....|--- .... ....|--- .... B..3
....|..|--- .... ....|--- .... ....|--- .... B..4
....|..|--- .... ....|--- .... ....|--- .... B..3
....|.4|--- .... ....|A-5 ...F ....|A-6 ...F B..4
....|.4|--- .... ....|--- .... ....|--- .... B..3
....|.4|A-5 ...F ....|--- .... ....|--- .... B..4
....|.3|--- .... ....|--- .... ....|--- .... B..3
....|.3|--- .... ....|--- .... ....|--- .... B..4
....|.3|--- .... ....|--- .... ....|--- .... B..3
....|.2|--- .... ....|--- .... ....|--- .... B..4
....|.2|--- .... ....|--- .... ....|--- .... B..3

[Pattern4]
....|.4|--- .... ....|B-5 ..6. ....|B-6 ..6. B..4
....|.4|--- .... ....|--- .... ....|--- .... B..3
....|.4|B-5 ..6. ....|--- .... ....|--- .... B..4
....|.4|--- .... ....|--- .... ....|--- .... B..3
....|.3|--- .... ....|--- .... ....|--- .... B..4
....|.3|--- .... ....|--- .... ....|--- .... B..3
....|.3|--- .... ....|--- .... ....|--- .... B..4
....|.2|--- .... ....|--- .... ....|--- .... B..3
....|.2|--- .... ....|--- .... ....|--- .... B..4
....|.2|--- .... ....|--- .... ....|--- .... B..3
....|.2|--- .... ....|--- .... ....|--- .... B..4
....|.2|--- .... ....|--- .... ....|--- .... B..3
....|.1|--- .... ....|--- .... ....|--- .... B..4
....|.1|--- .... ....|--- .... ....|--- .... B..3
....|.1|--- .... ....|--- .... ....|--- .... B..4
....|.1|--- .... ....|--- .... ....|--- .... B..3
....|..|--- .... ....|--- ...E ....|--- ...E B..4
....|..|--- .... ....|--- .... ....|--- .... B..3
....|..|--- ...E ....|--- ...D ....|--- ...D B..4
....|..|--- .... ....|--- .... ....|--- .... B..3
....|..|--- ...D ....|--- ...C ....|--- ...C B..4
....|..|--- .... ....|--- .... ....|--- .... B..3
....|..|--- ...C ....|--- ...B ....|--- ...B B..4
....|..|--- .... ....|--- .... ....|--- .... B..3
....|.3|--- ...B ....|B-5 ...E ....|B-6 ...E B..4
....|.3|--- .... ....|--- .... ....|--- .... B..3
....|.3|B-5 ...E ....|--- .... ....|--- .... B..4
....|.3|--- .... ....|--- .... ....|--- .... B..3
....|.2|--- .... ....|--- .... ....|--- .... B..4
....|.2|--- .... ....|--- .... ....|--- .... B..3
....|.2|--- .... ....|--- .... ....|--- .... B..4
....|.2|--- .... ....|--- .... ....|--- .... B..3
....|.1|--- .... ....|--- .... ....|--- .... B..4
....|.1|--- .... ....|--- .... ....|--- .... B..3
....|.1|--- .... ....|--- ...D ....|--- ...D B..4
....|.1|--- .... ....|--- .... ....|--- .... B..3
....|..|--- ...D ....|--- ...C ....|--- ...C B..4
....|..|--- .... ....|--- .... ....|--- .... B..3
....|..|--- ...C ....|--- ...B ....|--- ...B B..4
....|..|--- .... ....|--- .... ....|--- .... B..3
....|..|--- ...B ....|B-5 ...D ....|B-6 ...D B..4
....|..|--- .... ....|--- .... ....|--- .... B..3
....|..|B-5 ...D ....|--- .... ....|--- .... B..4
....|..|--- .... ....|--- .... ....|--- .... B..3
....|..|--- .... ....|--- .... ....|--- .... B..4
....|..|--- .... ....|--- .... ....|--- .... B..3
....|..|--- .... ....|--- .... ....|--- .... B..4
....|..|--- .... ....|--- .... ....|--- .... B..3
....|.2|--- .... ....|B-5 .... ....|B-6 .... B..4
....|.2|--- .... ....|--- .... ....|--- .... B..3
....|.2|B-5 .... ....|--- .... ....|--- .... B..4
....|.2|--- .... ....|--- .... ....|--- .... B..3
....|.2|--- .... ....|--- .... ....|--- .... B..4
....|.2|--- .... ....|--- .... ....|--- .... B..3
....|.2|--- .... ....|--- .... ....|--- .... B..4
....|.2|--- .... ....|--- .... ....|--- .... B..3
....|.1|--- .... ....|--- .... ....|--- .... B..4
....|.1|--- .... ....|--- .... ....|--- .... B..3
....|.1|--- .... ....|--- .... ....|--- .... B..4
....|.1|--- .... ....|--- .... ....|--- .... B..3
....|.1|--- .... ....|B-5 ...C ....|B-6 ...C B..4
....|.1|--- .... ....|--- .... ....|--- .... B..3
....|.1|B-5 ...C ....|--- .... ....|--- .... B..4
....|.1|--- .... ....|--- .... ....|--- .... B..3
....|..|--- .... ....|--- ...B ....|--- ...B B..4
....|..|--- .... ....|--- .... ....|--- .... B..3
....|..|--- ...B ....|--- .... ....|--- .... B..4
....|..|--- .... ....|--- .... ....|--- .... B..3
....|..|--- .... ....|--- ...A ....|--- ...A B..4
....|..|--- .... ....|--- .... ....|--- .... B..3
....|..|--- ...A ....|--- .... ....|--- .... B..4
....|..|--- .... ....|--- .... ....|--- .... B..3
....|.1|--- .... ....|C-6 ...B ....|C-7 A..B B..4
....|.1|--- .... ....|--- .... ....|--- .... B..3
....|.1|C-6 A..B ....|--- .... ....|--- .... B..4
....|.2|--- .... ....|--- .... ....|--- .... B..3
....|.2|--- .... ....|--- ...A ....|--- ...A B..4
....|.2|--- .... ....|--- .... ....|--- .... B..3
....|.3|--- ...A ....|--- .... ....|--- .... B..4
....|.3|--- .... ....|--- .... ....|--- .... B..3
....|.3|--- .... ....|--- ...9 ....|--- ...9 B..4
....|.4|--- .... ....|--- .... ....|--- .... B..3
....|.4|--- ...9 ....|--- .... ....|--- .... B..4
....|.4|--- .... ....|--- .... ....|--- .... B..3
....|.5|--- .... ....|C#6 ...C ....|C#7 ...C B..4
....|.5|--- .... ....|--- .... ....|--- .... B..3
....|.5|C#6 ...C ....|--- ...B ....|--- ...B B..4
....|.6|--- .... ....|--- .... ....|--- .... B..3
....|.6|--- ...B ....|--- ...A ....|--- ...A B..4
....|.6|--- .... ....|--- .... ....|--- .... B..3
....|.7|--- ...A ....|--- ...9 ....|--- ...9 B..4
....|.7|--- .... ....|--- .... ....|--- .... B..3
....|.7|--- ...9 ....|--- ...8 ....|--- ...8 B..4
....|.8|--- .... ....|--- .... ....|--- .... B..3
....|.8|--- ...8 ....|--- ...7 ....|--- ...7 B..4
....|.8|--- .... ....|--- .... ....|--- .... B..3

[Pattern5]
....|.4|R-- .... ....|C#6 E.6F ....|C#7 8.6F B..4
....|.4|--- .... ....|--- .... ....|--- .... B..3
....|.4|C#6 8.6F ....|--- .... ....|--- .... B..4
....|.3|--- .... ....|--- .... ....|--- .... B..3
....|.3|--- .... ....|--- .... ....|--- .... B..4
....|.3|--- .... ....|--- .... ....|--- .... B..3
....|.2|--- .... ....|--- .... ....|--- .... B..4
....|.2|--- .... ....|--- .... ....|--- .... B..3
....|.2|--- .... ....|--- .... ....|--- .... B..4
....|.1|--- .... ....|--- .... ....|--- .... B..3
....|.1|--- .... ....|--- .... ....|--- .... B..4
....|.1|--- .... ....|--- .... ....|--- .... B..3
....|..|--- .... ....|--- .... ....|--- .... B..4
....|..|--- .... ....|--- .... ....|--- .... B..3
....|..|--- .... ....|--- .... ....|--- .... B..4
....|..|--- .... ....|--- .... ....|--- .... B..3
....|..|--- .... ....|--- .... ....|--- .... B..4
....|..|--- .... ....|--- .... ....|--- .... B..3
....|..|--- .... ....|--- .... ....|--- .... B..4
....|..|--- .... ....|--- .... ....|--- .... B..3
....|..|--- .... ....|--- .... ....|--- .... B..4
....|..|--- .... ....|--- .... ....|--- .... B..3
....|..|--- .... ....|--- .... ....|--- .... B..4
....|..|--- .... ....|--- .... ....|--- .... B..3
....|.4|--- .... ....|D#6 .... ....|D#7 .... B..4
....|.4|--- .... ....|--- .... ....|--- .... B..3
....|.4|D#6 .... ....|--- .... ....|--- .... B..4
....|.3|--- .... ....|--- .... ....|--- .... B..3
....|.3|--- .... ....|--- .... ....|--- .... B..4
....|.3|--- .... ....|--- .... ....|--- .... B..3
....|.2|--- .... ....|--- .... ....|--- .... B..4
....|.2|--- .... ....|--- .... ....|--- .... B..3
....|.3|--- .... ....|D#6 ...E ....|D#7 ...E B..4
....|.3|--- .... ....|--- .... ....|--- .... B..3
....|.3|D#6 ...E ....|--- .... ....|--- .... B..4
....|.2|--- .... ....|--- .... ....|--- .... B..3
....|.2|--- .... ....|--- .... ....|--- .... B..4
....|.2|--- .... ....|--- .... ....|--- .... B..3
....|.1|--- .... ....|--- .... ....|--- .... B..4
....|.1|--- .... ....|--- .... ....|--- .... B..3
....|.1|--- .... ....|--- .... ....|--- .... B..4
....|..|--- .... ....|--- .... ....|--- .... B..3
....|..|--- .... ....|--- .... ....|--- .... B..4
....|..|--- .... ....|--- .... ....|--- .... B..3
....|..|--- .... ....|--- .... ....|--- .... B..4
....|..|--- .... ....|--- .... ....|--- .... B..3
....|..|--- .... ....|--- .... ....|--- .... B..4
....|..|--- .... ....|--- .... ....|--- .... B..3
....|.4|--- .... ....|D#6 ..9F ....|D#7 ..9F B..4
....|.4|--- .... ....|--- .... ....|--- .... B..3
....|.4|D#6 ..9F ....|--- .... ....|--- .... B..4
....|.3|--- .... ....|--- .... ....|--- .... B..3
....|.3|--- .... ....|--- .... ....|--- .... B..4
....|.3|--- .... ....|--- .... ....|--- .... B..3
....|.2|--- .... ....|--- .... ....|--- .... B..4
....|.2|--- .... ....|--- .... ....|--- .... B..3
....|.2|--- .... ....|--- .... ....|--- .... B..4
....|.1|--- .... ....|--- .... ....|--- .... B..3
....|.1|--- .... ....|--- .... ....|--- .... B..4
....|.1|--- .... ....|--- .... ....|--- .... B..3
....|..|--- .... ....|--- .... ....|--- .... B..4
....|..|--- .... ....|--- .... ....|--- .... B..3
....|..|--- .... ....|--- .... ....|--- .... B..4
....|..|--- .... ....|--- .... ....|--- .... B..3
....|..|--- .... ....|--- .... ....|--- .... B..4
....|..|--- .... ....|--- .... ....|--- .... B..3
....|..|--- .... ....|--- .... ....|--- .... B..4
....|..|--- .... ....|--- .... ....|--- .... B..3
....|..|--- .... ....|--- .... ....|--- .... B..4
....|..|--- .... ....|--- .... ....|--- .... B..3
....|..|--- .... ....|--- .... ....|--- .... B..4
....|..|--- .... ....|--- .... ....|--- .... B..3
....|.4|--- .... ....|C#6 ..8. ....|C#7 ..8. B..4
....|.4|--- .... ....|--- .... ....|--- .... B..3
....|.4|C#6 ..8. ....|--- .... ....|--- .... B..4
....|.3|--- .... ....|--- .... ....|--- .... B..3
....|.3|--- .... ....|--- .... ....|--- .... B..4
....|.3|--- .... ....|--- .... ....|--- .... B..3
....|.2|--- .... ....|--- .... ....|--- .... B..4
....|.2|--- .... ....|--- .... ....|--- .... B..3
....|.3|--- .... ....|C#6 ...E ....|C#7 ...E B..4
....|.3|--- .... ....|--- .... ....|--- .... B..3
....|.3|C#6 ...E ....|--- .... ....|--- .... B..4
....|.2|--- .... ....|--- .... ....|--- .... B..3
....|.2|--- .... ....|--- .... ....|--- .... B..4
....|.2|--- .... ....|--- .... ....|--- .... B..3
....|.1|--- .... ....|--- .... ....|--- .... B..4
....|.1|--- .... ....|--- .... ....|--- .... B..3
....|.1|--- .... ....|--- .... ....|--- .... B..4
....|..|--- .... ....|--- .... ....|--- .... B..3
....|..|--- .... ....|--- .... ....|--- .... B..4
....|..|--- .... ....|--- .... ....|--- .... B..3
....|..|--- .... ....|--- .... ....|--- .... B..4
....|..|--- .... ....|--- .... ....|--- .... B..3
....|..|--- .... ....|--- .... ....|--- .... B..4
....|..|--- .... ....|--- .... ....|--- .... B..3

[Pattern6]
....|.4|--- .... ....|C#6 ..9F ....|C#7 ..9F B..4
....|.4|--- .... ....|--- .... ....|--- .... B..3
....|.4|C#6 ..9F ....|--- .... ....|--- .... B..4
....|.3|--- .... ....|--- .... ....|--- .... B..3
....|.3|--- .... ....|--- .... ....|--- .... B..4
....|.3|--- .... ....|--- .... ....|--- .... B..3
....|.2|--- .... ....|--- .... ....|--- .... B..4
....|.2|--- .... ....|--- .... ....|--- .... B..3
....|.2|--- .... ....|--- .... ....|--- .... B..4
....|.1|--- .... ....|--- .... ....|--- .... B..3
....|.1|--- .... ....|--- .... ....|--- .... B..4
....|.1|--- .... ....|--- .... ....|--- .... B..3
....|..|--- .... ....|--- .... ....|--- .... B..4
....|..|--- .... ....|--- .... ....|--- .... B..3
....|..|--- .... ....|--- .... ....|--- .... B..4
....|..|--- .... ....|--- .... ....|--- .... B..3
....|..|--- .... ....|--- .... ....|--- .... B..4
....|..|--- .... ....|--- .... ....|--- .... B..3
....|..|--- .... ....|--- .... ....|--- .... B..4
....|..|--- .... ....|--- .... ....|--- .... B..3
....|..|--- .... ....|--- .... ....|--- .... B..4
....|..|--- .... ....|--- .... ....|--- .... B..3
....|..|--- .... ....|--- .... ....|--- .... B..4
....|..|--- .... ....|--- .... ....|--- .... B..3
....|.4|--- .... ....|B-5 ..8. ....|B-6 ..8. B..4
....|.4|--- .... ....|--- .... ....|--- .... B..3
....|.4|B-5 ..8. ....|--- .... ....|--- .... B..4
....|.3|--- .... ....|--- .... ....|--- .... B..3
....|.3|--- .... ....|--- .... ....|--- .... B..4
....|.3|--- .... ....|--- .... ....|--- .... B..3
....|.2|--- .... ....|--- .... ....|--- .... B..4
....|.2|--- .... ....|--- .... ....|--- .... B..3
....|.3|--- .... ....|B-5 ...E ....|B-6 ...E B..4
....|.3|--- .... ....|--- .... ....|--- .... B..3
....|.3|B-5 ...E ....|--- .... ....|--- .... B..4
....|.2|--- .... ....|--- .... ....|--- .... B..3
....|.2|--- .... ....|--- .... ....|--- .... B..4
....|.2|--- .... ....|--- .... ....|--- .... B..3
....|.1|--- .... ....|--- .... ....|--- .... B..4
....|.1|--- .... ....|--- .... ....|--- .... B..3
....|.1|--- .... ....|--- .... ....|--- .... B..4
....|..|--- .... ....|--- .... ....|--- .... B..3
....|..|--- .... ....|--- .... ....|--- .... B..4
....|..|--- .... ....|--- .... ....|--- .... B..3
....|..|--- .... ....|--- .... ....|--- .... B..4
....|..|--- .... ....|--- .... ....|--- .... B..3
....|..|--- .... ....|--- .... ....|--- .... B..4
....|..|--- .... ....|--- .... ....|--- .... B..3
....|.4|--- .... ....|B-5 ..9F ....|B-6 ..9F B..4
....|.4|--- .... ....|--- .... ....|--- .... B..3
....|.4|B-5 ..9F ....|--- .... ....|--- .... B..4
....|.3|--- .... ....|--- .... ....|--- .... B..3
....|.3|--- .... ....|--- .... ....|--- .... B..4
....|.3|--- .... ....|--- .... ....|--- .... B..3
....|.2|--- .... ....|--- .... ....|--- .... B..4
....|.2|--- .... ....|--- .... ....|--- .... B..3
....|.2|--- .... ....|--- .... ....|--- .... B..4
....|.1|--- .... ....|--- .... ....|--- .... B..3
....|.1|--- .... ....|--- .... ....|--- .... B..4
....|.1|--- .... ....|--- .... ....|--- .... B..3
....|..|--- .... ....|--- .... ....|--- .... B..4
....|..|--- .... ....|--- .... ....|--- .... B..3
....|..|--- .... ....|--- .... ....|--- .... B..4
....|..|--- .... ....|--- .... ....|--- .... B..3
....|..|--- .... ....|--- .... ....|--- .... B..4
....|..|--- .... ....|--- .... ....|--- .... B..3
....|..|--- .... ....|--- .... ....|--- .... B..4
....|..|--- .... ....|--- .... ....|--- .... B..3
....|..|--- .... ....|--- .... ....|--- .... B..4
....|..|--- .... ....|--- .... ....|--- .... B..3
....|..|--- .... ....|--- .... ....|--- .... B..4
....|..|--- .... ....|--- .... ....|--- .... B..3
....|.4|--- .... ....|C#6 .... ....|C#7 .... B..4
....|.4|--- .... ....|--- .... ....|--- .... B..3
....|.4|C#6 .... ....|--- .... ....|--- .... B..4
....|.3|--- .... ....|--- .... ....|--- .... B..3
....|.3|--- .... ....|--- .... ....|--- .... B..4
....|.3|--- .... ....|--- .... ....|--- .... B..3
....|.2|--- .... ....|--- .... ....|--- .... B..4
....|.2|--- .... ....|--- .... ....|--- .... B..3
....|.3|--- .... ....|C#6 ...E ....|C#7 ...E B..4
....|.3|--- .... ....|--- .... ....|--- .... B..3
....|.3|C#6 ...E ....|--- .... ....|--- .... B..4
....|.2|--- .... ....|--- .... ....|--- .... B..3
....|.2|--- .... ....|--- .... ....|--- .... B..4
....|.2|--- .... ....|--- .... ....|--- .... B..3
....|.1|--- .... ....|--- .... ....|--- .... B..4
....|.1|--- .... ....|--- .... ....|--- .... B..3
....|.1|--- .... ....|C#6 ...F ....|C#7 ...F B..4
....|..|--- .... ....|--- .... ....|--- .... B..3
....|..|C#6 ...F ....|--- .... ....|--- .... B..4
....|..|--- .... ....|--- .... ....|--- .... B..3
....|..|--- .... ....|--- .... ....|--- .... B..4
....|..|--- .... ....|--- .... ....|--- .... B..3
....|..|--- .... ....|--- .... ....|--- .... B..4
....|..|--- .... ....|--- .... ....|--- .... B..3

[Pattern7]
....|.4|--- .... ....|B-5 ..6. ....|B-6 ..6. B..4
....|.4|--- .... ....|--- .... ....|--- .... B..3
....|.4|B-5 ..6. ....|--- .... ....|--- .... B..4
....|.4|--- .... ....|--- .... ....|--- .... B..3
....|.3|--- .... ....|--- .... ....|--- .... B..4
....|.3|--- .... ....|--- .... ....|--- .... B..3
....|.3|--- .... ....|--- .... ....|--- .... B..4
....|.2|--- .... ....|--- .... ....|--- .... B..3
....|.2|--- .... ....|--- .... ....|--- .... B..4
....|.2|--- .... ....|--- .... ....|--- .... B..3
....|.2|--- .... ....|--- .... ....|--- .... B..4
....|.2|--- .... ....|--- .... ....|--- .... B..3
....|.1|--- .... ....|--- .... ....|--- .... B..4
....|.1|--- .... ....|--- .... ....|--- .... B..3
....|.1|--- .... ....|--- .... ....|--- .... B..4
....|.1|--- .... ....|--- .... ....|--- .... B..3
....|..|--- .... ....|--- .... ....|--- .... B..4
....|..|--- .... ....|--- .... ....|--- .... B..3
....|..|--- .... ....|--- .... ....|--- .... B..4
....|..|--- .... ....|--- .... ....|--- .... B..3
....|..|--- .... ....|--- .... ....|--- .... B..4
....|..|--- .... ....|--- .... ....|--- .... B..3
....|..|--- .... ....|--- .... ....|--- .... B..4
....|..|--- .... ....|--- .... ....|--- .... B..3
....|.3|--- .... ....|B-5 .... ....|B-6 .... B..4
....|.3|--- .... ....|--- .... ....|--- .... B..3
....|.3|B-5 .... ....|--- .... ....|--- .... B..4
....|.3|--- .... ....|--- .... ....|--- .... B..3
....|.2|--- .... ....|--- .... ....|--- .... B..4
....|.2|--- .... ....|--- .... ....|--- .... B..3
....|.2|--- .... ....|--- .... ....|--- .... B..4
....|.2|--- .... ....|--- .... ....|--- .... B..3
....|.2|--- .... ....|B-5 ...E ....|B-6 ...E B..4
....|.2|--- .... ....|--- .... ....|--- .... B..3
....|.2|B-5 ...E ....|--- .... ....|--- .... B..4
....|.2|--- .... ....|--- .... ....|--- .... B..3
....|.1|--- .... ....|--- .... ....|--- .... B..4
....|.1|--- .... ....|--- .... ....|--- .... B..3
....|.1|--- .... ....|--- .... ....|--- .... B..4
....|.1|--- .... ....|--- .... ....|--- .... B..3
....|..|--- .... ....|--- .... ....|--- .... B..4
....|..|--- .... ....|--- .... ....|--- .... B..3
....|..|--- .... ....|--- .... ....|--- .... B..4
....|..|--- .... ....|--- .... ....|--- .... B..3
....|..|--- .... ....|--- .... ....|--- .... B..4
....|..|--- .... ....|--- .... ....|--- .... B..3
....|..|--- .... ....|--- .... ....|--- .... B..4
....|..|--- .... ....|--- .... ....|--- .... B..3
....|.2|--- .... ....|B-5 .... ....|B-6 .... B..4
....|.2|--- .... ....|--- .... ....|--- .... B..3
....|.2|B-5 .... ....|--- .... ....|--- .... B..4
....|.2|--- .... ....|--- .... ....|--- .... B..3
....|.2|--- .... ....|--- .... ....|--- .... B..4
....|.2|--- .... ....|--- .... ....|--- .... B..3
....|.2|--- .... ....|--- .... ....|--- .... B..4
....|.2|--- .... ....|--- .... ....|--- .... B..3
....|.1|--- .... ....|--- .... ....|--- .... B..4
....|.1|--- .... ....|--- .... ....|--- .... B..3
....|.1|--- .... ....|--- .... ....|--- .... B..4
....|.1|--- .... ....|--- .... ....|--- .... B..3
....|.1|--- .... ....|--- .... ....|--- .... B..4
....|.1|--- .... ....|--- .... ....|--- .... B..3
....|.1|--- .... ....|--- .... ....|--- .... B..4
....|.1|--- .... ....|--- .... ....|--- .... B..3
....|..|--- .... ....|--- .... ....|--- .... B..4
....|..|--- .... ....|--- .... ....|--- .... B..3
....|..|--- .... ....|--- .... ....|--- .... B..4
....|..|--- .... ....|--- .... ....|--- .... B..3
....|..|--- .... ....|--- .... ....|--- .... B..4
....|..|--- .... ....|--- .... ....|--- .... B..3
....|..|--- .... ....|--- .... ....|--- .... B..4
....|..|--- .... ....|--- .... ....|--- .... B..3
....|.1|--- .... ....|--- .... ....|--- .... B..4
....|.1|--- .... ....|--- .... ....|--- .... B..3
....|.1|--- .... ....|--- .... ....|--- .... B..4
....|.2|--- .... ....|--- .... ....|--- .... B..3
....|.2|--- .... ....|--- .... ....|--- .... B..4
....|.2|--- .... ....|--- .... ....|--- .... B..3
....|.3|--- .... ....|--- .... ....|--- .... B..4
....|.3|--- .... ....|--- .... ....|--- .... B..3
....|.3|--- .... ....|--- .... ....|--- .... B..4
....|.4|--- .... ....|--- .... ....|--- .... B..3
....|.4|--- .... ....|--- .... ....|--- .... B..4
....|.4|--- .... ....|--- .... ....|--- .... B..3
....|.5|--- .... ....|F-5 C.9A ....|F-6 A..B B..4
....|.5|--- .... ....|--- .... ....|--- .... B..3
....|.5|F-5 A.9B ....|--- ...B ....|--- .... B..4
....|.6|--- .... ....|--- .... ....|--- .... B..3
....|.6|--- .... ....|--- ...C ....|--- .... B..4
....|.6|--- .... ....|--- .... ....|--- .... B..3
....|.7|--- .... ....|--- ...D ....|--- .... B..4
....|.7|--- .... ....|--- .... ....|--- .... B..3
....|.7|--- .... ....|F-5 9..E ....|F-6 9... B..4
....|.8|--- .... ....|--- .... ....|--- .... B..3
....|.8|F-5 9... ....|--- .... ....|--- .... B..4
....|.8|--- .... ....|--- .... ....|--- .... B..3

[Pattern8]
....|.5|--- .... ....|F-5 E.9F ....|F-6 8.9F B..4
....|.4|--- .... ....|--- .... ....|--- .... B..3
....|.4|F-5 8.9F ....|--- .... ....|--- .... B..4
....|.3|--- .... ....|--- .... ....|--- .... B..3
....|.3|--- .... ....|--- .... ....|--- .... B..4
....|.2|--- .... ....|--- .... ....|--- .... B..3
....|.2|--- .... ....|--- .... ....|--- .... B..4
....|.1|--- .... ....|--- .... ....|--- .... B..3
....|.3|--- .... ....|G#5 ..3. ....|G#6 F.3. B..4
....|.3|--- .... ....|--- .... ....|--- .... B..3
....|.2|G#5 F.3. ....|--- .... ....|--- .... B..4
....|.2|--- .... ....|--- .... ....|--- .... B..3
....|.1|--- .... ....|--- .... ....|--- .... B..4
....|.1|--- .... ....|--- .... ....|--- .... B..3
....|..|--- .... ....|--- .... ....|--- .... B..4
....|..|--- .... ....|--- .... ....|--- .... B..3
....|.2|--- .... ....|F-5 ..9B ....|F-6 ..9B B..4
....|.2|--- .... ....|--- .... ....|--- .... B..3
....|.2|F-5 ..9B ....|--- .... ....|--- .... B..4
....|.1|--- .... ....|--- .... ....|--- .... B..3
....|.1|--- .... ....|G#5 ..3. ....|G#6 ..3. B..4
....|.1|--- .... ....|--- .... ....|--- .... B..3
....|..|G#5 ..3. ....|--- .... ....|--- .... B..4
....|..|--- .... ....|--- .... ....|--- .... B..3
....|.2|--- .... ....|F-5 ..9F ....|F-6 ..9F B..4
....|.2|--- .... ....|--- .... ....|--- .... B..3
....|.2|F-5 ..9F ....|--- .... ....|--- .... B..4
....|.1|--- .... ....|--- .... ....|--- .... B..3
....|.1|--- .... ....|--- .... ....|--- .... B..4
....|.1|--- .... ....|--- .... ....|--- .... B..3
....|..|--- .... ....|--- .... ....|--- .... B..4
....|..|--- .... ....|--- .... ....|--- .... B..3
....|.3|--- .... ....|G#5 ..3. ....|G#6 ..3. B..4
....|.3|--- .... ....|--- .... ....|--- .... B..3
....|.2|G#5 ..3. ....|--- .... ....|--- .... B..4
....|.2|--- .... ....|--- .... ....|--- .... B..3
....|.1|--- .... ....|--- .... ....|--- .... B..4
....|..|--- .... ....|--- .... ....|--- .... B..3
....|..|--- .... ....|--- .... ....|--- .... B..4
....|..|--- .... ....|--- .... ....|--- .... B..3
....|.3|--- .... ....|A#5 ..C. ....|A#6 ..C. B..4
....|.3|--- .... ....|--- .... ....|--- .... B..3
....|.2|A#5 ..C. ....|--- .... ....|--- .... B..4
....|.2|--- .... ....|--- .... ....|--- .... B..3
....|.1|--- .... ....|G#5 ..3B ....|G#6 ..3B B..4
....|.1|--- .... ....|--- .... ....|--- .... B..3
....|..|G#5 ..3B ....|--- .... ....|--- .... B..4
....|..|--- .... ....|--- .... ....|--- .... B..3
....|.5|--- .... ....|D#5 ..6F ....|D#6 ..6F B..4
....|.4|--- .... ....|--- .... ....|--- .... B..3
....|.4|D#5 ..6F ....|--- .... ....|--- .... B..4
....|.3|--- .... ....|--- .... ....|--- .... B..3
....|.3|--- .... ....|--- .... ....|--- .... B..4
....|.2|--- .... ....|--- .... ....|--- .... B..3
....|.2|--- .... ....|--- .... ....|--- .... B..4
....|.1|--- .... ....|--- .... ....|--- .... B..3
....|.3|--- .... ....|G-5 ..9. ....|G-6 ..9. B..4
....|.3|--- .... ....|--- .... ....|--- .... B..3
....|.2|G-5 ..9. ....|--- .... ....|--- .... B..4
....|.2|--- .... ....|--- .... ....|--- .... B..3
....|.1|--- .... ....|--- .... ....|--- .... B..4
....|.1|--- .... ....|--- .... ....|--- .... B..3
....|..|--- .... ....|--- .... ....|--- .... B..4
....|..|--- .... ....|--- .... ....|--- .... B..3
....|.2|--- .... ....|D#5 ..6B ....|D#6 ..6B B..4
....|.2|--- .... ....|--- .... ....|--- .... B..3
....|.2|D#5 ..6B ....|--- .... ....|--- .... B..4
....|.1|--- .... ....|--- .... ....|--- .... B..3
....|.1|--- .... ....|G-5 ..9. ....|G-6 ..9. B..4
....|.1|--- .... ....|--- .... ....|--- .... B..3
....|..|G-5 ..9. ....|--- .... ....|--- .... B..4
....|..|--- .... ....|--- .... ....|--- .... B..3
....|.2|--- .... ....|D#5 ..6F ....|D#6 ..6F B..4
....|.2|--- .... ....|--- .... ....|--- .... B..3
....|.2|D#5 ..6F ....|--- .... ....|--- .... B..4
....|.1|--- .... ....|--- .... ....|--- .... B..3
....|.1|--- .... ....|--- .... ....|--- .... B..4
....|.1|--- .... ....|--- .... ....|--- .... B..3
....|..|--- .... ....|--- .... ....|--- .... B..4
....|..|--- .... ....|--- .... ....|--- .... B..3
....|.3|--- .... ....|G-5 ..9. ....|G-6 ..9. B..4
....|.3|--- .... ....|--- .... ....|--- .... B..3
....|.2|G-5 ..9. ....|--- .... ....|--- .... B..4
....|.2|--- .... ....|--- .... ....|--- .... B..3
....|.1|--- .... ....|--- .... ....|--- .... B..4
....|..|--- .... ....|--- .... ....|--- .... B..3
....|..|--- .... ....|--- .... ....|--- .... B..4
....|..|--- .... ....|--- .... ....|--- .... B..3
....|.3|--- .... ....|A#5 ..3. ....|A#6 ..3. B..4
....|.3|--- .... ....|--- .... ....|--- .... B..3
....|.2|A#5 ..3. ....|--- .... ....|--- .... B..4
....|.2|--- .... ....|--- .... ....|--- .... B..3
....|.1|--- .... ....|G-5 ..9B ....|G-6 ..9B B..4
....|.1|--- .... ....|--- .... ....|--- .... B..3
....|..|G-5 ..9B ....|--- .... ....|--- .... B..4
....|..|--- .... ....|--- .... ....|--- .... B..3

[Pattern9]
....|.5|--- .... ....|D#5 ..9F ....|D#6 ..9F B..4
....|.4|--- .... ....|--- .... ....|--- .... B..3
....|.4|D#5 ..9F ....|--- .... ....|--- .... B..4
....|.3|--- .... ....|--- .... ....|--- .... B..3
....|.3|--- .... ....|--- .... ....|--- .... B..4
....|.2|--- .... ....|--- .... ....|--- .... B..3
....|.2|--- .... ....|--- .... ....|--- .... B..4
....|.1|--- .... ....|--- .... ....|--- .... B..3
....|.3|--- .... ....|F#5 ..3. ....|F#6 ..3. B..4
....|.3|--- .... ....|--- .... ....|--- .... B..3
....|.2|F#5 ..3. ....|--- .... ....|--- .... B..4
....|.2|--- .... ....|--- .... ....|--- .... B..3
....|.1|--- .... ....|--- .... ....|--- .... B..4
....|.1|--- .... ....|--- .... ....|--- .... B..3
....|..|--- .... ....|--- .... ....|--- .... B..4
....|..|--- .... ....|--- .... ....|--- .... B..3
....|.2|--- .... ....|D#5 ..9B ....|D#6 ..9B B..4
....|.2|--- .... ....|--- .... ....|--- .... B..3
....|.2|D#5 ..9B ....|--- .... ....|--- .... B..4
....|.1|--- .... ....|--- .... ....|--- .... B..3
....|.1|--- .... ....|F#5 ..3. ....|F#6 ..3. B..4
....|.1|--- .... ....|--- .... ....|--- .... B..3
....|..|F#5 ..3. ....|--- .... ....|--- .... B..4
....|..|--- .... ....|--- .... ....|--- .... B..3
....|.2|--- .... ....|D#5 ..9F ....|D#6 ..9F B..4
....|.2|--- .... ....|--- .... ....|--- .... B..3
....|.2|D#5 ..9F ....|--- .... ....|--- .... B..4
....|.1|--- .... ....|--- .... ....|--- .... B..3
....|.1|--- .... ....|--- .... ....|--- .... B..4
....|.1|--- .... ....|--- .... ....|--- .... B..3
....|..|--- .... ....|--- .... ....|--- .... B..4
....|..|--- .... ....|--- .... ....|--- .... B..3
....|.3|--- .... ....|F#5 ..3. ....|F#6 ..3. B..4
....|.3|--- .... ....|--- .... ....|--- .... B..3
....|.2|F#5 ..3. ....|--- .... ....|--- .... B..4
....|.2|--- .... ....|--- .... ....|--- .... B..3
....|.1|--- .... ....|--- .... ....|--- .... B..4
....|..|--- .... ....|--- .... ....|--- .... B..3
....|..|--- .... ....|--- .... ....|--- .... B..4
....|..|--- .... ....|--- .... ....|--- .... B..3
....|.3|--- .... ....|B-5 ..6. ....|B-6 ..6. B..4
....|.3|--- .... ....|--- .... ....|--- .... B..3
....|.2|B-5 ..6. ....|--- .... ....|--- .... B..4
....|.2|--- .... ....|--- .... ....|--- .... B..3
....|.1|--- .... ....|F#5 ..3B ....|F#6 ..3B B..4
....|.1|--- .... ....|--- .... ....|--- .... B..3
....|..|F#5 ..3B ....|--- .... ....|--- .... B..4
....|..|--- .... ....|--- .... ....|--- .... B..3
....|.5|--- .... ....|C#5 ..8F ....|C#6 ..8F B..4
....|.4|--- .... ....|--- .... ....|--- .... B..3
....|.4|C#5 ..8F ....|--- .... ....|--- .... B..4
....|.3|--- .... ....|--- .... ....|--- .... B..3
....|.3|--- .... ....|--- .... ....|--- .... B..4
....|.2|--- .... ....|--- .... ....|--- .... B..3
....|.2|--- .... ....|--- .... ....|--- .... B..4
....|.1|--- .... ....|--- .... ....|--- .... B..3
....|.3|--- .... ....|F-5 ..4. ....|F-6 ..4. B..4
....|.3|--- .... ....|--- .... ....|--- .... B..3
....|.2|F-5 ..4. ....|--- .... ....|--- .... B..4
....|.2|--- .... ....|--- .... ....|--- .... B..3
....|.1|--- .... ....|--- .... ....|--- .... B..4
....|.1|--- .... ....|--- .... ....|--- .... B..3
....|..|--- .... ....|--- .... ....|--- .... B..4
....|..|--- .... ....|--- .... ....|--- .... B..3
....|.2|--- .... ....|C#5 ..8B ....|C#6 ..8B B..4
....|.2|--- .... ....|--- .... ....|--- .... B..3
....|.2|C#5 ..8B ....|--- .... ....|--- .... B..4
....|.1|--- .... ....|--- .... ....|--- .... B..3
....|.1|--- .... ....|F-5 ..4. ....|F-6 ..4. B..4
....|.1|--- .... ....|--- .... ....|--- .... B..3
....|..|F-5 ..4. ....|--- .... ....|--- .... B..4
....|..|--- .... ....|--- .... ....|--- .... B..3
....|.2|--- .... ....|C#5 ..8F ....|C#6 ..8F B..4
....|.2|--- .... ....|--- .... ....|--- .... B..3
....|.2|C#5 ..8F ....|--- .... ....|--- .... B..4
....|.1|--- .... ....|--- .... ....|--- .... B..3
....|.1|--- .... ....|--- .... ....|--- .... B..4
....|.1|--- .... ....|--- .... ....|--- .... B..3
....|..|--- .... ....|--- .... ....|--- .... B..4
....|..|--- .... ....|--- .... ....|--- .... B..3
....|.3|--- .... ....|F-5 ..4. ....|F-6 ..4. B..4
....|.3|--- .... ....|--- .... ....|--- .... B..3
....|.2|F-5 ..4. ....|--- .... ....|--- .... B..4
....|.2|--- .... ....|--- .... ....|--- .... B..3
....|.1|--- .... ....|--- .... ....|--- .... B..4
....|..|--- .... ....|--- .... ....|--- .... B..3
....|..|--- .... ....|--- .... ....|--- .... B..4
....|..|--- .... ....|--- .... ....|--- .... B..3
....|.3|--- .... ....|A#5 ..5. ....|A#6 ..5. B..4
....|.3|--- .... ....|--- .... ....|--- .... B..3
....|.2|A#5 ..5. ....|--- .... ....|--- .... B..4
....|.2|--- .... ....|--- .... ....|--- .... B..3
....|.1|--- .... ....|F-5 9.4B ....|F-6 9.4B B..4
....|.1|--- .... ....|--- .... ....|--- .... B..3
....|..|F-5 9.4B ....|--- .... ....|--- .... B..4
....|..|--- .... ....|--- .... ....|--- .... B..3

[Pattern10]
....|.5|--- .... ....|F-5 E.9F ....|F-6 8.9F B..4
....|.4|--- .... ....|--- .... ....|--- .... B..3
....|.4|F-5 8.9F ....|--- .... ....|--- .... B..4
....|.3|--- .... ....|--- .... ....|--- .... B..3
....|.3|--- .... ....|--- .... ....|--- .... B..4
....|.2|--- .... ....|--- .... ....|--- .... B..3
....|.2|--- .... ....|--- .... ....|--- .... B..4
....|.1|--- .... ....|--- .... ....|--- .... B..3
....|.3|--- .... ....|G#5 ..3. ....|G#6 F.3. B..4
....|.3|--- .... ....|--- .... ....|--- .... B..3
....|.2|G#5 F.3. ....|--- .... ....|--- .... B..4
....|.2|--- .... ....|--- .... ....|--- .... B..3
....|.1|--- .... ....|--- .... ....|--- .... B..4
....|.1|--- .... ....|--- .... ....|--- .... B..3
....|..|--- .... ....|--- .... ....|--- .... B..4
....|..|--- .... ....|--- .... ....|--- .... B..3
....|.2|--- .... ....|F-5 ..9B ....|F-6 ..9B B..4
....|.2|--- .... ....|--- .... ....|--- .... B..3
....|.2|F-5 ..9B ....|--- .... ....|--- .... B..4
....|.1|--- .... ....|--- .... ....|--- .... B..3
....|.1|--- .... ....|G#5 ..3. ....|G#6 ..3. B..4
....|.1|--- .... ....|--- .... ....|--- .... B..3
....|..|G#5 ..3. ....|--- .... ....|--- .... B..4
....|..|--- .... ....|--- .... ....|--- .... B..3
....|.2|--- .... ....|F-5 ..9F ....|F-6 ..9F B..4
....|.2|--- .... ....|--- .... ....|--- .... B..3
....|.2|F-5 ..9F ....|--- .... ....|--- .... B..4
....|.1|--- .... ....|--- .... ....|--- .... B..3
....|.1|--- .... ....|--- .... ....|--- .... B..4
....|.1|--- .... ....|--- .... ....|--- .... B..3
....|..|--- .... ....|--- .... ....|--- .... B..4
....|..|--- .... ....|--- .... ....|--- .... B..3
....|.3|--- .... ....|G#5 ..3. ....|G#6 ..3. B..4
....|.3|--- .... ....|--- .... ....|--- .... B..3
....|.2|G#5 ..3. ....|--- .... ....|--- .... B..4
....|.2|--- .... ....|--- .... ....|--- .... B..3
....|.1|--- .... ....|--- .... ....|--- .... B..4
....|..|--- .... ....|--- .... ....|--- .... B..3
....|..|--- .... ....|--- .... ....|--- .... B..4
....|..|--- .... ....|--- .... ....|--- .... B..3
....|.3|--- .... ....|A#5 ..C. ....|A#6 ..C. B..4
....|.3|--- .... ....|--- .... ....|--- .... B..3
....|.2|A#5 ..C. ....|--- .... ....|--- .... B..4
....|.2|--- .... ....|--- .... ....|--- .... B..3
....|.1|--- .... ....|G#5 ..3B ....|G#6 ..3B B..4
....|.1|--- .... ....|--- .... ....|--- .... B..3
....|..|G#5 ..3B ....|--- .... ....|--- .... B..4
....|..|--- .... ....|--- .... ....|--- .... B..3
....|.5|--- .... ....|D#5 ..6F ....|D#6 ..6F B..4
....|.4|--- .... ....|--- .... ....|--- .... B..3
....|.4|D#5 ..6F ....|--- .... ....|--- .... B..4
....|.3|--- .... ....|--- .... ....|--- .... B..3
....|.3|--- .... ....|--- .... ....|--- .... B..4
....|.2|--- .... ....|--- .... ....|--- .... B..3
....|.2|--- .... ....|--- .... ....|--- .... B..4
....|.1|--- .... ....|--- .... ....|--- .... B..3
....|.3|--- .... ....|G-5 ..9. ....|G-6 ..9. B..4
....|.3|--- .... ....|--- .... ....|--- .... B..3
....|.2|G-5 ..9. ....|--- .... ....|--- .... B..4
....|.2|--- .... ....|--- .... ....|--- .... B..3
....|.1|--- .... ....|--- .... ....|--- .... B..4
....|.1|--- .... ....|--- .... ....|--- .... B..3
....|..|--- .... ....|--- .... ....|--- .... B..4
....|..|--- .... ....|--- .... ....|--- .... B..3
....|.2|--- .... ....|D#5 ..6B ....|D#6 ..6B B..4
....|.2|--- .... ....|--- .... ....|--- .... B..3
....|.2|D#5 ..6B ....|--- .... ....|--- .... B..4
....|.1|--- .... ....|--- .... ....|--- .... B..3
....|.1|--- .... ....|G-5 ..9. ....|G-6 ..9. B..4
....|.1|--- .... ....|--- .... ....|--- .... B..3
....|..|G-5 ..9. ....|--- .... ....|--- .... B..4
....|..|--- .... ....|--- .... ....|--- .... B..3
....|.2|--- .... ....|D#5 ..6F ....|D#6 ..6F B..4
....|.2|--- .... ....|--- .... ....|--- .... B..3
....|.2|D#5 ..6F ....|--- .... ....|--- .... B..4
....|.1|--- .... ....|--- .... ....|--- .... B..3
....|.1|--- .... ....|--- .... ....|--- .... B..4
....|.1|--- .... ....|--- .... ....|--- .... B..3
....|..|--- .... ....|--- .... ....|--- .... B..4
....|..|--- .... ....|--- .... ....|--- .... B..3
....|.3|--- .... ....|G-5 ..9. ....|G-6 ..9. B..4
....|.3|--- .... ....|--- .... ....|--- .... B..3
....|.2|G-5 ..9. ....|--- .... ....|--- .... B..4
....|.2|--- .... ....|--- .... ....|--- .... B..3
....|.1|--- .... ....|--- .... ....|--- .... B..4
....|..|--- .... ....|--- .... ....|--- .... B..3
....|..|--- .... ....|--- .... ....|--- .... B..4
....|..|--- .... ....|--- .... ....|--- .... B..3
....|.3|--- .... ....|A#5 ..3. ....|A#6 ..3. B..4
....|.3|--- .... ....|--- .... ....|--- .... B..3
....|.2|A#5 ..3. ....|--- .... ....|--- .... B..4
....|.2|--- .... ....|--- .... ....|--- .... B..3
....|.1|--- .... ....|G-5 ..9B ....|G-6 ..9B B..4
....|.1|--- .... ....|--- .... ....|--- .... B..3
....|..|G-5 ..9B ....|--- .... ....|--- .... B..4
....|..|--- .... ....|--- .... ....|--- .... B..3

[Pattern11]
....|.5|--- .... ....|D#5 ..9F ....|D#6 ..9F B..4
....|.4|--- .... ....|--- .... ....|--- .... B..3
....|.4|D#5 ..9F ....|--- .... ....|--- .... B..4
....|.3|--- .... ....|--- .... ....|--- .... B..3
....|.3|--- .... ....|--- .... ....|--- .... B..4
....|.2|--- .... ....|--- .... ....|--- .... B..3
....|.2|--- .... ....|--- .... ....|--- .... B..4
....|.1|--- .... ....|--- .... ....|--- .... B..3
....|.3|--- .... ....|F#5 ..3. ....|F#6 ..3. B..4
....|.3|--- .... ....|--- .... ....|--- .... B..3
....|.2|F#5 ..3. ....|--- .... ....|--- .... B..4
....|.2|--- .... ....|--- .... ....|--- .... B..3
....|.1|--- .... ....|--- .... ....|--- .... B..4
....|.1|--- .... ....|--- .... ....|--- .... B..3
....|..|--- .... ....|--- .... ....|--- .... B..4
....|..|--- .... ....|--- .... ....|--- .... B..3
....|.2|--- .... ....|D#5 ..9B ....|D#6 ..9B B..4
....|.2|--- .... ....|--- .... ....|--- .... B..3
....|.2|D#5 ..9B ....|--- .... ....|--- .... B..4
....|.1|--- .... ....|--- .... ....|--- .... B..3
....|.1|--- .... ....|F#5 ..3. ....|F#6 ..3. B..4
....|.1|--- .... ....|--- .... ....|--- .... B..3
....|..|F#5 ..3. ....|--- .... ....|--- .... B..4
....|..|--- .... ....|--- .... ....|--- .... B..3
....|.2|--- .... ....|D#5 ..9F ....|D#6 ..9F B..4
....|.2|--- .... ....|--- .... ....|--- .... B..3
....|.2|D#5 ..9F ....|--- .... ....|--- .... B..4
....|.1|--- .... ....|--- .... ....|--- .... B..3
....|.1|--- .... ....|--- .... ....|--- .... B..4
....|.1|--- .... ....|--- .... ....|--- .... B..3
....|..|--- .... ....|--- .... ....|--- .... B..4
....|..|--- .... ....|--- .... ....|--- .... B..3
....|.3|--- .... ....|F#5 ..3. ....|F#6 ..3. B..4
....|.3|--- .... ....|--- .... ....|--- .... B..3
....|.2|F#5 ..3. ....|--- .... ....|--- .... B..4
....|.2|--- .... ....|--- .... ....|--- .... B..3
....|.1|--- .... ....|--- .... ....|--- .... B..4
....|..|--- .... ....|--- .... ....|--- .... B..3
....|..|--- .... ....|--- .... ....|--- .... B..4
....|..|--- .... ....|--- .... ....|--- .... B..3
....|.3|--- .... ....|B-5 ..6. ....|B-6 ..6. B..4
....|.3|--- .... ....|--- .... ....|--- .... B..3
....|.2|B-5 ..6. ....|--- .... ....|--- .... B..4
....|.2|--- .... ....|--- .... ....|--- .... B..3
....|.1|--- .... ....|F#5 ..3B ....|F#6 ..3B B..4
....|.1|--- .... ....|--- .... ....|--- .... B..3
....|..|F#5 ..3B ....|--- .... ....|--- .... B..4
....|..|--- .... ....|--- .... ....|--- .... B..3
....|.5|--- .... ....|C#5 ..8F ....|C#6 ..8F B..4
....|.4|--- .... ....|--- .... ....|--- .... B..3
....|.4|C#5 ..8F ....|--- .... ....|--- .... B..4
....|.3|--- .... ....|--- .... ....|--- .... B..3
....|.3|--- .... ....|--- .... ....|--- .... B..4
....|.2|--- .... ....|--- .... ....|--- .... B..3
....|.2|--- .... ....|--- .... ....|--- .... B..4
....|.1|--- .... ....|--- .... ....|--- .... B..3
....|.3|--- .... ....|F-5 ..4. ....|F-6 ..4. B..4
....|.3|--- .... ....|--- .... ....|--- .... B..3
....|.2|F-5 ..4. ....|--- .... ....|--- .... B..4
....|.2|--- .... ....|--- .... ....|--- .... B..3
....|.1|--- .... ....|--- .... ....|--- .... B..4
....|.1|--- .... ....|--- .... ....|--- .... B..3
....|..|--- .... ....|--- .... ....|--- .... B..4
....|..|--- .... ....|--- .... ....|--- .... B..3
....|.2|--- .... ....|C#5 ..8B ....|C#6 ..8B B..4
....|.2|--- .... ....|--- .... ....|--- .... B..3
....|.2|C#5 ..8B ....|--- .... ....|--- .... B..4
....|.1|--- .... ....|--- .... ....|--- .... B..3
....|.1|--- .... ....|F-5 ..4. ....|F-6 ..4. B..4
....|.1|--- .... ....|--- .... ....|--- .... B..3
....|..|F-5 ..4. ....|--- .... ....|--- .... B..4
....|..|--- .... ....|--- .... ....|--- .... B..3
....|.2|--- .... ....|C#5 ..8F ....|C#6 ..8F B..4
....|.2|--- .... ....|--- .... ....|--- .... B..3
....|.2|C#5 ..8F ....|--- .... ....|--- .... B..4
....|.1|--- .... ....|--- .... ....|--- .... B..3
....|.1|--- .... ....|--- .... ....|--- .... B..4
....|.1|--- .... ....|--- .... ....|--- .... B..3
....|..|--- .... ....|--- .... ....|--- .... B..4
....|..|--- .... ....|--- .... ....|--- .... B..3
....|.3|--- .... ....|F-5 ..4. ....|F-6 ..4. B..4
....|.3|--- .... ....|--- .... ....|--- .... B..3
....|.2|F-5 ..4. ....|--- .... ....|--- .... B..4
....|.2|--- .... ....|--- .... ....|--- .... B..3
....|.1|--- .... ....|--- .... ....|--- .... B..4
....|..|--- .... ....|--- .... ....|--- .... B..3
....|..|--- .... ....|--- .... ....|--- .... B..4
....|..|--- .... ....|--- .... ....|--- .... B..3
....|.3|--- .... ....|A#5 ..5. ....|A#6 ..5. B..4
....|.3|--- .... ....|--- .... ....|--- .... B..3
....|.2|A#5 ..5. ....|--- .... ....|--- .... B..4
....|.2|--- .... ....|--- .... ....|--- .... B..3
....|.1|--- .... ....|F-5 9.4B ....|F-6 9.4B B..4
....|.1|--- .... ....|--- .... ....|--- .... B..3
....|..|F-5 9.4B ....|--- .... ....|--- .... B..4
....|..|--- .... ....|--- .... ....|--- .... B..3

[Pattern12]
....|.5|--- .... ....|E-5 E.3F ....|E-6 8.3F B..4
....|.4|--- .... ....|--- .... ....|--- .... B..3
....|.4|E-5 8.3F ....|--- .... ....|--- .... B..4
....|.3|--- .... ....|--- .... ....|--- .... B..3
....|.3|--- .... ....|--- .... ....|--- .... B..4
....|.2|--- .... ....|--- .... ....|--- .... B..3
....|.2|--- .... ....|--- .... ....|--- .... B..4
....|.1|--- .... ....|--- .... ....|--- .... B..3
....|.3|--- .... ....|A-5 ..6. ....|A-6 ..6. B..4
....|.3|--- .... ....|--- .... ....|--- .... B..3
....|.2|A-5 ..6. ....|--- .... ....|--- .... B..4
....|.2|--- .... ....|--- .... ....|--- .... B..3
....|.1|--- .... ....|--- .... ....|--- .... B..4
....|.1|--- .... ....|--- .... ....|--- .... B..3
....|..|--- .... ....|--- .... ....|--- .... B..4
....|..|--- .... ....|--- .... ....|--- .... B..3
....|.2|--- .... ....|E-5 ..3B ....|E-6 ..3B B..4
....|.2|--- .... ....|--- .... ....|--- .... B..3
....|.2|E-5 ..3B ....|--- .... ....|--- .... B..4
....|.1|--- .... ....|--- .... ....|--- .... B..3
....|.1|--- .... ....|A-5 ..6. ....|A-6 ..6. B..4
....|.1|--- .... ....|--- .... ....|--- .... B..3
....|..|A-5 ..6. ....|--- .... ....|--- .... B..4
....|..|--- .... ....|--- .... ....|--- .... B..3
....|.2|--- .... ....|E-5 ..3F ....|E-6 ..3F B..4
....|.2|--- .... ....|--- .... ....|--- .... B..3
....|.2|E-5 ..3F ....|--- .... ....|--- .... B..4
....|.1|--- .... ....|--- .... ....|--- .... B..3
....|.1|--- .... ....|--- .... ....|--- .... B..4
....|.1|--- .... ....|--- .... ....|--- .... B..3
....|..|--- .... ....|--- .... ....|--- .... B..4
....|..|--- .... ....|--- .... ....|--- .... B..3
....|.3|--- .... ....|A-5 ..6. ....|A-6 ..6. B..4
....|.3|--- .... ....|--- .... ....|--- .... B..3
....|.2|A-5 ..6. ....|--- .... ....|--- .... B..4
....|.2|--- .... ....|--- .... ....|--- .... B..3
....|.1|--- .... ....|--- .... ....|--- .... B..4
....|..|--- .... ....|--- .... ....|--- .... B..3
....|..|--- .... ....|--- .... ....|--- .... B..4
....|..|--- .... ....|--- .... ....|--- .... B..3
....|.3|--- .... ....|C#6 ..9. ....|C#7 ..9. B..4
....|.3|--- .... ....|--- .... ....|--- .... B..3
....|.2|C#6 ..9. ....|--- .... ....|--- .... B..4
....|.2|--- .... ....|--- .... ....|--- .... B..3
....|.1|--- .... ....|A-5 ..6B ....|A-6 ..6B B..4
....|.1|--- .... ....|--- .... ....|--- .... B..3
....|..|A-5 ..6B ....|--- .... ....|--- .... B..4
....|..|--- .... ....|--- .... ....|--- .... B..3
....|.5|--- .... ....|D#5 ..4F ....|D#6 ..4F B..4
....|.4|--- .... ....|--- .... ....|--- .... B..3
....|.4|D#5 ..4F ....|--- .... ....|--- .... B..4
....|.3|--- .... ....|--- .... ....|--- .... B..3
....|.3|--- .... ....|--- .... ....|--- .... B..4
....|.2|--- .... ....|--- .... ....|--- .... B..3
....|.2|--- .... ....|--- .... ....|--- .... B..4
....|.1|--- .... ....|--- .... ....|--- .... B..3
....|.3|--- .... ....|G#5 ..5. ....|G#6 ..5. B..4
....|.3|--- .... ....|--- .... ....|--- .... B..3
....|.2|G#5 ..5. ....|--- .... ....|--- .... B..4
....|.2|--- .... ....|--- .... ....|--- .... B..3
....|.1|--- .... ....|--- .... ....|--- .... B..4
....|.1|--- .... ....|--- .... ....|--- .... B..3
....|..|--- .... ....|--- .... ....|--- .... B..4
....|..|--- .... ....|--- .... ....|--- .... B..3
....|.2|--- .... ....|D#5 ..4B ....|D#6 ..4B B..4
....|.2|--- .... ....|--- .... ....|--- .... B..3
....|.2|D#5 ..4B ....|--- .... ....|--- .... B..4
....|.1|--- .... ....|--- .... ....|--- .... B..3
....|.1|--- .... ....|G#5 ..5. ....|G#6 ..5. B..4
....|.1|--- .... ....|--- .... ....|--- .... B..3
....|..|G#5 ..5. ....|--- .... ....|--- .... B..4
....|..|--- .... ....|--- .... ....|--- .... B..3
....|.2|--- .... ....|D#5 ..4F ....|D#6 ..4F B..4
....|.2|--- .... ....|--- .... ....|--- .... B..3
....|.2|D#5 ..4F ....|--- .... ....|--- .... B..4
....|.1|--- .... ....|--- .... ....|--- .... B..3
....|.1|--- .... ....|--- .... ....|--- .... B..4
....|.1|--- .... ....|--- .... ....|--- .... B..3
....|..|--- .... ....|--- .... ....|--- .... B..4
....|..|--- .... ....|--- .... ....|--- .... B..3
....|.3|--- .... ....|G#5 ..5. ....|G#6 ..5. B..4
....|.3|--- .... ....|--- .... ....|--- .... B..3
....|.2|G#5 ..5. ....|--- .... ....|--- .... B..4
....|.2|--- .... ....|--- .... ....|--- .... B..3
....|.1|--- .... ....|--- .... ....|--- .... B..4
....|..|--- .... ....|--- .... ....|--- .... B..3
....|..|--- .... ....|--- .... ....|--- .... B..4
....|..|--- .... ....|--- .... ....|--- .... B..3
....|.3|--- .... ....|B-5 ..8. ....|B-6 ..8. B..4
....|.3|--- .... ....|--- .... ....|--- .... B..3
....|.2|B-5 ..8. ....|--- .... ....|--- .... B..4
....|.2|--- .... ....|--- .... ....|--- .... B..3
....|.1|--- .... ....|G#5 ..5B ....|G#6 ..5B B..4
....|.1|--- .... ....|--- .... ....|--- .... B..3
....|..|G#5 ..5B ....|--- .... ....|--- .... B..4
....|..|--- .... ....|--- .... ....|--- .... B..3

[Pattern13]
....|.5|--- .... ....|G-5 E.6F ....|G-6 8.6F B..4
....|.4|--- .... ....|--- .... ....|--- .... B..3
....|.4|G-5 8.6F ....|--- .... ....|--- .... B..4
....|.3|--- .... ....|--- .... ....|--- .... B..3
....|.3|--- .... ....|--- .... ....|--- .... B..4
....|.2|--- .... ....|--- .... ....|--- .... B..3
....|.2|--- .... ....|--- .... ....|--- .... B..4
....|.1|--- .... ....|--- .... ....|--- .... B..3
....|.3|--- .... ....|--- .... ....|--- .... B..4
....|.3|--- .... ....|--- .... ....|--- .... B..3
....|.2|--- .... ....|--- .... ....|--- .... B..4
....|.2|--- .... ....|--- .... ....|--- .... B..3
....|.1|--- .... ....|--- .... ....|--- .... B..4
....|.1|--- .... ....|--- .... ....|--- .... B..3
....|..|--- .... ....|--- .... ....|--- .... B..4
....|..|--- .... ....|--- .... ....|--- .... B..3
....|..|--- .... ....|--- .... ....|--- .... B..4
....|..|--- .... ....|--- .... ....|--- .... B..3
....|..|--- .... ....|--- .... ....|--- .... B..4
....|..|--- .... ....|--- .... ....|--- .... B..3
....|..|--- .... ....|--- .... ....|--- .... B..4
....|..|--- .... ....|--- .... ....|--- .... B..3
....|..|--- .... ....|--- .... ....|--- .... B..4
....|..|--- .... ....|--- .... ....|--- .... B..3
....|.2|--- .... ....|A-5 ..7. ....|A-6 ..7. B..4
....|.2|--- .... ....|--- .... ....|--- .... B..3
....|.2|A-5 ..7. ....|--- .... ....|--- .... B..4
....|.1|--- .... ....|--- .... ....|--- .... B..3
....|.1|--- .... ....|--- .... ....|--- .... B..4
....|.1|--- .... ....|--- .... ....|--- .... B..3
....|..|--- .... ....|--- .... ....|--- .... B..4
....|..|--- .... ....|--- .... ....|--- .... B..3
....|.3|--- .... ....|G-5 ..6E ....|G-6 ..6E B..4
....|.3|--- .... ....|--- .... ....|--- .... B..3
....|.2|G-5 ..6E ....|--- .... ....|--- .... B..4
....|.2|--- .... ....|--- .... ....|--- .... B..3
....|.1|--- .... ....|--- .... ....|--- .... B..4
....|..|--- .... ....|--- .... ....|--- .... B..3
....|..|--- .... ....|--- .... ....|--- .... B..4
....|..|--- .... ....|--- .... ....|--- .... B..3
....|.3|--- .... ....|A-5 ..7. ....|A-6 ..7. B..4
....|.3|--- .... ....|--- .... ....|--- .... B..3
....|.2|A-5 ..7. ....|--- .... ....|--- .... B..4
....|.2|--- .... ....|--- .... ....|--- .... B..3
....|.1|--- .... ....|G-5 ..6B ....|G-6 ..6B B..4
....|.1|--- .... ....|--- .... ....|--- .... B..3
....|..|G-5 ..6B ....|--- .... ....|--- .... B..4
....|..|--- .... ....|--- .... ....|--- .... B..3
....|.3|--- .... ....|F#5 ..3D ....|F#6 ..3D B..4
....|.3|--- .... ....|--- .... ....|--- .... B..3
....|.2|F#5 ..3D ....|--- .... ....|--- .... B..4
....|.2|--- .... ....|--- .... ....|--- .... B..3
....|.1|--- .... ....|--- .... ....|--- .... B..4
....|.1|--- .... ....|--- .... ....|--- .... B..3
....|..|--- .... ....|--- .... ....|--- .... B..4
....|..|--- .... ....|--- .... ....|--- .... B..3
....|.1|--- .... ....|--- .... ....|--- .... B..4
....|.1|--- .... ....|--- .... ....|--- .... B..3
....|.1|--- .... ....|--- .... ....|--- .... B..4
....|.1|--- .... ....|--- .... ....|--- .... B..3
....|.1|--- .... ....|G-5 ..6C ....|G-6 ..6C B..4
....|.1|--- .... ....|--- .... ....|--- .... B..3
....|.1|G-5 ..6C ....|--- .... ....|--- .... B..4
....|.1|--- .... ....|--- .... ....|--- .... B..3
....|.2|--- .... ....|--- .... ....|--- .... B..4
....|.2|--- .... ....|--- .... ....|--- .... B..3
....|.2|--- .... ....|--- .... ....|--- .... B..4
....|.2|--- .... ....|--- .... ....|--- .... B..3
....|.2|--- .... ....|--- .... ....|--- .... B..4
....|.2|--- .... ....|--- .... ....|--- .... B..3
....|.2|--- .... ....|--- .... ....|--- .... B..4
....|.2|--- .... ....|--- .... ....|--- .... B..3
....|.3|--- .... ....|A#5 ..9B ....|A#6 ..9B B..4
....|.3|--- .... ....|--- .... ....|--- .... B..3
....|.3|A#5 ..9B ....|--- .... ....|--- .... B..4
....|.3|--- .... ....|--- .... ....|--- .... B..3
....|.3|--- .... ....|--- .... ....|--- .... B..4
....|.3|--- .... ....|--- .... ....|--- .... B..3
....|.3|--- .... ....|--- .... ....|--- .... B..4
....|.3|--- .... ....|--- .... ....|--- .... B..3
....|.4|--- .... ....|--- .... ....|--- .... B..4
....|.4|--- .... ....|--- .... ....|--- .... B..3
....|.4|--- .... ....|--- .... ....|--- .... B..4
....|.4|--- .... ....|--- .... ....|--- .... B..3
....|.4|--- .... ....|C-6 ..7A ....|C-7 ..7A B..4
....|.4|--- .... ....|--- .... ....|--- .... B..3
....|.4|C-6 ..7A ....|--- .... ....|--- .... B..4
....|.4|--- .... ....|--- .... ....|--- .... B..3
....|.5|--- .... ....|--- .... ....|--- .... B..4
....|.5|--- .... ....|--- .... ....|--- .... B..3
....|.5|--- .... ....|--- .... ....|--- .... B..4
....|.5|--- .... ....|--- .... ....|--- .... B..3
....|.5|--- .... ....|--- .... ....|--- .... B..4
....|.5|--- .... ....|--- .... ....|--- .... B..3
....|.5|--- .... ....|--- .... ....|--- .... B..4
....|.6|--- .... ....|--- .... ....|--- .... B..3

[Pattern14]
....|.6|--- .... ....|D#6 ..A9 ....|D#7 ..A9 B..4
....|.6|--- .... ....|--- .... ....|--- .... B..3
....|.6|D#6 ..A9 ....|--- .... ....|--- ...8 B..4
....|.6|--- .... ....|--- .... ....|--- .... B..3
....|.6|--- ...8 ....|--- ...8 ....|--- ...7 B..4
....|.6|--- .... ....|--- .... ....|--- .... B..3
....|.6|--- ...7 ....|--- .... ....|--- ...6 B..4
....|.6|--- .... ....|--- .... ....|--- .... B..3
....|.7|--- ...6 ....|--- ...7 ....|--- ...5 B..4
....|.7|--- .... ....|--- .... ....|--- .... B..3
....|.7|--- ...5 ....|--- .... ....|--- ...4 B..4
....|.7|--- .... ....|--- .... ....|--- .... B..3
....|.7|--- ...4 ....|--- ...6 ....|--- ...3 B..4
....|.7|--- .... ....|--- .... ....|--- .... B..3
....|.7|--- ...3 ....|--- ...5 ....|--- ...2 B..4
....|.7|--- .... ....|--- .... ....|--- .... B..3
....|.8|--- ...2 ....|D-6 ..94 ....|D-7 ..9. B..4
....|.8|--- .... ....|--- .... ....|--- .... B..3
....|.8|D-6 ..9. ....|--- ...3 ....|--- .... B..4
....|.8|--- .... ....|--- .... ....|--- .... B..3
....|.8|--- .... ....|--- ...2 ....|--- .... B..4
....|.8|--- .... ....|--- .... ....|--- .... B..3
....|.8|--- ...1 ....|--- ...1 ....|--- ...1 B..4
....|.8|--- .... ....|--- .... ....|--- .... B..3

[Pattern15]
....|..|R-- .... ....|R-- .... ....|R-- .... ....
....|..|--- .... ....|--- .... ....|--- .... ....
....|..|--- .... ....|--- .... ....|--- .... ....
....|..|--- .... ....|--- .... ....|--- .... ....
....|..|--- .... ....|--- .... ....|--- .... ....
....|..|--- .... ....|--- .... ....|--- .... ....
....|..|--- .... ....|--- .... ....|--- .... ....
....|..|--- .... ....|--- .... ....|--- .... ....

